<svg xmlns="http://www.w3.org/2000/svg" xmlns:xlink="http://www.w3.org/1999/xlink" version="1.1" x="0px" y="0px" viewBox="0 0 100 125" style="enable-background:new 0 0 100 100;" xml:space="preserve"><g><path d="M50,70.8c4.5,0,8.3-3.7,8.3-8.3c0-4.1-3.1-7.6-7.1-8.2v-5.8h10.3c0.7,0,1.2-0.5,1.2-1.2c0-0.7-0.5-1.2-1.2-1.2H51.2v-5.1   h5.9c0.7,0,1.2-0.5,1.2-1.2c0-0.7-0.5-1.2-1.2-1.2h-5.9v-5.1h10.3c0.7,0,1.2-0.5,1.2-1.2c0-0.7-0.5-1.2-1.2-1.2H51.2V19.5   c0-0.7-0.5-1.2-1.2-1.2s-1.2,0.5-1.2,1.2v34.9c-4,0.6-7.1,4-7.1,8.2C41.7,67.1,45.5,70.8,50,70.8z M50,56.7c3.2,0,5.9,2.6,5.9,5.9   c0,3.2-2.6,5.9-5.9,5.9s-5.9-2.6-5.9-5.9C44.1,59.3,46.8,56.7,50,56.7z"/><path d="M73,73.4c-2.4-0.1-4.6,1-6.7,3.3c0,0,0,0,0,0c0,0,0,0,0,0c0,0,0,0,0,0c0,0,0,0,0,0c0,0-2,2.4-4.7,2.5   c-1.7,0.1-3.3-0.8-4.9-2.5c-0.3-0.4-2.8-3.2-6.4-3.3c-2.4-0.1-4.6,1-6.7,3.3c0,0,0,0,0,0c0,0,0,0,0,0c0,0,0,0,0,0c0,0,0,0,0,0   c0,0-2,2.4-4.7,2.5c-1.7,0.1-3.3-0.8-4.9-2.5c-0.3-0.4-2.8-3.2-6.4-3.3c-2.4-0.1-4.7,1-6.8,3.3c-0.4,0.5-0.4,1.2,0.1,1.7   c0.5,0.4,1.2,0.4,1.7-0.1c1.6-1.7,3.2-2.6,4.9-2.6c2.7,0.1,4.6,2.5,4.7,2.5c0,0,0,0,0,0c0,0,0,0,0,0c2,2.2,4.2,3.3,6.5,3.3   c0.1,0,0.2,0,0.2,0c3.6-0.1,6.1-3,6.4-3.3c1.6-1.7,3.2-2.6,4.9-2.5c2.7,0.1,4.6,2.5,4.7,2.5c0,0,0,0,0,0c0,0,0,0,0,0   c2,2.2,4.2,3.3,6.5,3.3c0.1,0,0.2,0,0.2,0c3.6-0.1,6.1-3,6.4-3.3c1.6-1.7,3.2-2.6,4.9-2.5c2.7,0.1,4.6,2.5,4.7,2.5   c0.2,0.3,0.6,0.4,0.9,0.4c0.3,0,0.5-0.1,0.8-0.3c0.5-0.4,0.6-1.2,0.2-1.7C79.3,76.7,76.7,73.5,73,73.4z"/><path d="M61.2,68.8c-0.7,0-1.2,0.5-1.2,1.2c0,0.7,0.5,1.2,1.2,1.2c0.1,0,0.1,0,0.2,0c3.7,0,6.3-3,6.6-3.4c1.6-1.7,3.2-2.6,4.9-2.5   c2.7,0.1,4.6,2.5,4.7,2.5c0.2,0.3,0.6,0.4,0.9,0.4c0.3,0,0.5-0.1,0.8-0.3c0.5-0.4,0.6-1.2,0.2-1.7c-0.1-0.1-2.7-3.3-6.5-3.4   c-2.4-0.1-4.7,1-6.8,3.3c0,0,0,0,0,0c0,0,0,0,0,0C66.1,66.3,64,68.9,61.2,68.8z"/><path d="M20.8,68c0.2,0.2,0.5,0.3,0.8,0.3c0.4,0,0.7-0.2,0.9-0.4c0,0,2-2.4,4.7-2.5c1.7-0.1,3.3,0.8,4.9,2.5   c0.3,0.4,2.9,3.4,6.6,3.4c0.1,0,0.1,0,0.2,0c0.7,0,1.2-0.6,1.2-1.2c0-0.7-0.6-1.2-1.2-1.2c0,0-0.1,0-0.1,0c-2.7,0-4.8-2.5-4.8-2.5   c0,0,0,0,0,0c0,0,0,0,0,0c-2.1-2.3-4.4-3.4-6.8-3.3c-3.8,0.1-6.4,3.3-6.5,3.4C20.2,66.8,20.2,67.6,20.8,68z"/></g><text x="0" y="115" fill="#000000" font-size="5px" font-weight="bold" font-family="'Helvetica Neue', Helvetica, Arial-Unicode, Arial, Sans-serif">Created by Anton Gajdosik</text><text x="0" y="120" fill="#000000" font-size="5px" font-weight="bold" font-family="'Helvetica Neue', Helvetica, Arial-Unicode, Arial, Sans-serif">from the Noun Project</text></svg>