<svg xmlns:dc="http://purl.org/dc/elements/1.1/" xmlns:cc="http://creativecommons.org/ns#" xmlns:rdf="http://www.w3.org/1999/02/22-rdf-syntax-ns#" xmlns:svg="http://www.w3.org/2000/svg" xmlns="http://www.w3.org/2000/svg" xmlns:sodipodi="http://sodipodi.sourceforge.net/DTD/sodipodi-0.dtd" xmlns:inkscape="http://www.inkscape.org/namespaces/inkscape" version="1.1" x="0px" y="0px" viewBox="0 0 100 125"><g transform="translate(0,-952.36218)"><path style="font-size:medium;font-style:normal;font-variant:normal;font-weight:normal;font-stretch:normal;text-indent:0;text-align:start;text-decoration:none;line-height:normal;letter-spacing:normal;word-spacing:normal;text-transform:none;direction:ltr;block-progression:tb;writing-mode:lr-tb;text-anchor:start;baseline-shift:baseline;opacity:1;color:#000000;fill:#000000;fill-opacity:1;stroke:none;stroke-width:3.99999951999999980;marker:none;visibility:visible;display:inline;overflow:visible;enable-background:accumulate;font-family:Sans;-inkscape-font-specification:Sans" d="M 7.8125 38 A 2.0001998 2.0001998 0 0 0 6 40 L 6 60 A 2.0001998 2.0001998 0 0 0 8 62 L 92 62 A 2.0001998 2.0001998 0 0 0 94 60 L 94 40 A 2.0001998 2.0001998 0 0 0 92 38 L 54 38 A 2.0001998 2.0001998 0 1 0 54 42 L 90 42 L 90 58 L 88 58 L 88 55 A 2.0001998 2.0001998 0 0 0 85.78125 52.96875 A 2.0001998 2.0001998 0 0 0 84 55 L 84 58 L 79 58 L 79 55 A 2.0001998 2.0001998 0 0 0 76.78125 52.96875 A 2.0001998 2.0001998 0 0 0 75 55 L 75 58 L 70 58 L 70 49 A 2.0001998 2.0001998 0 0 0 67.78125 46.96875 A 2.0001998 2.0001998 0 0 0 66 49 L 66 58 L 61 58 L 61 55 A 2.0001998 2.0001998 0 0 0 58.78125 52.96875 A 2.0001998 2.0001998 0 0 0 57 55 L 57 58 L 52 58 L 52 49 A 2.0001998 2.0001998 0 0 0 49.78125 46.96875 A 2.0001998 2.0001998 0 0 0 48 49 L 48 58 L 43 58 L 43 55 A 2.0001998 2.0001998 0 0 0 40.78125 52.96875 A 2.0001998 2.0001998 0 0 0 39 55 L 39 58 L 34 58 L 34 49 A 2.0001998 2.0001998 0 0 0 31.78125 46.96875 A 2.0001998 2.0001998 0 0 0 30 49 L 30 58 L 25 58 L 25 55 A 2.0001998 2.0001998 0 0 0 22.78125 52.96875 A 2.0001998 2.0001998 0 0 0 21 55 L 21 58 L 16 58 L 16 55 A 2.0001998 2.0001998 0 0 0 13.78125 52.96875 A 2.0001998 2.0001998 0 0 0 12 55 L 12 58 L 10 58 L 10 42 L 46 42 A 2.0001998 2.0001998 0 1 0 46 38 L 8 38 A 2.0001998 2.0001998 0 0 0 7.8125 38 z " transform="translate(0,952.36218)"/></g><text x="0" y="115" fill="#000000" font-size="5px" font-weight="bold" font-family="'Helvetica Neue', Helvetica, Arial-Unicode, Arial, Sans-serif">Created by Jasfart</text><text x="0" y="120" fill="#000000" font-size="5px" font-weight="bold" font-family="'Helvetica Neue', Helvetica, Arial-Unicode, Arial, Sans-serif">from the Noun Project</text></svg>