<svg xmlns="http://www.w3.org/2000/svg" viewBox="0 0 128 128">
  <title>man</title>
  <g id="man">
    <g>
		<path
			d="M81.9,66c.2-.3.5-.3.9-.5L80.2,65v-.6c-1.5-.2-2.5-.3-3.8.8a14.5,14.5,0,0,0-1.8,1.7l-.8.9-.8.9a32.4,32.4,0,0,0-2.7,3.5c-.1.2-.2.3-.2.5a45,45,0,0,0,1.8,7l.4,1.2-.8-1.6a13.4,13.4,0,0,1-.7-1.8,32.5,32.5,0,0,1-1.1-3.7,19.8,19.8,0,0,0-3.3.4A71,71,0,0,0,56.7,76c-2.7.7-3.8,2.5-5.3,4.3l-1.6,2.2c-.1.2-.7.9-.7,1.1a3.8,3.8,0,0,0,1.5-.9l2.9-3.6h.1l-.9,1.6a17.7,17.7,0,0,1-1.6,2.2l-.6.6c-2,1.4-1.9.5-2.2,1.5l-.8,3-1.1,3.6h6a1.2,1.2,0,0,0-.6-1.3l-1.5-.5a13.4,13.4,0,0,1,1.2-2.4c.6-.9,4.1-2.5,5.4-3.4s1.8-3.1,5.9-2.6l6,.9-3.5-.3c-1.3-.1-4.1-.5-5.3.1a2.6,2.6,0,0,0-.9.9c1.7,0,3.6.3,5.3.4l5.3.5c1.8.1,2.5.3,2.9,2.6a35.2,35.2,0,0,1,.4,6.1h5.4c.1-1.5,0-2-.7-2.3l-1.4-.5,1.5-5.5c.2-.6,1.5-5.3,1.5-5.5l-.8,4.9,1.1-.7a1.5,1.5,0,0,0,.7-1c.4-1.3,1-4,1.3-5.4s.4-2.1.4-3a1.6,1.6,0,0,1-1.5-1.2,11,11,0,0,1-.2-3.2c0,.8.3,3,1,3.5a12.5,12.5,0,0,0,3.7,1l.3-1c.1-.3,0-.2,0-.4v-.8l-.4.7c-2-.6-1.8-3.7.3-3.7l.5,1c.1-.3,0-.7.1-1s0,.2.1-.2a7.2,7.2,0,0,0-.1-2.1,10.3,10.3,0,0,0-3.9-.1Z"
			fill="#fff" fill-rule="evenodd" />
		<path
			d="M41,91.6h2.5c.4,0,.3-.1.5-.4l1.5-1.8,1.4-1.8a9.7,9.7,0,0,0,.8-2.4l-3.2,4c-.2.2-.3.2-.4.5s-1.6,0-2,.5L41,91.6Z"
			fill="#fff" fill-rule="evenodd" />
		<path
			d="M0,35.5v24H12V50l7.5,7.4L27,50v9.5H40v-24H28.2L20,43.6l-8.2-8.1Zm128,24v-24H116V46.4L101.4,35.5H89v24h12V48.6l14.6,10.9Zm-57.2-24H57.5l-15.6,24H54.7l1.8-3H71.8l1.8,3H86.4l-15.6-24Zm-3.1,15H60.5l3.6-5.6,3.6,5.6Z"
			fill="#fff" fill-rule="evenodd" />
	</g>
  </g>
</svg>
