<svg xmlns="http://www.w3.org/2000/svg" width="2500" height="1571" viewBox="14.81 12.759 232.379 146.051">
	<path
		d="M163.92 146.99h8.648v2.002h-8.648v-2.002zM20.076 134.848l-.773 20.094v.349c0 1.701.501 2.052 3.213 2.244v.931c-1.974-.152-2.751-.191-3.833-.191-1.085 0-1.859.039-3.872.191v-.931c2.709-.192 3.098-.503 3.175-2.593l.813-19.008v-.229c0-1.784-.543-2.17-3.212-2.324v-.97c1.507.117 2.088.156 3.173.156a30.25 30.25 0 0 0 3.679-.191l7.198 19.586 7.315-19.586c1.745.152 2.557.191 3.719.191.964 0 1.586-.039 3.056-.156v.97c-2.631.154-3.215.54-3.215 2.282v.271l.427 19.008c.042 2.09.388 2.398 3.176 2.593v.931c-2.438-.232-3.369-.312-4.839-.312-1.473 0-2.402.076-4.84.312v-.931c2.631-.153 3.212-.581 3.212-2.397v-.191l-.345-20.055-6.39 17.264-.463 1.279-.542 1.43-.506 1.476-.425 1.276h-.581l-.424-1.238-.544-1.514-.541-1.508-.465-1.354-6.346-17.155zm29.067 12.504c.388-4.451 1.857-6.732 4.335-6.732 2.517 0 3.794 2.167 4.025 6.732h-8.36zm5.034 10.142c-3.523 0-5.074-2.71-5.109-8.749h11.536c-.079-5.961-2.518-9.136-7.087-9.136-4.642 0-7.547 3.756-7.547 9.718 0 5.961 2.906 9.444 7.897 9.444 3.794 0 6.273-2.363 6.773-6.349h-1.55c-.464 3.29-2.167 5.072-4.913 5.072zm8.73-16.453v-.695c2.205-.193 3.523-.425 5.109-.891.194 1.434.271 2.051.348 3.214v.427c.854-2.207 2.515-3.486 4.53-3.486 1.934 0 3.368 1.279 3.368 3.139 0 1.123-.658 1.857-1.626 1.857-.89 0-1.586-.543-1.586-1.315 0-.077.04-.229.075-.39l.077-.385v-.352c0-.542-.465-.928-1.162-.928-2.01 0-3.287 2.438-3.287 6.271v8.089c0 1.668.385 1.977 2.748 2.092v.775c-2.132-.191-2.944-.234-4.299-.234-1.393 0-2.205.043-4.333.234v-.775c2.359-.115 2.785-.424 2.785-2.092v-12.654c-.037-1.666-.233-1.857-2.243-1.898l-.504-.003zm28.164-1.777v6.389h-.854c-.697-3.371-2.128-4.996-4.488-4.996-2.906 0-4.607 3.138-4.607 8.673 0 5.418 1.509 8.167 4.489 8.167 2.4 0 3.832-1.702 4.297-5.107h1.586c-.504 4.143-2.71 6.387-6.192 6.387-4.491 0-7.547-3.795-7.547-9.444 0-5.771 3.095-9.718 7.663-9.718 1.665 0 2.71.427 3.951 1.627l1.042-1.975h.661v-.003zm6.356 8.088c.387-4.451 1.856-6.732 4.335-6.732 2.516 0 3.793 2.167 4.023 6.732h-8.358zm5.032 10.142c-3.523 0-5.07-2.71-5.109-8.749h11.534c-.077-5.961-2.518-9.136-7.082-9.136-4.648 0-7.552 3.756-7.552 9.718 0 5.961 2.903 9.444 7.9 9.444 3.793 0 6.271-2.363 6.772-6.349h-1.548c-.464 3.29-2.167 5.072-4.915 5.072zm17.145.235c-2.787 0-4.257-2.906-4.257-8.438 0-5.61 1.354-8.36 4.142-8.36 2.866 0 4.337 2.941 4.337 8.635-.001 5.375-1.434 8.163-4.222 8.163zm7.277-3.293v-22.348c-1.935.518-3.675.825-5.842 1.057v.66c2.438 0 2.748.271 2.748 2.283v6.773c-1.432-2.321-2.555-3.02-4.646-3.02-4.141 0-7.046 3.909-7.046 9.483 0 5.575 2.94 9.481 7.162 9.481 2.206 0 3.716-1.006 4.799-3.172.154 1.471.154 1.625.543 3.094 1.585-.504 2.245-.658 4.529-.928l.58-.076v-.658c-2.594-.077-2.827-.268-2.827-2.629zm7.469-7.084c.387-4.451 1.857-6.732 4.336-6.732 2.516 0 3.791 2.167 4.023 6.732h-8.359zm5.033 10.142c-3.525 0-5.07-2.71-5.111-8.749h11.535c-.078-5.961-2.516-9.136-7.082-9.136-4.648 0-7.55 3.756-7.55 9.718 0 5.961 2.902 9.444 7.898 9.444 3.793 0 6.27-2.363 6.771-6.349h-1.549c-.461 3.29-2.167 5.072-4.912 5.072zm9.711 1.317v-6.467l.852-.037c.695 3.524 2.322 5.228 5.033 5.228 2.281 0 3.986-1.511 3.986-3.481 0-1.316-.734-2.205-2.634-3.059l-1.47-.66-1.78-.812c-2.829-1.315-3.718-2.4-3.718-4.646 0-3.059 2.398-5.146 5.807-5.146 1.51 0 2.635.348 3.949 1.234l.656-1.586h.697v6h-.892c-.351-3.098-1.626-4.566-4.063-4.566-2.051 0-3.642 1.394-3.642 3.213 0 1.547.581 2.053 4.104 3.6l1.627.699c2.939 1.273 3.988 2.515 3.988 4.8 0 3.252-2.595 5.571-6.23 5.571-1.782 0-3.176-.465-4.646-1.625l-.933 1.74h-.692zm34.028-13.356c2.05 0 3.211.35 4.103 1.238.891.894 1.396 2.557 1.396 4.412 0 3.871-1.938 6.041-5.382 6.041h-1.393c-2.053 0-2.4-.312-2.4-2.015v-9.679l3.676.003zm-3.679-11.73h3.291c3.252 0 4.683 1.59 4.683 5.188 0 1.78-.425 3.06-1.276 4.063-.852.971-1.896 1.277-4.062 1.277h-2.633v-10.529h-.003v.001zm11.418 5.11c0-2.013-.85-3.791-2.322-4.917-1.314-.967-2.822-1.391-5.342-1.391h-10.18v.967c2.789.156 3.174.465 3.174 2.555v18.773c0 2.091-.312 2.359-3.174 2.595v.931h9.793c2.863 0 4.414-.351 6.041-1.357 1.934-1.238 3.211-3.6 3.211-6.034 0-2.095-.891-3.99-2.4-5.147-.811-.619-1.664-.972-3.059-1.24 2.79-1.05 4.258-3.025 4.258-5.735zm7.52 8.517c.389-4.451 1.859-6.732 4.338-6.732 2.514 0 3.793 2.167 4.023 6.732h-8.361zm5.035 10.142c-3.523 0-5.074-2.71-5.111-8.749h11.537c-.078-5.961-2.518-9.136-7.086-9.136-4.645 0-7.549 3.756-7.549 9.718 0 5.961 2.904 9.444 7.896 9.444 3.793 0 6.271-2.363 6.774-6.349h-1.549c-.461 3.29-2.164 5.072-4.912 5.072zm8.473-16.299v-.655c2.246-.312 3.562-.619 5.108-1.162.196.894.313 1.897.388 3.368 1.395-2.092 2.98-3.018 5.227-3.018 2.324 0 4.334 1.195 5.111 3.094.389.931.582 2.013.582 3.482v9.291c0 1.666.387 1.975 2.746 2.09v.775c-2.051-.195-2.824-.232-4.218-.232-1.435 0-2.207.037-4.222.232v-.775c2.09-.074 2.594-.463 2.594-2.011v-9.485c0-3.367-1.006-4.724-3.482-4.724-2.635 0-4.027 1.667-4.027 4.839v9.37c0 1.548.506 1.937 2.52 2.011v.775c-2.014-.195-2.787-.232-4.182-.232-1.355 0-2.17.037-4.182.232v-.775c2.359-.115 2.748-.424 2.748-2.09v-12.539c-.039-1.591-.271-1.82-2.205-1.82-.12 0-.311-.041-.506-.041zm20.666 17.153l10.49-17.266h-4.762c-2.514 0-3.137.54-4.529 4.025h-.771l.891-5.032h13.316l-10.53 17.265h4.527c2.635 0 3.717-1.043 4.879-4.568h.813l-1.005 5.576h-13.319z"
		fill="#091923" />
	<path
		d="M178.357 96.382a54.964 54.964 0 0 0 7.861-28.404c0-30.497-24.724-55.219-55.22-55.219-30.497 0-55.219 24.723-55.219 55.219a54.953 54.953 0 0 0 7.863 28.404l-.201.161.24-.093c9.665 16.026 27.238 26.747 47.317 26.747 20.08 0 37.651-10.721 47.315-26.747l.24.093-.196-.161zm1.077-28.404a48.168 48.168 0 0 1-6.428 24.094l-34.16-27.513-7.006-44.992c26.359.45 47.594 21.944 47.594 48.411zm-96.866 0c0-26.466 21.233-47.96 47.592-48.411l-7.006 44.992-34.16 27.513a48.183 48.183 0 0 1-6.426-24.094zM131 116.41c-17.186 0-32.271-8.96-40.867-22.455L131 78.145l40.867 15.811C163.27 107.45 148.188 116.41 131 116.41z"
		fill="#838383" />
</svg>
