<svg xmlns="http://www.w3.org/2000/svg" xmlns:xlink="http://www.w3.org/1999/xlink" version="1.1" x="0px" y="0px" viewBox="0 0 100 125" style="enable-background:new 0 0 100 100;" xml:space="preserve"><path d="M50,72.3c3.7,0,6.7-3,6.7-6.7c0-2.5-1.4-4.7-3.5-5.9V46.6h11.1c1.8,0,3.2-1.4,3.2-3.2s-1.4-3.2-3.2-3.2H53.2V36h11.1  c1.8,0,3.2-1.4,3.2-3.2s-1.4-3.2-3.2-3.2H53.2v-4.1h11.1c1.8,0,3.2-1.4,3.2-3.2c0-1.8-1.4-3.2-3.2-3.2H53.2v-3.9  c0-1.8-1.4-3.2-3.2-3.2s-3.2,1.4-3.2,3.2v44.5c-2.1,1.1-3.5,3.3-3.5,5.9C43.3,69.2,46.3,72.3,50,72.3z"/><path d="M91.8,75.3c-4.7,0-7.3,2.3-9.1,4c-1.6,1.5-2.6,2.3-4.8,2.3c-2.2,0-3.2-0.9-4.8-2.3c-1.9-1.7-4.4-4-9.1-4  c-4.7,0-7.3,2.3-9.1,4c-1.6,1.5-2.6,2.3-4.8,2.3c-2.2,0-3.2-0.9-4.8-2.3c-1.9-1.7-4.4-4-9.1-4c-4.7,0-7.3,2.3-9.1,4  c-1.6,1.5-2.6,2.3-4.8,2.3c-2.2,0-3.2-0.9-4.8-2.3c-1.9-1.7-4.4-4-9.1-4c-1.8,0-3.2,1.4-3.2,3.2s1.4,3.2,3.2,3.2  c2.2,0,3.2,0.9,4.8,2.3c1.9,1.7,4.4,4,9.1,4s7.3-2.3,9.1-4c1.6-1.5,2.6-2.3,4.8-2.3s3.2,0.9,4.8,2.3c1.9,1.7,4.4,4,9.1,4  s7.3-2.3,9.1-4c1.6-1.5,2.6-2.3,4.8-2.3c2.2,0,3.2,0.9,4.8,2.3c1.9,1.7,4.4,4,9.1,4s7.3-2.3,9.1-4c1.6-1.5,2.6-2.3,4.8-2.3  c1.8,0,3.2-1.4,3.2-3.2S93.6,75.3,91.8,75.3z"/><path d="M60.7,64.8c0,1.8,1.4,3.2,3.2,3.2c2.2,0,3.2,0.9,4.8,2.3c1.9,1.7,4.4,4,9.1,4c4.7,0,7.3-2.3,9.1-4c1.6-1.5,2.6-2.3,4.8-2.3  c1.8,0,3.2-1.4,3.2-3.2c0-1.8-1.4-3.2-3.2-3.2c-4.7,0-7.3,2.3-9.1,4c-1.6,1.5-2.6,2.3-4.8,2.3c-2.2,0-3.2-0.9-4.8-2.3  c-1.9-1.7-4.4-4-9.1-4C62.2,61.6,60.7,63.1,60.7,64.8z"/><path d="M8.2,68c2.2,0,3.2,0.9,4.8,2.3c1.9,1.7,4.4,4,9.1,4s7.3-2.3,9.1-4c1.6-1.5,2.6-2.3,4.8-2.3c1.8,0,3.2-1.4,3.2-3.2  c0-1.8-1.4-3.2-3.2-3.2c-4.7,0-7.3,2.3-9.1,4c-1.6,1.5-2.6,2.3-4.8,2.3c-2.2,0-3.2-0.9-4.8-2.3c-1.9-1.7-4.4-4-9.1-4  c-1.8,0-3.2,1.4-3.2,3.2C5,66.6,6.4,68,8.2,68z"/><text x="0" y="115" fill="#000000" font-size="5px" font-weight="bold" font-family="'Helvetica Neue', Helvetica, Arial-Unicode, Arial, Sans-serif">Created by Ervin Bolat</text><text x="0" y="120" fill="#000000" font-size="5px" font-weight="bold" font-family="'Helvetica Neue', Helvetica, Arial-Unicode, Arial, Sans-serif">from the Noun Project</text></svg>