<svg xmlns="http://www.w3.org/2000/svg" xmlns:xlink="http://www.w3.org/1999/xlink" version="1.1" x="0px" y="0px" viewBox="0 0 100 125" style="enable-background:new 0 0 100 100;" xml:space="preserve"><path d="M53.5,21.3c-19,0-34.4,15.4-34.4,34.4s15.4,34.4,34.4,34.4s34.4-15.4,34.4-34.4C88,36.7,72.6,21.3,53.5,21.3z M76,74.7  l-4.4-4.4l-3.5,3.5l4.4,4.4C68,82.1,62.3,84.6,56,85.1v-6.3h-5v6.3c-6.2-0.5-11.9-3-16.5-6.8l4.4-4.4l-3.5-3.5L31,74.7  c-3.8-4.5-6.3-10.2-6.8-16.5h6.3v-5h-6.3c0.5-6.2,3-11.9,6.8-16.5l4.4,4.4l3.5-3.5l-4.4-4.4c4.5-3.8,10.2-6.3,16.5-6.8v6.3h5v-6.3  c6.2,0.5,11.9,3,16.5,6.8l-4.4,4.4l3.5,3.5l4.4-4.4c3.8,4.5,6.3,10.2,6.8,16.5h-6.3v5h6.3C82.3,64.5,79.9,70.2,76,74.7z"/><polygon points="29,30.3 29,17.6 26.4,20.2 19.6,13.3 12,20.9 18.9,27.7 16.3,30.3 "/><path d="M53.5,51.9c-0.1,0-0.2,0-0.3,0l-9.8-9.8l-3.5,3.5l9.8,9.8c0,0.1,0,0.2,0,0.3c0,2.1,1.7,3.9,3.9,3.9c2.1,0,3.9-1.7,3.9-3.9  C57.4,53.6,55.7,51.9,53.5,51.9z"/><text x="0" y="115" fill="#000000" font-size="5px" font-weight="bold" font-family="'Helvetica Neue', Helvetica, Arial-Unicode, Arial, Sans-serif">Created by Ervin Bolat</text><text x="0" y="120" fill="#000000" font-size="5px" font-weight="bold" font-family="'Helvetica Neue', Helvetica, Arial-Unicode, Arial, Sans-serif">from the Noun Project</text></svg>