<svg xmlns="http://www.w3.org/2000/svg" viewBox="0 0 128 128">
  <title>daf</title>
  <g id="daf">
    <g>
      <g>
		  <path d="M27.5,49H2V71H27.6C46.8,71,48,49,27.5,49ZM22.4,65H16V55h6.4C30.2,55,30,65,22.4,65Z" fill="#fff" />
		  <polygon points="126 55 126 49 89 49 89 71 104 71 104 65 126 65 126 59 104 59 104 55 126 55" fill="#fff" />
		  <polygon points="53 49 40.5 71 54.8 71 63.9 55.5 69.5 65 62.8 65 59.4 71 87 71 73.7 49 53 49" fill="#fff" />
	  </g>
		<path d="M2,74H126v5H2Z" fill="#cc2229" />
    </g>
  </g>
</svg>
