<svg xmlns="http://www.w3.org/2000/svg" viewBox="0 0 128 128">
  <title>iveco</title>
  <g id="iveco">
    <g id="Layer_8" data-name="Layer 8">
      <g>
		  <path
			  d="M16.1,51.8H8.6a1.2,1.2,0,0,0-1.2,1.1V74.5a1.3,1.3,0,0,0,1.2,1.3h7.6a1.3,1.3,0,0,0,1.2-1.3V52.9A1.2,1.2,0,0,0,16.1,51.8Z"
			  fill="#fff" />
		  <path
			  d="M43.2,51.8H39a1.2,1.2,0,0,0-1.1.9l-4,16a.4.4,0,0,1-.4.4.5.5,0,0,1-.5-.4l-3.8-16a1.2,1.2,0,0,0-1.2-.9H20.6a1.1,1.1,0,0,0-1.2,1.1v.3l4.9,19.2a5,5,0,0,0,4.6,3.4H35A4.7,4.7,0,0,0,39.6,72l4.8-18.8v-.3A1.1,1.1,0,0,0,43.2,51.8Z"
			  fill="#fff" />
		  <path
			  d="M66.2,51.8h-15a4.8,4.8,0,0,0-4.8,4.7V71h0a4.9,4.9,0,0,0,4.9,4.8H66.2a1.3,1.3,0,0,0,1.2-1.3V70.9a1.1,1.1,0,0,0-1.2-1.1H57.6a1.2,1.2,0,0,1-1.2-1.3V66.8h6.9a1.2,1.2,0,0,0,1.1-1.2V62.8a1.2,1.2,0,0,0-1.1-1.1H56.4V59a1.2,1.2,0,0,1,1.2-1.2h8.6a1.3,1.3,0,0,0,1.2-1.3V52.9A1.1,1.1,0,0,0,66.2,51.8Z"
			  fill="#fff" />
		  <path
			  d="M120.3,60.2a9.9,9.9,0,0,0-8.5-8.1,43.9,43.9,0,0,0-5.4-.3h-.7a43.3,43.3,0,0,0-5.3.3,9.8,9.8,0,0,0-8.5,8.1,31.3,31.3,0,0,0-.3,4,26.9,26.9,0,0,0,.3,4,9.9,9.9,0,0,0,8.5,8.2c1.6.1,3.4.4,5.4.4h.6c2,0,3.8-.3,5.4-.4a10,10,0,0,0,8.5-8.2,26.9,26.9,0,0,0,.3-4A31.3,31.3,0,0,0,120.3,60.2Zm-9.5,7.2a3.6,3.6,0,0,1-3.4,3.4h-2.6a3.8,3.8,0,0,1-3.4-3.4,26.2,26.2,0,0,1-.1-2.9c0-1,0-2.4.1-3.3a3.7,3.7,0,0,1,3.5-3.2h2.5a3.6,3.6,0,0,1,3.4,3.2c.1.9.1,2.3.1,3.2A27.2,27.2,0,0,1,110.8,67.4Z"
			  fill="#fff" />
		  <path
			  d="M88.3,51.6a32.5,32.5,0,0,0-5.7-.4,29.7,29.7,0,0,0-5.4.4,9.8,9.8,0,0,0-8.4,8.1,18.1,18.1,0,0,0-.4,4h0a16.7,16.7,0,0,0,.4,3.9A10.1,10.1,0,0,0,77.2,76c1.6.1,3.4.3,5.4.3h5.7a1.3,1.3,0,0,0,1.1-1.3V71.1a1.1,1.1,0,0,0-1.1-1.2h-3l-3.4-.2a3.5,3.5,0,0,1-3.3-3.2c-.1-1-.2-1.9-.2-2.8h0a24.5,24.5,0,0,1,.2-2.7,3.5,3.5,0,0,1,3.3-3.2h6.4a1.1,1.1,0,0,0,1.1-1.2V52.8A1.2,1.2,0,0,0,88.3,51.6Z"
			  fill="#fff" />
	  </g>
    </g>
  </g>
</svg>
