<svg xmlns="http://www.w3.org/2000/svg" viewBox="0 0 128 128">
  <title>scania</title>
  <g id="scania">
    <g>
		<path
			d="M64,34.8a61.5,61.5,0,0,0,14.9-1.9h.6l.5.4a23.5,23.5,0,0,1,6.9,12v.6l-.4.5A60.5,60.5,0,0,0,71.8,72l-.2.7H71a23.3,23.3,0,0,1-7,1.1,24.3,24.3,0,0,1-7-1.1l-.5-.2-.2-.6A60.7,60.7,0,0,0,41.4,46.3l-.4-.5v-.6a23.7,23.7,0,0,1,7-12l.4-.5.6.2A64.1,64.1,0,0,0,64,34.8Z"
			fill="#071748" fill-rule="evenodd" />
		<path d="M43.7,50.4a20.2,20.2,0,0,1,6-14.3,20,20,0,0,1,28.6,0A20.2,20.2,0,1,1,43.7,50.4Z" fill="#071748"
			  fill-rule="evenodd" />
		<path
			d="M49,34.7a22.9,22.9,0,0,0-3.8,4.9,20.6,20.6,0,0,0-2.3,5.7A59.9,59.9,0,0,1,52,57.4a60.4,60.4,0,0,1,5.9,13.8,13.6,13.6,0,0,0,2.9.6,16.6,16.6,0,0,0,3.2.3,18.4,18.4,0,0,0,3.3-.3,12.7,12.7,0,0,0,2.8-.6,62.8,62.8,0,0,1,15-25.9,20.6,20.6,0,0,0-2.3-5.7A19.6,19.6,0,0,0,79,34.8c-2.3.5-4.8,1-7.3,1.3a64.9,64.9,0,0,1-7.7.5,68.1,68.1,0,0,1-7.8-.5c-2.4-.4-4.8-.8-7.2-1.4Zm-4.9,4.2a24.9,24.9,0,0,1,4.3-5.4l.3-.2H49a60.4,60.4,0,0,0,7.4,1.4,63.3,63.3,0,0,0,7.6.5,63.3,63.3,0,0,0,7.6-.5,65.8,65.8,0,0,0,7.5-1.4h.3l.3.3a21.8,21.8,0,0,1,4.2,5.3,23.7,23.7,0,0,1,2.5,6.4v.3l-.3.3A59.9,59.9,0,0,0,77.1,58a61.2,61.2,0,0,0-5.9,13.9v.3h-.4a19.8,19.8,0,0,1-3.3.8,20.7,20.7,0,0,1-3.5.3,19.5,19.5,0,0,1-3.4-.3,18.7,18.7,0,0,1-3.4-.8h-.3v-.3A61.2,61.2,0,0,0,50.9,58a59.9,59.9,0,0,0-9.1-12.1l-.3-.3v-.3a23.7,23.7,0,0,1,2.5-6.4Z"
			fill="#d9d9d9" />
		<path
			d="M44.3,50.4A19.6,19.6,0,0,1,64,30.6a20.2,20.2,0,0,1,14,5.8,19.8,19.8,0,0,1-28,28,20.2,20.2,0,0,1-5.7-14Zm6.6-13.1a18.8,18.8,0,0,0-5.4,13.1,18.5,18.5,0,0,0,37,0A18.5,18.5,0,0,0,50.9,37.3Z"
			fill="#d9d9d9" />
		<path
			d="M65.3,49.4a3.7,3.7,0,0,1,1.8.1,3,3,0,0,1,1.4,1.1l.3.7-.7-.2a4.2,4.2,0,0,0-3.3,0c-1.3.4-2.7.8-4-.3a1.6,1.6,0,0,1-.7-.9l-.5-.8-.4-1,.9.6c0,.1,2,1.5,5.2.7Z"
			fill="#d9d9d9" />
		<path
			d="M63.9,44.1c-1.3,0-2.6.3-3.1,1a2.6,2.6,0,0,0-.6.9s-3.5-2.3-4.6,2.8c0,0,2.1-1.5,3.3-.5a3.4,3.4,0,0,0,1.8,1.1c1.5.4,1.3.7,1.4,1.1a5,5,0,0,1-1.5,1.3c-1.3.8-2.1.4-3.3,0s-.1,1.8,2.3,1.8h.9a3.3,3.3,0,0,0-1.8,4.2,5.2,5.2,0,0,1,2.1-1.5s-3.1,3.6,1,7c0,0,0-3.1,1.1-4.1a12.8,12.8,0,0,1,.5,3.9,6.5,6.5,0,0,1-.4,1.8s4.8-.1,3.4-5.9c0,0,2,.6,1.6,3.3,0,0,4.4-2.2,1.5-6.7a2.5,2.5,0,0,1,2.2,2s2.3-3.6-1.6-7.1a2.2,2.2,0,0,1,2.3.8,5,5,0,0,0-2.7-4c-.6-.4.3-1.3.1-1.8l-5.9-1.3Z"
			fill="#d40026" fill-rule="evenodd" />
		<path d="M62,46.2a4.8,4.8,0,0,1,4-1.7s-.7,2.9-3.3,3.5L62,46.2Z" fill="#d40026" fill-rule="evenodd" />
		<path d="M63,46.5a4.4,4.4,0,0,1,2-1.1A2.8,2.8,0,0,1,63.2,47l-.2-.5Z" fill="#d9d9d9" fill-rule="evenodd" />
		<path d="M63.7,49.4a1.2,1.2,0,0,0-1-.2c.9.1,1.1,1.4,2.1,1.1l.5-.2c-.7.2-1.2-.4-1.6-.7Z" fill="#d9d9d9"
			  fill-rule="evenodd" />
		<path
			d="M66.5,53.2a3.2,3.2,0,0,0-.5-1.3,3.4,3.4,0,0,0-1.4-.9l.3,1.7a3.3,3.3,0,0,1-.4,1.5,1.7,1.7,0,0,1-.6.6,2.3,2.3,0,0,0,.1-1.4c-.1-.7-.5-1-1-1.5a6.2,6.2,0,0,1-.1,1.3,1.5,1.5,0,0,1-.7,1,1.6,1.6,0,0,0-.1-1.4l-.6.3c.1,0,.3.5,0,1.1a4.3,4.3,0,0,1-.9,1c1.2,0,2.3-.2,2.8-1.5a3.4,3.4,0,0,1-1,2.3A3.1,3.1,0,0,0,65,54.5a3.2,3.2,0,0,0,.5-2.2,4.4,4.4,0,0,1,.5,2.8,4.9,4.9,0,0,0,1.4-3.2,4.3,4.3,0,0,0-1.4-3l-.2.7a3.5,3.5,0,0,1,.7,3.6Z"
			fill="#d9d9d9" fill-rule="evenodd" />
		<path d="M67,50.1H65.7a7,7,0,0,1-4.7-.2.8.8,0,0,0,.4.4h0c1.2.9,2.3.6,3.5.2a7.8,7.8,0,0,1,2.1-.4Z"
			  fill="#d40026" />
		<path
			d="M64.7,42.3c.4.7,1,1.6,1.9,1.6a1.9,1.9,0,0,0,1.7-1h-.5a1.2,1.2,0,0,1-.7-1.4,1,1,0,0,1,1.3-.7.5.5,0,0,1,.5.3,2.8,2.8,0,0,1-.1-.9,1.5,1.5,0,0,1,1.5-1L67.9,45H60.1l-2.4-5.6a1.3,1.3,0,0,1,1.4,1,.6.6,0,0,1-.1.7l.5-.4a1.2,1.2,0,0,1,1.4.9,1,1,0,0,1-.6,1.3h-.7a2.1,2.1,0,0,0,1.9,1c.8,0,1.4-.9,1.8-1.6s-.4.2-.6.2a1,1,0,0,1-1.1-1.1,1.1,1.1,0,0,1,1.1-1.1l.5.2a1.1,1.1,0,0,1-.3-.8,1.1,1.1,0,1,1,2.2,0,1.2,1.2,0,0,1-.4.8l.6-.2a1.1,1.1,0,0,1,1.1,1.1,1,1,0,0,1-1.1,1.1l-.6-.2Z"
			fill="#e5aa19" fill-rule="evenodd" />
		<path
			d="M62.5,46.5h-.3a.6.6,0,0,1-.6.5c-.3,0-.6-.2-.6-.4h-.4a1.1,1.1,0,0,0,.8.9,1,1,0,0,0,1-.7h0a.3.3,0,0,0,.1-.2ZM61.4,45l-.2.2h-.1a1.9,1.9,0,0,0-.4.6,3.1,3.1,0,0,0,1,0h.1a2.1,2.1,0,0,1,1.5.2,1.9,1.9,0,0,1,.6.4l-.5.4s-.3-.3-.4,0h0A1.6,1.6,0,0,1,61.3,48,1.7,1.7,0,0,1,60,46.2c-.5-.2-2.8-1.4-3.8,1.9.8-.4,2.1-.8,3-.1h0a3.7,3.7,0,0,0,1.6,1h0c1.6.4,1.6.8,1.6,1.2a.1.1,0,0,1,.1.1h-.1s-.2.5-1.6,1.4h0a3,3,0,0,1-3,.3c.1.4.6,1,1.9.9h.8l2.1-.2-1.9.8a3,3,0,0,0-1.8,3.3,4.7,4.7,0,0,1,1.8-1.2l1-.2-.6.8a4.2,4.2,0,0,0,.4,6c.1-1,.4-2.9,1.3-3.6l.4-.4V59a13.7,13.7,0,0,1,.5,4,7,7,0,0,1-.3,1.4c1.2-.2,3.7-1.1,2.7-5.5v-.5l.5.2a2.9,2.9,0,0,1,1.8,3c1-.7,2.9-2.7.9-5.9l-.3-.5h.5a2.5,2.5,0,0,1,2.2,1.5c.5-1.2,1-3.6-1.7-6.1l-.5-.4h.6a2.2,2.2,0,0,1,1.8.3,4.5,4.5,0,0,0-2.3-3h0a5.1,5.1,0,0,1-1.8.9l-.2-.6a4.6,4.6,0,0,0,2.9-2.9,4.6,4.6,0,0,0-3.2,1.6l-.5-.4A5.1,5.1,0,0,1,71,44.2h.4v.4A6,6,0,0,1,70,47a5.6,5.6,0,0,1,2.8,4.2v1.2l-.6-1a1.7,1.7,0,0,0-1.3-.7A5.6,5.6,0,0,1,72,57.6l-.4.7-.2-.7A2.4,2.4,0,0,0,70.2,56c2.3,4.3-2,6.5-2,6.5l-.6.3v-.6a2.8,2.8,0,0,0-.7-2.7c.9,5.6-4,5.7-4,5.7h-.6l.3-.5a3.8,3.8,0,0,0,.4-1.7h0a8.3,8.3,0,0,0-.3-3.2,8.4,8.4,0,0,0-.7,3.4v.7l-.5-.4c-3-2.5-2.4-5.1-1.7-6.5a6.6,6.6,0,0,0-.9.9l-.4.4-.2-.5a3.3,3.3,0,0,1,1-3.9c-2.5-.1-2.4-2.1-2.4-2.1v-.4h.8a2.5,2.5,0,0,0,2.6-.1h0a5.3,5.3,0,0,0,1.4-1.1h0c0-.2,0-.4-1.2-.7h0a3.1,3.1,0,0,1-1.8-1.2c-1.1-.8-2.9.5-2.9.5l-.7.5.2-.8c.6-2.9,1.9-3.6,3.1-3.6a3.3,3.3,0,0,1,1.6.5,2.1,2.1,0,0,1,.4-.6Z"
			fill="#d9d9d9" />
		<path
			d="M115.1,79.7H104.8L99.4,93V79.6h-7V97.5h12.1l1.1-2.7h8.7l1.2,2.7h6.8l-7.3-17.8ZM84.4,89.3l-7.3-9.7H68.3V92.9L62.8,79.7H52.7L48.4,90.3H42.1c-.5,2.2-1.7,3.2-3.9,3.2S34,91.6,34,88.8s1.4-5.5,4.1-5.5,3.5,1,3.9,3.1h7.2v-.2c0-4.3-4.3-7.2-11-7.2s-10.5,2.8-11,9.1a6.9,6.9,0,0,0-4-2l-2.7-.3H16.6c-1.7-.1-2.7-.7-2.7-1.7s1-1.7,2.8-1.7,2.9.7,2.9,2.6h7.6v-.2c0-3.7-3.6-5.8-10.1-5.8S6.4,81,6.4,85s2.6,5.3,7.5,5.4h3c2.1,0,3.1.6,3.1,1.7s-1.3,1.9-2.8,1.9-3.7-.9-3.7-2.5H5.6v.2c0,3.9,4,6,11.1,6s10.2-1.5,11.3-5c2.2,3.7,5,5.1,10.6,5.1,3.5,0,5.3-.5,7.6-2.2l-.7,1.8h6.7l1.2-2.8h8.8l1.2,2.8H74.8V86.9L83,97.5h8.1V79.7H84.4v9.6Zm23.2,1,2.3-5.9,2.7,5.9Zm-52.3,0,2.3-6.1,2.8,6.1Z"
			fill="#fff" fill-rule="evenodd" />
	</g>
  </g>
</svg>
