<svg xmlns="http://www.w3.org/2000/svg" xmlns:xlink="http://www.w3.org/1999/xlink" version="1.1" x="0px" y="0px" viewBox="0 0 100 125" enable-background="new 0 0 100 100" xml:space="preserve"><g><path d="M17.57,75.883H82.43c0.828,0,1.5-0.671,1.5-1.5V32.687c0-0.829-0.672-1.5-1.5-1.5h-3.57v-5.57c0-0.829-0.672-1.5-1.5-1.5   H63.49c-0.828,0-1.5,0.671-1.5,1.5v5.57H37.494v-5.57c0-0.829-0.672-1.5-1.5-1.5H22.127c-0.828,0-1.5,0.671-1.5,1.5v5.57H17.57   c-0.828,0-1.5,0.671-1.5,1.5v41.696C16.07,75.211,16.742,75.883,17.57,75.883z M64.99,27.117h10.869v4.07H64.99V27.117z    M23.627,27.117h10.867v4.07H23.627V27.117z M19.07,34.187h3.057h13.867H63.49h13.869h3.57v38.696H19.07V34.187z"/><path d="M33.317,43.958h-8.65c-0.828,0-1.5,0.671-1.5,1.5s0.672,1.5,1.5,1.5h8.65c0.828,0,1.5-0.671,1.5-1.5   S34.146,43.958,33.317,43.958z"/><path d="M74.75,43.958h-2.825v-2.825c0-0.829-0.672-1.5-1.5-1.5s-1.5,0.671-1.5,1.5v2.825H66.1c-0.828,0-1.5,0.671-1.5,1.5   s0.672,1.5,1.5,1.5h2.825v2.826c0,0.829,0.672,1.5,1.5,1.5s1.5-0.671,1.5-1.5v-2.826h2.825c0.828,0,1.5-0.671,1.5-1.5   S75.578,43.958,74.75,43.958z"/></g><text x="0" y="115" fill="#000000" font-size="5px" font-weight="bold" font-family="'Helvetica Neue', Helvetica, Arial-Unicode, Arial, Sans-serif">Created by Rudez Studio</text><text x="0" y="120" fill="#000000" font-size="5px" font-weight="bold" font-family="'Helvetica Neue', Helvetica, Arial-Unicode, Arial, Sans-serif">from the Noun Project</text></svg>