<svg xmlns="http://www.w3.org/2000/svg" data-name="Layer 1" viewBox="0 0 100 125" x="0px" y="0px"><title>vehicle-dashboard-collection</title><path d="M79.24,44.86a1.5,1.5,0,1,0,1.93-2.3l-3.83-3.21a1.49,1.49,0,0,0-.32-0.2l-0.07,0A1.49,1.49,0,0,0,76.55,39h0a1.5,1.5,0,0,0-.42,0h0l-19,3.74a1,1,0,0,1-.9-0.27L54.64,40.9A6.46,6.46,0,0,0,50,39H40.71V37h3.5a1.5,1.5,0,0,0,0-3h-10a1.5,1.5,0,0,0,0,3h3.5v2h-9l-8.26-3.44a4,4,0,0,0-5.54,3.69v6.58a4,4,0,0,0,2.46,3.69l9.54,4v6a6.51,6.51,0,0,0,6.5,6.5H53.69a6.49,6.49,0,0,0,5-2.29l17.91-21.1ZM18.49,46.76a1,1,0,0,1-.62-0.92V39.25a1,1,0,0,1,.45-0.83,1,1,0,0,1,.55-0.17,1,1,0,0,1,.38.08l7.62,3.17v8.75Zm37.87,15A3.49,3.49,0,0,1,53.69,63H33.37a3.5,3.5,0,0,1-3.5-3.5V42H50a3.48,3.48,0,0,1,2.48,1l1.59,1.59a4,4,0,0,0,3.6,1.1L72.45,42.8Z"/><path d="M82.64,57.13L80.2,50.24l-2.44,6.89A2.5,2.5,0,1,0,82.64,57.13Z"/><text x="0" y="115" fill="#000000" font-size="5px" font-weight="bold" font-family="'Helvetica Neue', Helvetica, Arial-Unicode, Arial, Sans-serif">Created by I Create Stuff</text><text x="0" y="120" fill="#000000" font-size="5px" font-weight="bold" font-family="'Helvetica Neue', Helvetica, Arial-Unicode, Arial, Sans-serif">from the Noun Project</text></svg>