<svg xmlns="http://www.w3.org/2000/svg" width="2500" height="2500" viewBox="0 0 192.756 192.756">
	<g fill-rule="evenodd" clip-rule="evenodd">
		<path fill="#fff" d="M0 0h192.756v192.756H0V0z" />
		<path
			d="M161.238 86.653c2.758.153 4.748 2.144 5.055 4.748.152 1.378.152 3.523.152 4.9 0 1.686 0 3.064-.152 4.441-.459 3.217-2.756 5.055-5.055 5.055h-3.981c-2.145 0-4.596-1.838-5.055-5.055-.154-1.377-.154-2.756-.154-4.287 0-1.532 0-3.676.154-5.055.307-2.604 2.449-4.595 5.207-4.748.613-.153 1.072-.153 1.838-.153l1.991.154zm-1.531-8.883c2.91 0 5.668.153 7.965.459 6.432.766 11.639 5.82 12.711 12.1.154 1.072.459 3.522.459 5.972 0 2.604-.305 5.055-.459 5.973-1.072 6.434-6.279 11.334-12.711 12.254-2.297.152-5.055.459-7.965.459h-.918c-3.064 0-5.668-.307-8.117-.459-6.434-.92-11.486-5.82-12.559-12.254-.154-.918-.461-3.369-.461-5.973 0-2.45.307-4.9.461-5.972 1.072-6.28 6.125-11.334 12.559-12.1 2.449-.306 5.053-.459 7.963-.459h1.072zM104.418 96.301c0-1.991.154-3.981.613-5.972 1.072-6.28 6.127-11.334 12.559-12.1 2.297-.306 5.055-.459 7.965-.459 3.215 0 6.125.153 8.576.459.918.153 1.531.919 1.531 1.838v5.513c0 1.072-.766 1.838-1.686 1.838 0 0-2.91-.153-4.441-.153-1.836 0-3.369 0-5.053.153-2.758.153-4.748 2.144-5.055 4.748-.154 1.378-.307 2.757-.307 4.134v.154c0 1.379.152 2.756.307 4.135.307 2.604 2.145 4.594 5.055 4.9 1.531.154 3.369.307 5.053.307 1.531 0 4.441-.152 4.441-.152.92 0 1.686.766 1.686 1.838v5.514c0 .918-.613 1.684-1.531 1.838-2.451 0-5.361.152-8.576.152-2.91 0-5.668-.307-7.965-.459-6.432-.92-11.486-5.82-12.559-12.254-.459-1.836-.613-3.828-.613-5.818v-.154zM100.283 105.338c1.072 0 1.838.918 1.838 1.838v5.514c0 1.072-.766 1.838-1.838 1.838H78.382a7.19 7.19 0 0 1-7.198-7.199V85.581a7.19 7.19 0 0 1 7.198-7.198h21.901c1.072 0 1.838.766 1.838 1.685v5.36c0 1.072-.766 1.838-1.838 1.838H86.806c-1.072 0-1.838.613-1.838 1.685v3.369l11.486-.153c.918 0 1.838.918 1.838 1.837V98.6c0 1.07-.92 1.838-1.838 1.838H84.968v3.062c0 1.072.766 1.838 1.838 1.838h13.477zM44.536 114.527c-3.216 0-5.974-2.145-6.893-5.055l-7.504-28.946v-.459c0-.919.766-1.685 1.838-1.685h11.18c.919 0 1.685.612 1.838 1.378l5.82 24.199c0 .307.306.613.766.613.306 0 .612-.307.612-.613l5.973-24.199c.153-.766.919-1.378 1.685-1.378h6.279c1.072 0 1.838.766 1.838 1.685v.459l-7.198 28.333c-.766 3.217-3.37 5.668-7.045 5.668h-9.189zM13.751 78.382h10.874c1.072 0 1.838.766 1.838 1.685v32.622c0 1.072-.766 1.838-1.838 1.838H13.751c-.919 0-1.838-.766-1.838-1.838V80.067c.001-.919.92-1.685 1.838-1.685z"
			fill="#223d7d" />
	</g>
</svg>
