<svg xmlns="http://www.w3.org/2000/svg" width="2500" height="1388" viewBox="17.406 9.656 849.719 471.625">
	<path fill="#231F20"
		  d="M442.25 9.656c-234.638 0-424.844 190.226-424.844 424.875 0 15.803.884 31.404 2.562 46.75h47.719a380.616 380.616 0 0 1-2.875-46.75c0-208.475 168.976-377.469 377.438-377.469 208.463 0 377.469 168.994 377.469 377.469 0 15.827-.98 31.438-2.875 46.75h47.719a430.008 430.008 0 0 0 2.562-46.75C867.125 199.882 676.9 9.656 442.25 9.656zM96.625 349.031v132.25h69.938v-48.594l38.062 38.062 38.094-38.062v48.594h69.906v-132.25h-64.781l-43.219 43.188-43.188-43.188H96.625zm309.5 0l-86.062 132.25h72.688l9.312-14.438h80.656l9.344 14.438h72.719l-86.094-132.25h-72.563zm165.594 0v132.25h69.938v-56.5l76.312 56.5h68.75v-132.25h-69.938v57l-76.812-57h-68.25zm-129.313 55.157l16.188 25.031h-32.406l16.218-25.031z" />
	<path fill="#FFF"
		  d="M100 352.375l6 6.031v113.5h51.188l6 6v-53.344l-6-14.469 47.438 47.438 47.438-47.438v61.812h51.219l6 6v-125.53h-60.062l2.5 6.031-47.094 47.062v-8.5l-44.594-44.594H100zm307.938 0l3.25 6.031-73.875 113.5h50.344l9.312-14.406h90.875l9.312 14.406H547.5l11.062 6-81.688-125.531h-68.936zm167.156 0l6 6.031v113.5h51.188l6 6v-59.812l-6-11.906 88.781 65.719h56.281l6 6V352.375h-63.188l6 6.031v66.219l-6-11.906-81.312-60.344h-63.75zm-132.688 34.594l33.406 51.625-11.031-6h-44.75L442.406 398v-11.031z" />
	<path fill="#ACAAAA" d="M442.409 386.963v11.032l-22.384 34.591-11.032 6.007 33.416-51.63" />
	<linearGradient id="a" gradientUnits="userSpaceOnUse" x1="350.056" y1="251.82" x2="346.131" y2="251.634"
					gradientTransform="rotate(180 16399.033 11821.424) scale(92.8364)">
		<stop offset="0" stop-color="#fff" />
		<stop offset="1" stop-color="#242322" />
	</linearGradient>
	<path fill="url(#a)"
		  d="M827.299 471.915a389.618 389.618 0 0 0 1.786-37.398c0-213.643-173.176-386.818-386.819-386.818-213.63 0-386.818 173.175-386.818 386.818 0 12.614.611 25.084 1.787 37.398l6.667 5.995a384.08 384.08 0 0 1-2.446-43.394c0-210.32 170.49-380.822 380.811-380.822 210.334 0 380.824 170.502 380.824 380.822a383.86 383.86 0 0 1-2.447 43.394l6.655-5.995" />
	<path fill="#231F20"
		  d="M28.438 471.906l-5.438 6h40.906l-6.656-6H28.438zm798.874 0l-6.656 6h40.875l-5.438-6h-28.781z" />
	<linearGradient id="b" gradientUnits="userSpaceOnUse" x1="358.246" y1="260.595" x2="353.135" y2="263.642"
					gradientTransform="scale(100.5382) rotate(-15 -799.858 1469.133)">
		<stop offset="0" stop-color="#fff" />
		<stop offset=".672" stop-color="#231f20" />
		<stop offset=".953" stop-color="#2d2b2c" />
		<stop offset="1" stop-color="#383738" />
	</linearGradient>
	<path fill="url(#b)"
		  d="M861.542 477.91a421.588 421.588 0 0 0 2.22-43.394c0-232.791-188.704-421.494-421.496-421.494-232.779 0-421.482 188.704-421.482 421.494 0 14.653.744 29.124 2.207 43.394l5.443-5.995a424.026 424.026 0 0 1-1.655-37.398c0-229.471 186.018-415.486 415.487-415.486 229.471 0 415.5 186.016 415.5 415.486a419.06 419.06 0 0 1-1.667 37.398l5.443 5.995" />
	<linearGradient id="c" gradientUnits="userSpaceOnUse" x1="4767.735" y1="-3206.578" x2="1637.915" y2="-3206.578"
					gradientTransform="rotate(90 98.13 -117.905) scale(.1441)">
		<stop offset="0" stop-color="#7b7979" />
		<stop offset="1" stop-color="#eae9ea" />
	</linearGradient>
	<path fill="url(#c)"
		  d="M442.266 19.03c-229.469 0-415.487 186.016-415.487 415.486 0 12.603.563 25.072 1.655 37.398h28.801a393.543 393.543 0 0 1-1.787-37.398c0-213.643 173.188-386.818 386.818-386.818 213.644 0 386.819 173.175 386.819 386.818 0 12.614-.6 25.084-1.786 37.398h28.8a419.078 419.078 0 0 0 1.667-37.398c0-229.47-186.03-415.486-415.5-415.486" />
	<linearGradient id="d" gradientUnits="userSpaceOnUse" x1="334.249" y1="243.84" x2="332.695" y2="252.576"
					gradientTransform="rotate(-130 2991.94 5338.243) scale(25.6541)">
		<stop offset="0" stop-color="#7b7979" />
		<stop offset="1" stop-color="#eae9ea" />
	</linearGradient>
	<path fill="url(#d)"
		  d="M157.557 358.391h-51.57v113.524h51.211V410.08l47.433 47.447 47.446-47.447v61.835h51.211V358.391h-51.583l-47.074 47.074-47.074-47.074" />
	<linearGradient id="e" gradientUnits="userSpaceOnUse" x1="314.916" y1="271.981" x2="321.221" y2="273.67"
					gradientTransform="rotate(-105 1325.933 4532.672) scale(17.3919)">
		<stop offset="0" stop-color="#acabab" />
		<stop offset="1" stop-color="#eae9ea" />
	</linearGradient>
	<path fill="url(#e)"
		  d="M475.826 438.593h-66.833l33.417-51.63 33.416 51.63zm-2.206-80.202h-62.433l-73.873 113.524h50.348l9.316-14.424h90.851l9.316 14.424h50.358L473.62 358.391" />
	<linearGradient id="f" gradientUnits="userSpaceOnUse" x1="367.147" y1="289.518" x2="363.237" y2="282.152"
					gradientTransform="scale(27.1928) rotate(-32 -276.708 743.788)">
		<stop offset="0" stop-color="#7b7979" />
		<stop offset="1" stop-color="#eae9ea" />
	</linearGradient>
	<path fill="url(#f)"
		  d="M636.856 358.391h-55.778v113.524h51.198v-65.719l88.776 65.719h56.306V358.391h-51.21v66.246l-89.292-66.246" />
</svg>
