<svg xmlns="http://www.w3.org/2000/svg" width="2500" height="2500" viewBox="0 0 192.756 192.756">
	<path fill-rule="evenodd" clip-rule="evenodd" fill="#fff" d="M0 0h192.756v192.756H0V0z" />
	<path
		d="M96.724 48.62c7.603 0 15.155-.921 22.452-2.765l.922-.23.691.64c5.221 4.839 8.807 11.085 10.393 18.074l.205.921-.666.691c-10.547 10.88-18.277 24.321-22.35 38.81l-.256.922-.922.281a35.573 35.573 0 0 1-10.47 1.562c-3.533 0-7.066-.537-10.496-1.613l-.896-.281-.256-.896c-4.096-14.464-11.828-27.878-22.401-38.785l-.666-.691.205-.921c1.587-6.964 5.223-13.235 10.497-18.125l.691-.64.921.23c7.476 1.869 15.003 2.816 22.402 2.816z"
		fill-rule="evenodd" clip-rule="evenodd" fill="#123164" />
	<path
		d="M66.208 72.173c0-8.167 3.175-15.821 8.935-21.582 5.761-5.76 13.415-8.935 21.556-8.935 8.167 0 15.822 3.175 21.582 8.935 5.76 5.761 8.936 13.415 8.936 21.582 0 16.794-13.697 30.491-30.517 30.491-8.141 0-15.795-3.176-21.556-8.936-5.762-5.76-8.936-13.414-8.936-21.555z"
		fill-rule="evenodd" clip-rule="evenodd" fill="#123164" />
	<path
		d="M74.165 48.558a32.938 32.938 0 0 0-5.75 7.312 32.25 32.25 0 0 0-3.429 8.562 95.187 95.187 0 0 1 13.683 18.227 93.28 93.28 0 0 1 8.853 20.822c1.404.41 2.853.736 4.343.965a31.86 31.86 0 0 0 4.858.375c1.685 0 3.327-.123 4.927-.361a32.193 32.193 0 0 0 4.248-.928 94.043 94.043 0 0 1 8.865-20.888 94.712 94.712 0 0 1 13.646-18.211 32.624 32.624 0 0 0-3.412-8.565 32.517 32.517 0 0 0-5.666-7.258 95.011 95.011 0 0 1-10.971 2.023c-3.818.474-7.703.72-11.638.72-3.978 0-7.897-.267-11.759-.767a97.626 97.626 0 0 1-10.798-2.028zm-7.418 6.345a34.84 34.84 0 0 1 6.484-8.115l.386-.357.505.127a95.82 95.82 0 0 0 11.084 2.119c3.748.485 7.585.744 11.518.744 3.858 0 7.665-.241 11.403-.706a93.058 93.058 0 0 0 11.25-2.106l.506-.128.385.358a34.453 34.453 0 0 1 10.138 17.673l.115.508-.359.372a92.827 92.827 0 0 0-13.723 18.218 91.998 91.998 0 0 0-8.828 20.953l-.143.506-.504.154a33.967 33.967 0 0 1-5.035 1.146 35.18 35.18 0 0 1-5.206.385c-1.748 0-3.466-.139-5.145-.398a35.685 35.685 0 0 1-5.123-1.184l-.503-.156-.142-.504a91.366 91.366 0 0 0-8.818-20.887 93.217 93.217 0 0 0-13.759-18.233l-.359-.372.114-.508a34.15 34.15 0 0 1 3.759-9.609z"
		fill="#dbdcdd" />
	<path
		d="M66.982 72.173c0-8.211 3.327-15.645 8.703-21.026 5.381-5.386 12.812-8.716 21.013-8.716a29.65 29.65 0 0 1 21.033 8.709c5.381 5.382 8.709 12.817 8.709 21.033 0 8.202-3.33 15.632-8.715 21.013-5.381 5.376-12.814 8.703-21.027 8.703-8.203 0-15.632-3.328-21.01-8.706-5.378-5.378-8.706-12.808-8.706-21.01zm10.07-19.667a27.736 27.736 0 0 0-8.137 19.667c0 7.669 3.111 14.615 8.139 19.644s11.975 8.138 19.644 8.138c7.683 0 14.636-3.109 19.667-8.136s8.141-11.973 8.141-19.646a27.713 27.713 0 0 0-8.143-19.666 27.716 27.716 0 0 0-19.666-8.143 27.682 27.682 0 0 0-19.645 8.142z"
		fill="#dbdcdd" />
	<path
		d="M86.598 70.701c.958-.186 1.915-.123 2.763.187a4.26 4.26 0 0 1 2.078 1.602l.468 1.099-1.095-.402c-1.628-.879-3.267-.392-4.876.086-2.048.607-4.055 1.204-6.149-.566-.426-.301-.776-.757-1.055-1.221a9.508 9.508 0 0 1-.604-1.228l-.675-1.619 1.407 1.048c.008.006 2.916 2.242 7.709 1.02l.029-.006z"
		fill="#dbdcdd" />
	<path
		d="M96.058 62.701c-2.048 0-3.942.384-4.685 1.434 0 0-.819.768-.973 1.434 0 0-5.248-3.559-6.886 4.173 0 0 3.174-2.278 4.992-.793 0 0 .921 1.306 2.611 1.741 2.304.614 2.048 1.075 2.15 1.562 0 0-.307.717-2.304 1.971-1.971 1.28-3.098.666-4.915.077 0 0-.128 2.688 3.481 2.637 0 0 .589.051 1.306-.026 0 0-4.327 1.818-2.688 6.272 0 0 1.485-1.792 3.124-2.202 0 0-4.686 5.325 1.51 10.522 0 0 0-4.762 1.766-6.221 0 0 .973 3.789.666 5.862 0 0-.077 1.817-.64 2.765 0 0 7.347-.153 5.249-8.986 0 0 2.943.999 2.328 5.018 0 0 6.605-3.303 2.254-10.087 0 0 2.482 0 3.25 2.97 0 0 3.533-5.453-2.303-10.65 0 0 2.201-.538 3.404 1.28 0 0-.154-4.147-4.07-6.169-.896-.486.512-1.92.154-2.714l-8.781-1.87z"
		fill-rule="evenodd" clip-rule="evenodd" fill="#b01842" />
	<path d="M100.615 65.875s2.381-3.021 5.939-2.611c0 0-.998 4.455-4.916 5.274l-1.023-2.663z" fill-rule="evenodd"
		  clip-rule="evenodd" fill="#b01842" />
	<path
		d="M101.768 66.311s1.355-1.332 2.994-1.613c0 0-.818 1.92-2.688 2.304l-.306-.691zM94.752 70.611c-.435-.307-.999-.435-1.459-.204 1.408.051 1.639 2.048 3.174 1.638.282-.077.539-.205.769-.359-.999.41-1.818-.512-2.484-1.075zM102.764 76.326c-.178-.826-.459-1.45-.854-1.939-.508-.63-1.205-1.038-2.115-1.368.203.882.445 1.762.451 2.673.006.85-.178 1.582-.553 2.19a3.353 3.353 0 0 1-.949.983c.316-.842.338-1.56.236-2.131-.189-1.065-.799-1.624-1.488-2.359-.029.656-.02 1.328-.186 1.968-.209.814-.615 1.308-1.029 1.607.298-.919.083-1.783-.143-2.218l-.871.461c.014.042.403.827-.036 1.724-.292.598-.883 1.064-1.347 1.527 1.761-.105 3.358-.291 4.179-2.259.08 1.318-.725 2.37-1.439 3.385 1.574-.314 2.896-.634 3.865-2.15.605-.937.824-2.076.689-3.429.91 1.221.797 2.809.797 4.248 1.193-1.449 2.084-2.813 2.07-4.847-.01-1.352-.498-2.923-2.045-4.472l-.334 1.024c1.748 2.217 1.543 4.172 1.102 5.382z"
		fill-rule="evenodd" clip-rule="evenodd" fill="#dbdcdd" />
	<path
		d="M88.825 71.725a4.307 4.307 0 0 0-2.024-.081c-3.188.811-5.646.199-7.084-.406.188.277.403.528.641.691l.023.016.014.013c1.704 1.448 3.468.924 5.27.389 1.035-.307 2.081-.618 3.16-.622z"
		fill="#b01842" />
	<path
		d="M97.723 60.038c.613 1.024 1.611 2.381 2.867 2.381 1.279 0 2.047-.563 2.662-1.587-.359.051-.461.051-.818-.051-.795-.282-1.178-1.075-1.025-2.1.256-.896 1.152-1.408 2.023-1.152.307.102.562.256.742.461-.205-.384-.281-.871-.154-1.306.256-.896 1.307-1.613 2.229-1.459l-3.586 8.833H90.835l-3.609-8.423c.896-.154 1.945.563 2.201 1.459.128.435.052.768-.153 1.126.179-.205.461-.589.742-.691.871-.256 1.869.512 2.125 1.382.153 1.024-.179 1.664-.973 1.946-.358.077-.666.025-1.024-.025.615 1.024 1.536 1.587 2.816 1.587 1.254 0 2.176-1.357 2.79-2.381a1.626 1.626 0 0 1-.973.307c-.921 0-1.639-.742-1.639-1.664 0-.921.717-1.689 1.639-1.689.282 0 .589.077.819.23a1.728 1.728 0 0 1-.512-1.203c0-.922.743-1.664 1.639-1.664.921 0 1.665.742 1.665 1.664 0 .46-.23.921-.539 1.229.256-.153.539-.256.846-.256.922 0 1.639.768 1.639 1.689 0 .922-.717 1.664-1.639 1.664-.359 0-.972-.307-.972-.307z"
		fill-rule="evenodd" clip-rule="evenodd" fill="#d8b146" />
	<path
		d="M93.816 66.258a3.256 3.256 0 0 0-.524 0 .873.873 0 0 1-.895.846c-.439 0-.803-.283-.897-.686a2.869 2.869 0 0 1-.488-.096c.113.527.409 1.153 1.164 1.295.003 0 1.067.226 1.521-1.077l.002-.005c.037-.102.076-.194.117-.277zm-1.704-2.197a1.716 1.716 0 0 0-.345.353l-.026.038-.034.032c-.001.001-.447.421-.694.852.248.132.761.283 1.654.06l.037-.007c1.177-.199 1.913.064 2.265.255.5.153.922.631.924.634l-.696.63c-.001-.001-.455-.512-.62-.053-.725 2.071-2.568 1.684-2.573 1.683-1.644-.31-1.943-1.885-1.991-2.642-.694-.41-4.193-2.176-5.742 2.839 1.19-.605 3.156-1.29 4.539-.161l.055.045.032.043c.002.003.824 1.167 2.339 1.558l.004.001c2.339.624 2.409 1.207 2.48 1.793.006.052.013.105.02.136l.031.148-.06.139c-.001.002-.367.856-2.491 2.19-1.869 1.211-3.029.899-4.556.385.244.633.931 1.465 2.859 1.438h.034c.001 0 .569.048 1.227-.022l3.173-.34-2.932 1.263c-.01.004-3.401 1.43-2.652 4.889.621-.599 1.658-1.45 2.78-1.73l1.466-.366-.983 1.148c-.012.014-3.968 4.51.708 9.159.114-1.552.512-4.4 1.896-5.543l.584-.482.19.733c.003.011.986 3.842.682 6.015-.007.136-.068 1.208-.358 2.153 1.717-.332 5.557-1.803 4.014-8.294l-.205-.865.838.299c.008.003 2.811.956 2.732 4.547 1.512-1.098 4.406-4.029 1.281-8.9l-.484-.757.896.013c.006 0 2.184.001 3.305 2.233.666-1.709 1.396-5.436-2.684-9.069l-.693-.616.902-.215c.006-.001 1.469-.358 2.781.401-.371-1.3-1.291-3.222-3.557-4.392l-.01-.005a.275.275 0 0 1-.029-.017 5.996 5.996 0 0 1-2.689 1.32l-.195-.943c2.18-.456 4.014-3.064 4.379-4.357-2.969-.018-4.924 2.461-4.93 2.469l-.75-.604c.006-.009 2.543-3.229 6.369-2.789l.539.062-.125.527c-.002.008-.441 1.974-1.881 3.609 3.938 2.194 4.096 6.435 4.096 6.448l.09 1.76-.975-1.471c-.52-.785-1.262-1.048-1.865-1.119 4.979 5.224 1.584 10.463 1.574 10.479l-.594.943-.279-1.079c-.367-1.417-1.156-2.063-1.803-2.358 3.42 6.566-2.998 9.775-3.018 9.785l-.838.431.143-.933c.336-2.194-.473-3.376-1.162-3.969 1.393 8.336-5.902 8.491-5.923 8.492l-.881.03.45-.758c.501-.842.572-2.532.572-2.537l.001-.019.005-.034c.201-1.356-.179-3.508-.439-4.735-1.031 1.763-1.033 5.154-1.033 5.166l-.007 1.026-.786-.658c-4.504-3.778-3.578-7.631-2.544-9.688a8.647 8.647 0 0 0-1.412 1.31l-.535.634-.287-.779c-1.103-2.998.253-4.905 1.469-5.933-3.741-.133-3.599-3.127-3.599-3.136l.025-.636.605.196c.237.077.404.133.567.189 1.38.468 2.375.805 3.939-.211l.005-.004c1.431-.898 1.911-1.446 2.059-1.655l-.004-.029c-.031-.261-.063-.52-1.763-.973v.001c-1.657-.426-2.643-1.611-2.844-1.873-1.542-1.169-4.354.846-4.363.852l-1.003.706.254-1.2c.936-4.416 2.978-5.437 4.714-5.406.848.015 1.667.28 2.424.644a5.55 5.55 0 0 1 .589-.819h1.346v-.003z"
		fill="#dbdcdd" />
	<path
		d="M173.346 116.232h-15.488l-8.115 20.045.025-20.072H139.35v26.934h18.227l1.639-4.098h13.006l1.867 4.098h10.164l-10.907-26.907zm-46.209 14.463l-11.008-14.49H102.92v19.994l-8.295-19.967H79.341l-6.4 16h-9.549c-.793 3.354-2.611 4.838-5.914 4.838-3.789 0-6.349-2.816-6.349-7.014 0-5.453 2.151-8.27 6.272-8.27 3.38 0 5.3 1.51 5.888 4.66h10.83l.025-.41c0-6.504-6.579-10.777-16.589-10.777-10.701 0-15.77 4.172-16.641 13.746-1.536-1.664-4.044-2.969-5.939-3.123l-4.045-.357-5.965-.104c-2.56-.051-4.02-.947-4.02-2.457 0-1.715 1.485-2.662 4.199-2.662 3.123 0 4.377 1.15 4.377 3.992h11.392v-.357c0-5.555-5.375-8.627-15.13-8.627-10.829 0-16.128 2.969-16.128 8.984 0 5.146 3.892 7.912 11.341 8.115l4.429.104c3.251.102 4.71.896 4.71 2.611 0 1.459-2.048 2.842-4.173 2.842-3.712 0-5.658-1.279-5.658-3.688h-11.8v.256c0 5.838 5.888 9.037 16.589 9.037 10.317 0 15.386-2.252 17.024-7.604 3.303 5.633 7.604 7.682 15.975 7.682 5.325 0 8.09-.742 11.546-3.252l-1.101 2.74h10.061l1.844-4.199h13.21l1.766 4.146h17.254v-15.949l12.264 16.002h12.211v-26.906h-10.01v14.464zm34.869 1.588l3.559-8.908 4.045 8.857-7.604.051zm-78.799 0l3.584-9.191 4.096 9.191h-7.68z"
		fill-rule="evenodd" clip-rule="evenodd" fill="#123164" />
</svg>
