<svg xmlns="http://www.w3.org/2000/svg" viewBox="0 0 128 128"><title>air_pressure</title><g id="air_pressure"><path d="M64.07,21.89A42.11,42.11,0,1,1,22,64,42.22,42.22,0,0,1,64.07,21.89m0-7.06A49.17,49.17,0,1,0,113.24,64,49.2,49.2,0,0,0,64.07,14.83Z"/><path d="M116.21,102.29l-5.94-4.1a56.66,56.66,0,0,0-1.13-66l5.8-4.24a63.29,63.29,0,0,1,12.57,38A61.77,61.77,0,0,1,116.21,102.29Z"/><path d="M11.93,102.29A63.51,63.51,0,0,1,13.06,28l5.79,4.24A55.75,55.75,0,0,0,7.69,66a56.77,56.77,0,0,0,10,32.21Z"/></g></svg>