<svg xmlns="http://www.w3.org/2000/svg" viewBox="0 0 128 128">
	<title>air_pressure</title>
	<g id="air_pressure">
		<g>
			<path
				d="M64.1,21.9A42.1,42.1,0,1,1,22,64,42.2,42.2,0,0,1,64.1,21.9m0-7.1A49.2,49.2,0,1,0,113.2,64,49.2,49.2,0,0,0,64.1,14.8Z" />
			<path
				d="M116.2,102.3l-5.9-4.1a56.7,56.7,0,0,0-1.2-66l5.8-4.2a63.1,63.1,0,0,1,12.6,38A61.2,61.2,0,0,1,116.2,102.3Z" />
			<path d="M11.9,102.3A63.5,63.5,0,0,1,13.1,28l5.8,4.2A55.6,55.6,0,0,0,7.7,66a56.8,56.8,0,0,0,10,32.2Z" />
		</g>
	</g>
</svg>
