<svg xmlns="http://www.w3.org/2000/svg" viewBox="0 0 127 128">
	<title>battery</title>
	<g id="battery">
		<g>
			<path
				d="M2.8,112.3H124.2a2.8,2.8,0,0,0,2.8-2.8v-78a2.9,2.9,0,0,0-2.8-2.9h-5.9V18.5c0-1.6-2.8-2.8-2.8-2.8H89.4s-2.8,1.2-2.8,2.8V28.6H40.4V18.5c0-1.6-2.8-2.8-2.8-2.8H11.5s-2.9,1.2-2.9,2.8V28.6H2.8A2.8,2.8,0,0,0,0,31.5v78A2.7,2.7,0,0,0,2.8,112.3ZM92.3,21.4h20.3v7.2H92.3Zm-77.9,0H34.6v7.2H14.4Zm-8.6,13H122.7v72.2H5.8ZM22.5,19" />
			<path
				d="M32.5,68.7H15.9a3.1,3.1,0,0,0-2.8,1.9,3,3,0,0,0,2.8,3.9H32.4a2.8,2.8,0,0,0,2.8-1.9A2.9,2.9,0,0,0,32.5,68.7Z" />
			<path
				d="M110.7,68.7h-5.4V63.4a2.9,2.9,0,1,0-5.7-.1v5.4H94.2a3.1,3.1,0,0,0-2.8,1.9,2.9,2.9,0,0,0,2.7,3.9h5.5v5.4a2.9,2.9,0,0,0,1.9,2.8,2.9,2.9,0,0,0,3.8-2.8V74.5h5.5a2.9,2.9,0,0,0,2.7-3.9A3.1,3.1,0,0,0,110.7,68.7Z" />
		</g>
	</g>
</svg>
