<svg xmlns="http://www.w3.org/2000/svg" viewBox="0 0 128 128"><title>battery</title><g id="battery"><path d="M3.32,112.35H124.68a2.82,2.82,0,0,0,2.82-2.82V31.46a2.82,2.82,0,0,0-2.82-2.82h-5.84V18.47c0-1.55-2.82-2.82-2.82-2.82H89.91s-2.82,1.27-2.82,2.82V28.64H40.91V18.47c0-1.55-2.82-2.82-2.82-2.82H12s-2.82,1.27-2.82,2.82V28.64H3.32A2.82,2.82,0,0,0,.5,31.46v78.07A2.82,2.82,0,0,0,3.32,112.35ZM92.86,21.43h20.21v7.21H92.86Zm-77.93,0H35.14v7.21H14.93Zm-8.66,13h116.9v72.16H6.27ZM23,19"/><path d="M33,68.73H16.44a2.89,2.89,0,1,0-.07,5.78H32.94A2.89,2.89,0,1,0,33,68.73Z"/><path d="M111.22,68.73h-5.37V63.37a2.89,2.89,0,1,0-5.77-.07v5.43H94.72a2.89,2.89,0,1,0-.08,5.78h5.44v5.36a2.89,2.89,0,1,0,5.77.07V74.51h5.44a2.89,2.89,0,1,0-.07-5.78Z"/></g></svg>