<svg xmlns="http://www.w3.org/2000/svg" viewBox="0 0 126.97 128">
	<title>battery</title>
	<g id="battery">
		<path
			d="M2.8,112.35H124.16a2.82,2.82,0,0,0,2.82-2.82V31.46a2.82,2.82,0,0,0-2.82-2.82h-5.84V18.47c0-1.55-2.82-2.82-2.82-2.82H89.39s-2.82,1.27-2.82,2.82V28.64H40.39V18.47c0-1.55-2.82-2.82-2.82-2.82H11.46s-2.82,1.27-2.82,2.82V28.64H2.8A2.82,2.82,0,0,0,0,31.46v78.07A2.83,2.83,0,0,0,2.8,112.35ZM92.35,21.43h20.2v7.21H92.35Zm-77.93,0h20.2v7.21H14.42Zm-8.66,13H122.65v72.16H5.76ZM22.48,19" />
		<path d="M32.5,68.73H15.92a2.89,2.89,0,1,0-.07,5.78H32.43a2.89,2.89,0,1,0,.07-5.78Z" />
		<path
			d="M110.7,68.73h-5.36V63.37a2.89,2.89,0,1,0-5.78-.07v5.43H94.2a2.89,2.89,0,1,0-.07,5.78h5.43v5.36a2.89,2.89,0,1,0,5.78.07V74.51h5.43a2.89,2.89,0,1,0-.07-5.78Z" />
	</g>
</svg>