<svg xmlns="http://www.w3.org/2000/svg" viewBox="0 0 126.97 128">
	<title>beacons</title>
	<g id="beacons">
		<g id="Export-6" data-name="Export">
			<path d="M116,114.58H13a3,3,0,0,1,0-6H116a3,3,0,0,1,0,6Z" />
			<path
				d="M114.51,103.21H13a3,3,0,0,1-3-3,53.78,53.78,0,0,1,107.56,0A3,3,0,0,1,114.51,103.21ZM16,97.21h95.38a47.78,47.78,0,0,0-95.38,0Z" />
			<path d="M19.29,62.24a3,3,0,0,1-2.12-.88L-.14,44.05A3,3,0,1,1,4.1,39.81L21.42,57.12a3,3,0,0,1-2.13,5.12Z" />
			<path d="M40.74,47.47A3,3,0,0,1,38,45.69L27.89,23.1a3,3,0,1,1,5.47-2.45L43.47,43.24a3,3,0,0,1-2.73,4.23Z" />
			<path
				d="M107.67,62.24a3,3,0,0,1-2.12-5.12l17.31-17.31a3,3,0,0,1,4.24,4.24L109.79,61.36A3,3,0,0,1,107.67,62.24Z" />
			<path
				d="M86.23,47.47A2.94,2.94,0,0,1,85,47.21a3,3,0,0,1-1.52-4L93.6,20.65a3,3,0,0,1,5.48,2.45L89,45.69A3,3,0,0,1,86.23,47.47Z" />
			<path d="M63.73,43.9a3,3,0,0,1-3-3V16.42a3,3,0,0,1,6,0V40.9A3,3,0,0,1,63.73,43.9Z" />
		</g>
	</g>
</svg>