<svg xmlns="http://www.w3.org/2000/svg" viewBox="0 0 128 128"><title>beacons</title><g id="beacons"><g id="Export-6" data-name="Export"><path d="M116.5,114.58H13.5a3,3,0,0,1,0-6h103a3,3,0,0,1,0,6Z"/><path d="M115,103.21H13.46a3,3,0,0,1-3-3,53.78,53.78,0,0,1,107.56,0A3,3,0,0,1,115,103.21Zm-98.46-6h95.37a47.78,47.78,0,0,0-95.37,0Z"/><path d="M19.81,62.24a3,3,0,0,1-2.12-.88L.38,44.05a3,3,0,0,1,4.24-4.24L21.93,57.12a3,3,0,0,1,0,4.24A3,3,0,0,1,19.81,62.24Z"/><path d="M41.25,47.47a3,3,0,0,1-2.74-1.78L28.4,23.1a3,3,0,0,1,5.48-2.45L44,43.24a3,3,0,0,1-2.74,4.23Z"/><path d="M108.19,62.24a3,3,0,0,1-2.12-.88,3,3,0,0,1,0-4.24l17.31-17.31a3,3,0,0,1,4.24,4.24L110.31,61.36A3,3,0,0,1,108.19,62.24Z"/><path d="M86.75,47.47A3,3,0,0,1,84,43.24L94.12,20.65A3,3,0,0,1,99.6,23.1L89.49,45.69A3,3,0,0,1,86.75,47.47Z"/><path d="M64.24,43.9a3,3,0,0,1-3-3V16.42a3,3,0,0,1,6,0V40.9A3,3,0,0,1,64.24,43.9Z"/></g></g></svg>