<svg xmlns="http://www.w3.org/2000/svg" viewBox="0 0 127 128">
	<title>beacons</title>
	<g id="beacons">
		<g id="Export">
			<path d="M116,114.6H13a3,3,0,0,1-3-3,2.9,2.9,0,0,1,3-3H116a3,3,0,0,1,3,3A3.1,3.1,0,0,1,116,114.6Z" />
			<path
				d="M114.5,103.2H12.9a3,3,0,0,1-3-3,53.8,53.8,0,1,1,107.6,0A2.9,2.9,0,0,1,114.5,103.2ZM16,97.2h95.4a47.8,47.8,0,0,0-95.4,0Z" />
			<path
				d="M19.3,62.2a3.2,3.2,0,0,1-2.1-.8L-.1,44.1a3,3,0,0,1,0-4.3,2.9,2.9,0,0,1,4.2,0L21.4,57.1a3,3,0,0,1,0,4.3A3.2,3.2,0,0,1,19.3,62.2Z" />
			<path
				d="M40.7,47.5A3,3,0,0,1,38,45.7L27.9,23.1a3,3,0,0,1,1.5-4,3.1,3.1,0,0,1,4,1.6L43.5,43.2a3.1,3.1,0,0,1-2.8,4.3Z" />
			<path
				d="M107.7,62.2a3,3,0,0,1-2.1-5.1l17.3-17.3a2.9,2.9,0,0,1,4.2,0,3,3,0,0,1,0,4.3L109.8,61.4A3.4,3.4,0,0,1,107.7,62.2Z" />
			<path
				d="M86.2,47.5a2.7,2.7,0,0,1-1.2-.3,3,3,0,0,1-1.5-4L93.6,20.7a3.1,3.1,0,0,1,4-1.6,3,3,0,0,1,1.5,4L89,45.7A3.1,3.1,0,0,1,86.2,47.5Z" />
			<path d="M63.7,43.9a3,3,0,0,1-3-3V16.4a3.1,3.1,0,0,1,3-3,3,3,0,0,1,3,3V40.9A2.9,2.9,0,0,1,63.7,43.9Z" />
		</g>
	</g>
</svg>
