<svg xmlns="http://www.w3.org/2000/svg" viewBox="0 0 127 128">
	<title>beam_high</title>
	<g id="beam_high">
		<g id="Export-5" data-name="Export">
			<g>
				<path
					d="M83.4,101c-13.2,0-21.5-29.6-21.5-37s7.8-37,21.5-37c11.8,0,42.1,17.6,42.1,37S95.2,101,83.4,101Zm0-68c-7.6,0-15.5,23-15.5,31s8.2,31,15.5,31c9.3,0,36.1-15.8,36.1-31S92.7,33,83.4,33Z" />
				<g>
					<path d="M4.4,93.9a3,3,0,0,1-3-3,3.1,3.1,0,0,1,3-3H44.9a3,3,0,1,1,0,6Z" />
					<path d="M5,76.1a2.9,2.9,0,0,1-3-3,3,3,0,0,1,3-3H45.5a3,3,0,0,1,0,6Z" />
					<path d="M5.5,58.3a3.1,3.1,0,0,1-3-3,3,3,0,0,1,3-3H46a3,3,0,0,1,3,3,2.9,2.9,0,0,1-3,3H5.5Z" />
					<path d="M6.1,40.4a2.9,2.9,0,0,1-3-3,3,3,0,0,1,3-3H46.6a3,3,0,0,1,0,6Z" />
				</g>
			</g>
		</g>
	</g>
</svg>
