<svg xmlns="http://www.w3.org/2000/svg" viewBox="0 0 126.97 128">
	<title>beam_low</title>
	<g id="beam_low">
		<g id="Export-4" data-name="Export">
			<path
				d="M82,100.83c-13.18,0-21.51-29.6-21.51-37,0-7.92,7.83-37,21.51-37,11.8,0,42.14,17.59,42.14,37S93.83,100.83,82,100.83Zm0-68c-7.62,0-15.51,23-15.51,31,0,7.55,8.24,31,15.51,31,9.3,0,36.14-15.76,36.14-31S91.33,32.83,82,32.83Z" />
			<path d="M5.8,102.3a3,3,0,0,1-1-5.82L42.94,82.87a3,3,0,0,1,2,5.65L6.81,102.13A2.94,2.94,0,0,1,5.8,102.3Z" />
			<path d="M6,83.3a3,3,0,0,1-1-5.82L43.13,63.87a3,3,0,0,1,2,5.65L7,83.13A2.92,2.92,0,0,1,6,83.3Z" />
			<path d="M6.19,64.3a3,3,0,0,1-1-5.82L43.33,44.87a3,3,0,1,1,2,5.65L7.2,64.13A2.94,2.94,0,0,1,6.19,64.3Z" />
			<path d="M6.39,45.31a3,3,0,0,1-1-5.83L43.52,25.87a3,3,0,1,1,2,5.65L7.4,45.13A3,3,0,0,1,6.39,45.31Z" />
		</g>
	</g>
</svg>