<svg xmlns="http://www.w3.org/2000/svg" viewBox="0 0 128 128"><title>beam_high</title><g id="beam_high"><g id="Export-5" data-name="Export"><path d="M83.9,101c-13.18,0-21.51-29.6-21.51-37,0-7.92,7.83-37,21.51-37C95.71,27,126,44.59,126,64S95.71,101,83.9,101Zm0-68c-7.62,0-15.51,23-15.51,31,0,7.55,8.24,31,15.51,31C93.21,95,120,79.24,120,64S93.21,33,83.9,33Z"/><path d="M5,93.94a3,3,0,1,1,0-6l40.5,0h0a3,3,0,1,1,0,6L5,93.94Z"/><path d="M5.51,76.11a3,3,0,0,1,0-6l40.5,0h0a3,3,0,1,1,0,6l-40.49,0Z"/><path d="M6.07,58.27a3,3,0,0,1,0-6l40.5,0h0a3,3,0,0,1,0,6l-40.49,0Z"/><path d="M6.62,40.44a3,3,0,0,1,0-6l40.5,0h0a3,3,0,0,1,0,6l-40.5,0Z"/></g></g></svg>