<svg xmlns="http://www.w3.org/2000/svg" viewBox="0 0 127 128">
	<title>beam_low</title>
	<g id="beam_low">
		<g id="Export-4" data-name="Export">
			<g>
				<path
					d="M82,100.8c-13.2,0-21.5-29.6-21.5-37s7.8-37,21.5-37c11.8,0,42.2,17.6,42.2,37S93.8,100.8,82,100.8Zm0-68c-7.6,0-15.5,23-15.5,31s8.3,31,15.5,31c9.3,0,36.2-15.7,36.2-31S91.3,32.8,82,32.8Z" />
				<g>
					<path
						d="M5.8,102.3a3,3,0,0,1-2.8-2,2.9,2.9,0,0,1,1.8-3.8L42.9,82.9a3,3,0,0,1,3.9,1.8A3.1,3.1,0,0,1,45,88.5L6.8,102.1Z" />
					<path d="M6,83.3a3,3,0,0,1-2.8-2A2.9,2.9,0,0,1,5,77.5L43.1,63.9a3,3,0,1,1,2,5.6L7,83.1Z" />
					<path d="M6.2,64.3a3,3,0,0,1-2.8-2,2.9,2.9,0,0,1,1.8-3.8L43.3,44.9a3,3,0,1,1,2,5.6L7.2,64.1Z" />
					<path d="M6.4,45.3a3,3,0,0,1-2.8-2,2.9,2.9,0,0,1,1.8-3.8L43.5,25.9a3,3,0,1,1,2,5.6L7.4,45.1Z" />
				</g>
			</g>
		</g>
	</g>
</svg>
