<svg xmlns="http://www.w3.org/2000/svg" viewBox="0 0 127 128">
	<title>beam_low</title>
	<g id="beam_low">
		<g id="Beam_low-2" data-name="Beam low">
			<path
				d="M58.6,62.4A56.6,56.6,0,0,1,70.2,29c3.9-5.2,9.4-7.3,15.7-5.7,11.5,2.9,22,7.9,30.4,16.4,13.6,13.8,13.6,34.6.1,48.5-8.4,8.6-18.9,13.6-30.3,16.5A13.4,13.4,0,0,1,71,98.9C63.5,88,58.8,76.1,58.6,62.4Zm12.7-.2c-.1,10.1,3.2,19.2,8.7,27.4.9,1.4,4.2,2.8,5.4,2.2,7.3-3.6,15.2-6.8,21.2-12,10.3-8.8,10.2-22.8,0-31.7C100.7,43.1,93,40,86,36.2c-3.4-1.8-5.7-.2-7.6,2.8A42.5,42.5,0,0,0,71.3,62.2Z" />
			<path
				d="M5.1,55.5C3.8,54.2.5,52.6.5,50.9S2,44.8,4.1,43.5c4.2-2.5,9.1-3.7,13.8-5.4,6.4-2.4,12.9-4.8,19.4-7,3.8-1.3,8-1.5,9.6,3.2s-1.6,7-5.5,8.5L9.6,54.4C8.6,54.8,7.4,54.9,5.1,55.5Z" />
			<path
				d="M6.4,80.1c-1.3-1.2-4.6-2.9-4.6-4.5s1.5-6.2,3.6-7.4c4.2-2.5,9.1-3.7,13.8-5.4,6.4-2.4,12.9-4.9,19.4-7,3.8-1.4,8-1.5,9.6,3.2s-1.6,7-5.5,8.5L10.9,79.1Z" />
			<path
				d="M6.4,104.8c-1.3-1.2-4.6-2.9-4.6-4.6s1.5-6.1,3.6-7.3c4.2-2.5,9.1-3.7,13.8-5.4,6.4-2.4,12.9-4.9,19.4-7.1,3.8-1.3,8-1.4,9.6,3.2s-1.6,7.1-5.5,8.5L10.9,103.7A32.4,32.4,0,0,1,6.4,104.8Z" />
		</g>
	</g>
</svg>
