<svg xmlns="http://www.w3.org/2000/svg" viewBox="0 0 126.97 128">
	<title>beam_high</title>
	<g id="beam_high">
		<g id="Export-5" data-name="Export">
			<path
				d="M83.39,101C70.2,101,61.87,71.4,61.87,64c0-7.92,7.83-37,21.52-37,11.8,0,42.13,17.59,42.13,37S95.19,101,83.39,101Zm0-68c-7.63,0-15.52,23-15.52,31,0,7.55,8.25,31,15.52,31,9.3,0,36.13-15.76,36.13-31S92.69,33,83.39,33Z" />
			<path d="M4.45,93.94a3,3,0,0,1,0-6l40.5,0h0a3,3,0,0,1,0,6l-40.5,0Z" />
			<path d="M5,76.11a3,3,0,0,1,0-6l40.5,0h0a3,3,0,0,1,0,6L5,76.11Z" />
			<path d="M5.55,58.27a3,3,0,1,1,0-6l40.49,0h0a3,3,0,0,1,0,6l-40.5,0Z" />
			<path d="M6.1,40.44a3,3,0,0,1,0-6l40.49,0h0a3,3,0,0,1,0,6l-40.5,0Z" />
		</g>
	</g>
</svg>