<svg xmlns="http://www.w3.org/2000/svg" viewBox="0 0 128 128"><title>beam_low</title><g id="beam_low"><g id="Export-4" data-name="Export"><path d="M82.55,100.83c-13.18,0-21.52-29.6-21.52-37,0-7.92,7.84-37,21.52-37,11.8,0,42.13,17.59,42.13,37S94.35,100.83,82.55,100.83Zm0-68c-7.63,0-15.52,23-15.52,31,0,7.55,8.25,31,15.52,31,9.3,0,36.13-15.76,36.13-31S91.85,32.83,82.55,32.83Z"/><path d="M6.32,102.3a3,3,0,0,1-1-5.82L43.45,82.87a3,3,0,1,1,2,5.65L7.33,102.13A3,3,0,0,1,6.32,102.3Z"/><path d="M6.51,83.3a3,3,0,0,1-1-5.82L43.65,63.87a3,3,0,1,1,2,5.65L7.52,83.13A2.94,2.94,0,0,1,6.51,83.3Z"/><path d="M6.71,64.3a3,3,0,0,1-1-5.82L43.84,44.87a3,3,0,1,1,2,5.65L7.72,64.13A3,3,0,0,1,6.71,64.3Z"/><path d="M6.91,45.31a3,3,0,0,1-1-5.83L44,25.87a3,3,0,0,1,2,5.65L7.91,45.13A2.94,2.94,0,0,1,6.91,45.31Z"/></g></g></svg>