<svg xmlns="http://www.w3.org/2000/svg" viewBox="0 0 127 128">
	<title>beam_high</title>
	<g id="beam_high">
		<g id="Beam_high-2" data-name="Beam high">
			<path
				d="M126.5,63.1c-.1,14-6.6,23.9-17.4,30.7-6.8,4.2-14.4,7.1-22,10-6,2.4-11.4,0-14.9-5C57.3,77.7,54.4,53.3,70,30.8c4.7-6.8,10.3-9,18.2-6.7,11.9,3.5,22.8,8.9,30.9,18.8A32.1,32.1,0,0,1,126.5,63.1ZM72,62.2a50.2,50.2,0,0,0,8.6,26.9c.9,1.3,3.5,2.7,4.8,2.3C94.5,89,102.8,85,109,77.7s6.9-19.5-.3-27.9S94.3,38.9,85.6,36.3c-1.7-.5-4.8,1-5.9,2.5A38.8,38.8,0,0,0,72,62.2Z" />
			<path
				d="M24.6,40.8H8.2C4.2,40.7.7,39.3.5,35s3.7-6.3,7.7-6.4c11.3-.2,22.6-.1,33.9,0,3.8.1,7.5,1.7,7.4,6.1s-3.7,6.1-7.9,6.1Z" />
			<path
				d="M24.6,69.3H8.2c-4,0-7.5-1.4-7.7-5.7s3.7-6.3,7.7-6.4q17-.3,33.9,0c3.8.1,7.5,1.7,7.4,6.1s-3.7,6.1-7.9,6Z" />
			<path
				d="M24.6,99.2H8.2c-4,0-7.5-1.4-7.7-5.7s3.7-6.4,7.7-6.4q17-.3,33.9,0c3.8,0,7.5,1.7,7.4,6.1s-3.7,6-7.9,6Z" />
		</g>
	</g>
</svg>
