<svg xmlns="http://www.w3.org/2000/svg" viewBox="0 0 127 128">
  <title>blinker_left</title>
  <g id="blinker_left">
    <g id="Layer_40" data-name="Layer 40">
      <path
          d="M40.9,97.5a2.6,2.6,0,0,1-1.9-.7L1,66.3a3,3,0,0,1,0-4.6L39,31.2a2.9,2.9,0,0,1,3.2-.4,3,3,0,0,1,1.7,2.7V48.6H92.8a3.2,3.2,0,0,1,2.8,1.7l11.3,24.9a3.1,3.1,0,0,1-.2,2.8,3,3,0,0,1-2.6,1.4H43.9V94.5a3,3,0,0,1-1.7,2.7A3.1,3.1,0,0,1,40.9,97.5ZM7.7,64,37.9,88.2V76.4a3,3,0,0,1,3-3H99.5L90.9,54.6h-50a3,3,0,0,1-3-3V39.8Z" />
      <path d="M124,79.4a3,3,0,0,1-2.8-1.7L109.9,52.8a3,3,0,1,1,5.5-2.5l11.3,24.9a3,3,0,0,1-1.5,4Z" />
    </g>
  </g>
</svg>
