<svg xmlns="http://www.w3.org/2000/svg" viewBox="0 0 128 128"><title>blinker_right</title><g id="blinker_right"><g id="Layer_42" data-name="Layer 42"><path d="M86.64,97.5a3.12,3.12,0,0,1-1.3-.29,3,3,0,0,1-1.7-2.71V79.43H23.38a3,3,0,0,1-2.73-4.25L31.94,50.33a3,3,0,0,1,2.74-1.76h49V33.5a3,3,0,0,1,4.88-2.34l38,30.5a3,3,0,0,1,0,4.68l-38,30.5A3,3,0,0,1,86.64,97.5ZM28,73.43h58.6a3,3,0,0,1,3,3V88.24L119.83,64,89.64,39.76V51.57a3,3,0,0,1-3,3h-50Z"/><path d="M3.55,79.43a3.08,3.08,0,0,1-1.24-.27,3,3,0,0,1-1.49-4l11.3-24.85a3,3,0,1,1,5.46,2.49L6.29,77.67A3,3,0,0,1,3.55,79.43Z"/></g></g></svg>