<svg xmlns="http://www.w3.org/2000/svg" viewBox="0 0 127 128">
  <title>blinker_right</title>
  <g id="blinker_right">
    <g id="Layer_42" data-name="Layer 42">
      <path
          d="M86,97.5a3.1,3.1,0,0,1-1.3-.3A3,3,0,0,1,83,94.5V79.4H22.8A3,3,0,0,1,20.2,78a3.1,3.1,0,0,1-.2-2.8L31.3,50.3a3.2,3.2,0,0,1,2.8-1.7H83V33.5a3,3,0,0,1,1.7-2.7,2.9,2.9,0,0,1,3.2.4l38,30.5a3,3,0,0,1,0,4.6l-38,30.5A2.6,2.6,0,0,1,86,97.5ZM27.4,73.4H86a3,3,0,0,1,3,3V88.2L119.2,64,89,39.8V51.6a3,3,0,0,1-3,3H36Z" />
      <path
          d="M2.9,79.4l-1.2-.2a3,3,0,0,1-1.5-4L11.5,50.3a3.1,3.1,0,0,1,4-1.5,3.1,3.1,0,0,1,1.5,4L5.7,77.7A3,3,0,0,1,2.9,79.4Z" />
    </g>
  </g>
</svg>
