<svg xmlns="http://www.w3.org/2000/svg" viewBox="0 0 126.97 128"><title>blinker_left</title><g id="blinker_left"><g id="Layer_40" data-name="Layer 40"><path d="M40.88,97.5A3,3,0,0,1,39,96.84L1,66.34a3,3,0,0,1,0-4.68l38-30.5a3,3,0,0,1,4.88,2.34V48.57h49a3,3,0,0,1,2.73,1.76l11.29,24.85a3,3,0,0,1-2.73,4.25H43.88V94.5a3,3,0,0,1-1.7,2.71A3.12,3.12,0,0,1,40.88,97.5ZM7.69,64,37.88,88.24V76.43a3,3,0,0,1,3-3h58.6L90.91,54.57h-50a3,3,0,0,1-3-3V39.76Z"/><path d="M124,79.43a3,3,0,0,1-2.74-1.76L109.94,52.82a3,3,0,1,1,5.46-2.49l11.3,24.85a3,3,0,0,1-1.49,4A3,3,0,0,1,124,79.43Z"/></g></g></svg>