<svg xmlns="http://www.w3.org/2000/svg" viewBox="0 0 126.97 128">
	<title>brakes_temperature</title>
	<g id="brakes_temperature">
		<path
			d="M62.61,21a42.11,42.11,0,1,1-42.1,42.11A42.22,42.22,0,0,1,62.61,21m0-7.06a49.17,49.17,0,1,0,49.18,49.17A49.2,49.2,0,0,0,62.61,13.92Z" />
		<path
			d="M114.75,101.38l-5.93-4.1a56.7,56.7,0,0,0-1.13-66l5.79-4.24a63.23,63.23,0,0,1,12.58,38A61.77,61.77,0,0,1,114.75,101.38Z" />
		<path
			d="M10.47,101.38A63.55,63.55,0,0,1,11.6,27.06l5.8,4.24A55.66,55.66,0,0,0,6.24,65.07a56.77,56.77,0,0,0,10,32.21Z" />
		<path
			d="M74.11,85.54a9.34,9.34,0,0,0-7.74-11.38V34.94a1.32,1.32,0,0,0-1.58-1.34A1.35,1.35,0,0,0,63.67,35V48H52.09a1.32,1.32,0,0,0-1.33,1.58,1.34,1.34,0,0,0,1.35,1.12H63.67V57H57a1.33,1.33,0,0,0-1.34,1.58,1.35,1.35,0,0,0,1.36,1.12h6.61v5.4H52.09a1.31,1.31,0,0,0-1.33,1.57,1.34,1.34,0,0,0,1.35,1.12H63.67v6.3a9.34,9.34,0,1,0,5.7,17.5A8.92,8.92,0,0,0,74.11,85.54Zm-2.54-2.39a6.52,6.52,0,0,1-13,0,6.52,6.52,0,1,1,13,0Z" />
	</g>
</svg>