<svg xmlns="http://www.w3.org/2000/svg" viewBox="0 0 126.97 128">
	<title>cruise_control</title>
	<g id="cruize_control">
		<g id="Export-3" data-name="Export">
			<path
				d="M124,106.55h-11.3a3,3,0,0,1,0-6H121c-.23-6.73-2-24.06-14.19-36.89-10-10.53-24.71-15.87-43.82-15.87S29.23,53.11,19.48,63.61C7.54,76.47,6.09,93.86,6,100.55h8.35a3,3,0,1,1,0,6H3.05a3,3,0,0,1-3-2.77c-.08-1.06-1.8-26.09,15-44.2,10.93-11.8,27-17.79,47.9-17.79s37.08,6,48.22,17.79C128.24,77.67,127,102.67,127,103.72A3,3,0,0,1,124,106.55Z" />
			<path
				d="M16.8,81.91A3,3,0,0,1,14.68,81L8.2,74.56a3,3,0,0,1,4.25-4.25l6.47,6.48a3,3,0,0,1,0,4.24A3,3,0,0,1,16.8,81.91Z" />
			<path
				d="M109.76,81.91a3,3,0,0,1-2.12-5.12l6.47-6.48a3,3,0,0,1,4.24,4.25L111.88,81A3,3,0,0,1,109.76,81.91Z" />
			<path d="M63.48,57a3,3,0,0,1-3-3V44.89a3,3,0,0,1,6,0V54A3,3,0,0,1,63.48,57Z" />
			<path d="M63.48,106.55a3,3,0,0,1-3-3v-35a3,3,0,0,1,6,0v35A3,3,0,0,1,63.48,106.55Z" />
			<circle cx="63.48" cy="103.55" r="5.65" />
			<path
				d="M63.48,110.2a6.65,6.65,0,1,1,6.65-6.65A6.67,6.67,0,0,1,63.48,110.2Zm0-11.3a4.65,4.65,0,1,0,4.65,4.65A4.65,4.65,0,0,0,63.48,98.9Z" />
			<path
				d="M63.48,38a2.56,2.56,0,0,1-.55-.05h0a3.2,3.2,0,0,1-1.06-.41l-.17-.12-8.25-6A3,3,0,0,1,57,26.55l3.5,2.55V18.8a3,3,0,0,1,6,0V29.26l4-2.75A3,3,0,0,1,75.17,29a3,3,0,0,1-1.29,2.47l-8.69,6h0a3,3,0,0,1-1.63.53Z" />
		</g>
	</g>
</svg>