<svg xmlns="http://www.w3.org/2000/svg" viewBox="0 0 127 128">
  <title>cruise_control</title>
  <g id="cruize_control">
    <g id="Export-3" data-name="Export">
      <g>
        <path
            d="M124,106.5H112.7a2.9,2.9,0,0,1-3-3,3,3,0,0,1,3-3H121c-.3-6.7-2.1-24-14.2-36.8-10-10.6-24.7-15.9-43.9-15.9S29.2,53.1,19.5,63.6C7.5,76.5,6.1,93.9,6,100.5h8.4a3.1,3.1,0,0,1,3,3,3,3,0,0,1-3,3H3.1a3,3,0,0,1-3-2.7C0,102.7-1.7,77.7,15,59.6,26,47.8,42.1,41.8,62.9,41.8s37.1,6,48.3,17.8c17,18.1,15.8,43.1,15.7,44.1A2.9,2.9,0,0,1,124,106.5Z" />
        <path
            d="M16.8,81.9a2.9,2.9,0,0,1-2.1-.9L8.2,74.6a3,3,0,0,1,0-4.3,2.9,2.9,0,0,1,4.2,0l6.5,6.5a3,3,0,0,1-2.1,5.1Z" />
        <path
            d="M109.8,81.9a3,3,0,0,1-2.2-5.1l6.5-6.5a3,3,0,0,1,4.3,0,3.2,3.2,0,0,1,0,4.3L111.9,81A3,3,0,0,1,109.8,81.9Z" />
        <path d="M63.5,57a2.9,2.9,0,0,1-3-3V44.9a2.9,2.9,0,0,1,3-3,3,3,0,0,1,3,3V54A3,3,0,0,1,63.5,57Z" />
        <g>
          <path d="M63.5,106.5a2.9,2.9,0,0,1-3-3v-35a3,3,0,0,1,3-3,3.1,3.1,0,0,1,3,3v35A3,3,0,0,1,63.5,106.5Z" />
          <g>
            <circle cx="63.5" cy="103.5" r="5.6" />
            <path
                d="M63.5,110.2a6.7,6.7,0,1,1,6.6-6.7A6.7,6.7,0,0,1,63.5,110.2Zm0-11.3a4.7,4.7,0,1,0,4.6,4.6A4.7,4.7,0,0,0,63.5,98.9Z" />
          </g>
        </g>
        <path
            d="M63.5,38h-.6a2.1,2.1,0,0,1-1-.4h-.2l-8.2-6a3,3,0,0,1-.7-4.2,3.1,3.1,0,0,1,4.2-.7l3.5,2.6V18.8a2.9,2.9,0,0,1,3-3,3,3,0,0,1,3,3V29.3l4-2.8a2.9,2.9,0,0,1,4.1.8,2.7,2.7,0,0,1,.6,1.7,2.9,2.9,0,0,1-1.3,2.4l-8.7,6.1h0a3.3,3.3,0,0,1-1.6.5Z" />
      </g>
    </g>
  </g>
</svg>
