<svg xmlns="http://www.w3.org/2000/svg" viewBox="0 0 128 128"><title>cruise_control</title><g id="cruize_control"><g id="Export-3" data-name="Export"><path d="M124.47,106.55h-11.3a3,3,0,0,1,0-6h8.3c-.23-6.73-2-24.06-14.2-36.89-10-10.53-24.7-15.87-43.82-15.87S29.74,53.11,20,63.61C8.06,76.47,6.6,93.86,6.51,100.55h8.36a3,3,0,1,1,0,6H3.57a3,3,0,0,1-3-2.77c-.08-1.06-1.8-26.09,15-44.2,10.93-11.8,27-17.79,47.89-17.79s37.09,6,48.23,17.79c17.08,18.09,15.84,43.09,15.78,44.14A3,3,0,0,1,124.47,106.55Z"/><path d="M17.32,81.91A3,3,0,0,1,15.2,81L8.72,74.56A3,3,0,1,1,13,70.31l6.48,6.48a3,3,0,0,1-2.12,5.12Z"/><path d="M110.27,81.91a3,3,0,0,1-2.12-5.12l6.48-6.48a3,3,0,0,1,4.24,4.25L112.39,81A3,3,0,0,1,110.27,81.91Z"/><path d="M64,57a3,3,0,0,1-3-3V44.89a3,3,0,0,1,6,0V54A3,3,0,0,1,64,57Z"/><path d="M64,106.55a3,3,0,0,1-3-3v-35a3,3,0,1,1,6,0v35A3,3,0,0,1,64,106.55Z"/><circle cx="64" cy="103.55" r="5.65"/><path d="M64,110.2a6.65,6.65,0,1,1,6.65-6.65A6.66,6.66,0,0,1,64,110.2Zm0-11.3a4.65,4.65,0,1,0,4.65,4.65A4.65,4.65,0,0,0,64,98.9Z"/><path d="M64,38a2.5,2.5,0,0,1-.55-.05h0a3.23,3.23,0,0,1-1-.41l-.17-.12L54,31.4a3,3,0,0,1,3.53-4.85L61,29.1V18.8a3,3,0,1,1,6,0V29.26l4-2.75a3,3,0,0,1,3.42,4.93l-8.68,6h0a3,3,0,0,1-1.63.53Z"/></g></g></svg>