<svg xmlns="http://www.w3.org/2000/svg" viewBox="0 0 127 128">
	<title>cruise_control</title>
	<g id="cruize_control">
		<g>
			<path d="M10.4,26.8l8,8.2,2.8-2.7c1.6,6.6,3.1,13,4.6,19.7L6.1,47.4l2.6-2.8L.5,36.8Z" />
			<path
				d="M64.5,95.4c-.4-.5-.6-1.2-1-1.6L48,78.3c-.9-.9-1.5-1.9-1-3.2a2.7,2.7,0,0,1,4.6-.9L61.9,84.4l4.8,4.9a3.2,3.2,0,0,0,2.9,1.2,5.2,5.2,0,0,1,5.2,4.2,5.5,5.5,0,0,1-2.7,5.8,5.3,5.3,0,0,1-6.5-1.1A4.3,4.3,0,0,1,64.5,95.4Z" />
			<path
				d="M26.2,97.1c0-1.5,0-3,.1-4.5s-.4-1-1.1-1a28,28,0,0,1-2.9,0A47.6,47.6,0,0,1,33.1,65.3l2.7,3.3,6.5-6.7-3.1-2.6a47.4,47.4,0,0,1,27-10.9c0,1.1,0,2.1-.1,3.1s.3,1,1.1,1H74c.7,0,.9-.3.9-.9V48.5a48.1,48.1,0,0,1,25.6,11.1l-3.1,2.5,6.5,6.4a26.1,26.1,0,0,1,2.4-3,48.7,48.7,0,0,1,10.9,27h-3.3c-.7,0-1,.2-1,1v3.6h13.6V95.9a56.9,56.9,0,0,0-113.7-.2,6.1,6.1,0,0,0,.1,1.4Z" />
		</g>
	</g>
</svg>
