<svg xmlns="http://www.w3.org/2000/svg" viewBox="0 0 127 128">
	<title>currency</title>
	<g id="currency">
		<g id="Layer_29" data-name="Layer 29">
			<g>
				<path
					d="M96.1,127.5c-18.4,0-34-6.9-44.8-20C41.7,96,36.4,80.6,36.4,64s5.3-32,14.9-43.5C62.1,7.4,77.7.5,96.1.5a2.9,2.9,0,0,1,3,3,2.9,2.9,0,0,1-3,3c-16.6,0-30.5,6.2-40.2,17.8S42.4,48.9,42.4,64c0,27.7,16.8,57.5,53.7,57.5a3,3,0,0,1,0,6Z" />
				<path d="M82.9,55.7h-52a3,3,0,0,1-3-3,2.9,2.9,0,0,1,3-3h52a3,3,0,0,1,3,3A3.1,3.1,0,0,1,82.9,55.7Z" />
				<path d="M82.9,75.5h-52a2.9,2.9,0,0,1-3-3,3,3,0,0,1,3-3h52a3.1,3.1,0,0,1,3,3A3,3,0,0,1,82.9,75.5Z" />
			</g>
		</g>
	</g>
</svg>
