<svg xmlns="http://www.w3.org/2000/svg" viewBox="0 0 127 128">
	<title>currency</title>
	<g id="currency">
		<path
			d="M107.4,118.1a49.8,49.8,0,0,1-27.3,7.7c-14.9,0-28.1-5.7-37.2-16.3-7-7.7-11.6-18.3-13.2-31.5H18.3V69H28.8V66.2c0-2.9.1-5.6.3-8.2H18.3V48.8H30.4c2.2-12.8,7.7-23.4,15-30.9C54.8,8.2,66.7,2.7,81.7,2.7a52.8,52.8,0,0,1,24.4,5.8l-3.7,12.1c-4.6-2.7-12.3-5.1-20.5-5.1-9.9,0-18,3.5-24.2,10.1s-9.1,13.5-11,23.2H97.8V58H45.1c-.2,2.4-.4,5.1-.4,7.7V69H97.8v9H46c1.5,10.6,5.1,18.5,10.1,24,6.7,7.1,15.9,10.6,25.8,10.6s18.1-3.7,22.4-6Z" />
	</g>
</svg>
