<svg xmlns="http://www.w3.org/2000/svg" viewBox="0 0 128 128"><title>currency</title><g id="currency"><g id="Layer_29" data-name="Layer 29"><path d="M125,97H3a3,3,0,0,1-3-3V34a3,3,0,0,1,3-3H125a3,3,0,0,1,3,3V94A3,3,0,0,1,125,97ZM6,91H122V37H6Z"/><path d="M61.77,87.65V81.89A16.71,16.71,0,0,1,53,79.38l1.37-3.83A15.19,15.19,0,0,0,62.62,78c4.05,0,6.79-2.34,6.79-5.59S67.19,67.34,63,65.63c-5.81-2.28-9.41-4.91-9.41-9.87,0-4.73,3.37-8.32,8.62-9.18V40.82H65.7v5.53a15.29,15.29,0,0,1,7.42,2l-1.43,3.76a13.82,13.82,0,0,0-7.19-1.94c-4.39,0-6,2.63-6,4.91,0,3,2.11,4.45,7.07,6.5C71.41,64,74.37,66.94,74.37,72c0,4.5-3.13,8.73-9,9.69v5.94Z"/><path d="M27.77,87.65V81.89A16.71,16.71,0,0,1,19,79.38l1.37-3.83A15.19,15.19,0,0,0,28.62,78c4.05,0,6.79-2.34,6.79-5.59S33.19,67.34,29,65.63c-5.81-2.28-9.41-4.91-9.41-9.87,0-4.73,3.37-8.32,8.62-9.18V40.82H31.7v5.53a15.29,15.29,0,0,1,7.42,2l-1.43,3.76a13.82,13.82,0,0,0-7.19-1.94c-4.39,0-6,2.63-6,4.91,0,3,2.11,4.45,7.07,6.5C37.41,64,40.37,66.94,40.37,72c0,4.5-3.13,8.73-9,9.69v5.94Z"/><path d="M95.77,87.65V81.89A16.71,16.71,0,0,1,87,79.38l1.37-3.83A15.19,15.19,0,0,0,96.62,78c4,0,6.79-2.34,6.79-5.59s-2.22-5.08-6.45-6.79c-5.81-2.28-9.41-4.91-9.41-9.87,0-4.73,3.37-8.32,8.62-9.18V40.82H99.7v5.53a15.29,15.29,0,0,1,7.42,2l-1.43,3.76a13.82,13.82,0,0,0-7.19-1.94c-4.39,0-6,2.63-6,4.91,0,3,2.11,4.45,7.07,6.5,5.88,2.4,8.84,5.36,8.84,10.44,0,4.5-3.13,8.73-9,9.69v5.94Z"/></g></g></svg>