<svg xmlns="http://www.w3.org/2000/svg" viewBox="0 0 126.97 128">
	<title>currency</title>
	<g id="currency">
		<g id="Layer_29" data-name="Layer 29">
			<path
				d="M96.1,127.5c-18.44,0-33.95-6.91-44.85-20C41.66,96,36.38,80.55,36.38,64s5.28-32,14.87-43.51C62.15,7.41,77.66.5,96.1.5a3,3,0,0,1,0,6c-16.61,0-30.52,6.16-40.24,17.83C47.17,34.76,42.38,48.85,42.38,64c0,27.69,16.81,57.5,53.72,57.5a3,3,0,0,1,0,6Z" />
			<path d="M82.86,55.66h-52a3,3,0,0,1,0-6h52a3,3,0,0,1,0,6Z" />
			<path d="M82.86,75.51h-52a3,3,0,0,1,0-6h52a3,3,0,0,1,0,6Z" />
		</g>
	</g>
</svg>