<svg xmlns="http://www.w3.org/2000/svg" viewBox="0 0 126.97 128">
	<title>endpoint</title>
	<g id="endpoint">
		<g id="Export-3" data-name="Export">
			<path
				d="M63.48,128.51l-2.39-3.15C59.37,123.09,19,69.61,19,46a44.5,44.5,0,0,1,89,0c0,23.65-40.39,77.13-42.11,79.4Zm0-121A38.54,38.54,0,0,0,25,46c0,18.56,29.75,60.59,38.5,72.54,8.75-12,38.5-54,38.5-72.54A38.54,38.54,0,0,0,63.48,7.46Z" />
			<path
				d="M63.48,58.58A12.63,12.63,0,1,1,76.11,46,12.63,12.63,0,0,1,63.48,58.58Zm0-19.25A6.63,6.63,0,1,0,70.11,46,6.63,6.63,0,0,0,63.48,39.33Z" />
		</g>
	</g>
</svg>