<svg xmlns="http://www.w3.org/2000/svg" viewBox="0 0 127 128">
  <title>endpoint</title>
  <g id="endpoint">
    <g id="Export-3" data-name="Export">
		<path
			d="M63.5,128.5l-2.4-3.1C59.4,123.1,19,69.6,19,46a44.5,44.5,0,0,1,89,0c0,23.6-40.4,77.1-42.1,79.4Zm0-121A38.5,38.5,0,0,0,25,46c0,18.5,29.7,60.5,38.5,72.5,8.7-12,38.5-54,38.5-72.5A38.5,38.5,0,0,0,63.5,7.5Z" />
		<path
			d="M63.5,58.6A12.7,12.7,0,1,1,76.1,46,12.6,12.6,0,0,1,63.5,58.6Zm0-19.3A6.7,6.7,0,1,0,70.1,46,6.6,6.6,0,0,0,63.5,39.3Z" />
	</g>
  </g>
</svg>
