<svg xmlns="http://www.w3.org/2000/svg" viewBox="0 0 126.97 128">
	<title>engine</title>
	<g id="engine">
		<path id="Engine-2" data-name="Engine"
			  d="M18.75,80.81H10.48c0,3.87.68,7.76-.23,11.23C9.62,94.4,6.76,96.17,4.9,98.2c-1.62-2-4.59-4-4.64-6.11Q-.29,66.56.28,41c0-2,3.2-3.88,4.91-5.82,1.76,1.89,4.3,3.51,5.08,5.74.88,2.56.2,5.67.2,9h8.26c.26-4.46.5-8.83.8-14.12C27.08,37.32,31.89,34,35.74,28c1-1.57,4.83-1.2,7.24-2.06a24.94,24.94,0,0,0,4.45-2.64c-1-1.14-2.2-2.2-3.13-3.42-1.55-2.05-3-4.21-4.43-6.32,2.24-1.38,4.45-3.87,6.75-3.95,11.19-.42,22.42-.49,33.6,0,2.59.12,6.75,2.59,7.22,4.66,1.07,4.68-3,5.67-6.92,5.76a11.93,11.93,0,0,0-2,.43c-1.62,3.56-.81,6.13,3.37,5.35,7.52-1.4,11.22,2.91,14.2,8.51,2,3.76,4.69,5.84,9.13,5s7.42.63,7.68,6H127V98.7c-.42.3-.82.82-1.12.77-13.12-2.41-21.14,4.71-28.47,14.26-2,2.64-6.61,4.31-10.16,4.6-8.24.67-16.59-.11-24.86.33-4.94.27-8.07-1.62-10.47-5.56-2.65-4.37-6.24-6.14-11.66-6-13.46.42-20.86-7.27-21.13-21C19.08,84.61,18.91,83.06,18.75,80.81Zm97.59-24.93c-3.43,0-6.32.14-9.18-.06-1.45-.1-3.92-.52-4.12-1.28-1.1-4.09-4.06-4-7.29-4.27a4.89,4.89,0,0,1-3.54-2.46c-4.13-11-12.78-12.15-22.82-11.1a96.07,96.07,0,0,1-14.79,0c-7.33-.37-14.39-.55-18.18,7.58-.4.86-2,1.1-2.61,1.92C32.4,48,30.17,49.89,30.1,51.8c-.37,9.85-.17,19.72-.17,29.58,0,14.12,1.18,15.11,15.34,15.45,3.23.07,8,.82,9.35,3,4.63,7.5,11,8.9,18.87,8.07,3.32-.35,6.72,0,10.08-.07A12.66,12.66,0,0,0,95.91,96.3c.18-1.94.34-3.89.54-6.2L116.34,89Z" />
	</g>
</svg>