<svg xmlns="http://www.w3.org/2000/svg" viewBox="0 0 128 127"><title>engine</title><g id="engine"><path id="Engine-2" data-name="Engine" d="M19.27,80.31H11c0,3.87.68,7.76-.24,11.23-.62,2.36-3.48,4.13-5.35,6.16-1.61-2-4.58-4-4.63-6.11Q.21,66.06.8,40.5c0-2,3.19-3.88,4.9-5.82,1.76,1.89,4.31,3.51,5.08,5.74.89,2.56.21,5.67.21,9h8.26c.25-4.46.5-8.83.8-14.12,7.55,1.48,12.36-1.82,16.21-7.8,1-1.57,4.83-1.2,7.24-2.06A25.67,25.67,0,0,0,48,22.84c-1.05-1.14-2.2-2.2-3.13-3.42-1.56-2.05-3-4.21-4.44-6.32,2.25-1.38,4.46-3.87,6.75-3.95,11.19-.42,22.42-.49,33.61,0,2.59.12,6.75,2.59,7.22,4.66C89,18.51,85,19.5,81,19.59A11.93,11.93,0,0,0,79,20c-1.62,3.56-.82,6.13,3.37,5.35,7.52-1.4,11.21,2.91,14.2,8.51,2,3.76,4.69,5.84,9.13,5s7.42.63,7.67,6H127.5V98.2c-.43.3-.83.82-1.12.77-13.12-2.41-21.15,4.71-28.48,14.26-2,2.64-6.6,4.31-10.16,4.6-8.24.67-16.58-.11-24.85.33-5,.27-8.08-1.62-10.47-5.56-2.66-4.37-6.25-6.14-11.66-6-13.47.42-20.86-7.27-21.13-21C19.6,84.11,19.42,82.56,19.27,80.31Zm97.59-24.93c-3.43,0-6.32.14-9.18-.06-1.46-.1-3.92-.52-4.13-1.28-1.1-4.09-4-4-7.28-4.27a4.89,4.89,0,0,1-3.54-2.46C88.59,36.27,80,35.16,69.9,36.21a95.94,95.94,0,0,1-14.78,0c-7.33-.37-14.4-.55-18.18,7.58-.4.86-1.95,1.1-2.61,1.92-1.42,1.74-3.64,3.64-3.71,5.55-.37,9.85-.17,19.72-.17,29.58C30.46,95,31.63,96,45.79,96.33c3.23.07,8,.82,9.34,3,4.63,7.5,11,8.9,18.87,8.07,3.33-.35,6.72,0,10.09-.07A12.67,12.67,0,0,0,96.43,95.8c.17-1.94.34-3.89.54-6.2l19.89-1.1Z"/></g></svg>