<svg xmlns="http://www.w3.org/2000/svg" viewBox="0 0 127 128">
  <title>engine</title>
  <g id="engine">
    <path id="Engine-2" data-name="Engine"
          d="M18.7,80.8H10.5c0,3.9.7,7.8-.3,11.2s-3.4,4.2-5.3,6.2c-1.6-2-4.6-4-4.6-6.1C-.1,75.1-.1,58,.3,41c0-2,3.2-3.9,4.9-5.8,1.7,1.9,4.3,3.5,5.1,5.7s.2,5.7.2,9.1h8.2c.3-4.5.5-8.9.8-14.2C27.1,37.3,31.9,34,35.7,28c1.1-1.5,4.9-1.2,7.3-2a24.7,24.7,0,0,0,4.4-2.7c-1-1.1-2.2-2.2-3.1-3.4s-3-4.2-4.4-6.3c2.2-1.4,4.4-3.9,6.7-4,11.2-.4,22.4-.4,33.6.1,2.6.1,6.8,2.6,7.2,4.6,1.1,4.7-2.9,5.7-6.9,5.8a17.7,17.7,0,0,0-2,.4c-1.6,3.6-.8,6.1,3.4,5.4,7.5-1.4,11.2,2.9,14.2,8.5,2,3.7,4.7,5.8,9.1,5s7.4.7,7.7,6.1H127V98.7c-.4.3-.8.8-1.1.8-13.2-2.4-21.2,4.7-28.5,14.2-2,2.7-6.6,4.3-10.2,4.6-8.2.7-16.6-.1-24.8.4-5,.2-8.1-1.7-10.5-5.6s-6.2-6.1-11.7-6c-13.4.5-20.8-7.2-21.1-20.9C19.1,84.6,18.9,83.1,18.7,80.8Zm97.6-24.9c-3.4,0-6.3.1-9.1-.1s-4-.5-4.2-1.3c-1.1-4.1-4-4-7.2-4.2a5,5,0,0,1-3.6-2.5c-4.1-11-12.8-12.1-22.8-11.1a104.4,104.4,0,0,1-14.8.1c-7.3-.4-14.4-.6-18.2,7.5-.4.9-1.9,1.1-2.6,1.9s-3.6,3.7-3.7,5.6c-.4,9.8-.2,19.7-.2,29.6,0,14.1,1.2,15.1,15.4,15.4,3.2.1,8,.9,9.3,3,4.6,7.5,11,8.9,18.9,8.1a84.9,84.9,0,0,1,10.1-.1A12.6,12.6,0,0,0,95.9,96.3c.2-1.9.4-3.9.6-6.2L116.3,89Z" />
  </g>
</svg>
