<svg xmlns="http://www.w3.org/2000/svg" viewBox="0 0 128 129"><title>fuel</title><g id="fuel"><g id="Export-2" data-name="Export"><g id="Path"><path d="M104.86,120.46c-11.34,0-16.74-8-18-12.22a3.13,3.13,0,0,1-.12-.86V66c0-5.42-11-9.08-14.8-9.93a3,3,0,0,1,1.29-5.86c2,.44,19.51,4.63,19.51,15.79v40.85c.61,1.55,3.56,7.6,12.13,7.6A14.4,14.4,0,0,0,118,106.72v-70c0-6.88-12.76-17.57-20.81-22.69A3,3,0,0,1,100.42,9C102.83,10.54,124,24.37,124,36.76v70.62a3,3,0,0,1-.21,1.11A20.3,20.3,0,0,1,104.86,120.46ZM121,107.38h0Z"/><path d="M51.24,56.77H29.35a7.06,7.06,0,0,1-7.06-7.05V27.83a7.07,7.07,0,0,1,7.06-7.06H51.24a7.06,7.06,0,0,1,7,7.06V49.72A7.05,7.05,0,0,1,51.24,56.77Zm-21.89-30a1.08,1.08,0,0,0-1.06,1.06V49.72a1.07,1.07,0,0,0,1.06,1.05H51.24a1.06,1.06,0,0,0,1-1.05V27.83a1.07,1.07,0,0,0-1-1.06Z"/><path d="M66.58,127.53H13a9,9,0,0,1-9-9V10.47a9,9,0,0,1,9-9H66.58a9,9,0,0,1,9,9V118.53A9,9,0,0,1,66.58,127.53ZM13,7.47a3,3,0,0,0-3,3V118.53a3,3,0,0,0,3,3H66.58a3,3,0,0,0,3-3V10.47a3,3,0,0,0-3-3Z"/></g></g></g></svg>