<svg xmlns="http://www.w3.org/2000/svg" viewBox="0 0 126.97 128">
	<title>fuel</title>
	<g id="fuel">
		<g id="Export-2" data-name="Export">
			<g id="Path">
				<path
					d="M104.34,120c-11.34,0-16.74-8-18-12.22a2.8,2.8,0,0,1-.13-.86V65.51c0-5.42-11-9.08-14.8-9.93a3,3,0,0,1,1.29-5.86c2,.44,19.51,4.63,19.51,15.79v40.85c.61,1.55,3.56,7.6,12.13,7.6a14.39,14.39,0,0,0,13.14-7.74v-70c0-6.88-12.76-17.57-20.8-22.69A3,3,0,0,1,99.9,8.5c2.41,1.54,23.58,15.37,23.58,27.76v70.62a3,3,0,0,1-.21,1.11A20.28,20.28,0,0,1,104.34,120Zm16.14-13.08h0Z" />
				<path
					d="M50.72,56.27H28.83a7.05,7.05,0,0,1-7-7.05V27.33a7.06,7.06,0,0,1,7-7.06H50.72a7.07,7.07,0,0,1,7.06,7.06V49.22A7.06,7.06,0,0,1,50.72,56.27Zm-21.89-30a1.07,1.07,0,0,0-1,1.06V49.22a1.06,1.06,0,0,0,1,1.05H50.72a1.07,1.07,0,0,0,1.06-1.05V27.33a1.08,1.08,0,0,0-1.06-1.06Z" />
				<path
					d="M66.06,127H12.48a9,9,0,0,1-9-9V10a9,9,0,0,1,9-9H66.06a9,9,0,0,1,9,9V118A9,9,0,0,1,66.06,127ZM12.48,7a3,3,0,0,0-3,3V118a3,3,0,0,0,3,3H66.06a3,3,0,0,0,3-3V10a3,3,0,0,0-3-3Z" />
			</g>
		</g>
	</g>
</svg>