<svg xmlns="http://www.w3.org/2000/svg" viewBox="0 0 127 128">
	<title>fuel_consumption</title>
	<g id="fuel_consumption">
		<g id="Path">
			<path d="M9.7,5.8h6.4V50.3H37.4v5.4H9.7Z" />
			<g>
				<path d="M49.8,88.3h-.1l-6.4,3.4L42.4,88l8-4.3h4.2v36.5H49.8Z" />
				<path
					d="M92.1,101.5c0,12.5-4.6,19.3-12.7,19.3s-11.9-6.7-12-18.7,5.2-19,12.6-19S92.1,89.9,92.1,101.5Zm-19.8.6c0,9.5,2.9,14.9,7.4,14.9s7.5-5.9,7.5-15.2-2.3-14.9-7.4-14.9S72.3,92.2,72.3,102.1Z" />
				<path
					d="M120.9,101.5c0,12.5-4.6,19.3-12.7,19.3s-11.9-6.7-12-18.7,5.2-19,12.6-19S120.9,89.9,120.9,101.5Zm-19.8.6c0,9.5,2.9,14.9,7.4,14.9s7.5-5.9,7.5-15.2-2.3-14.9-7.4-14.9S101.1,92.2,101.1,102.1Z" />
			</g>
			<line x1="23.5" y1="92.2" x2="76.5" y2="39.2" fill="none" stroke="#000" stroke-linecap="round"
				  stroke-miterlimit="10" stroke-width="6" />
		</g>
		<g id="Export">
			<path d="M9.7,5.8h6.4V50.3H37.4v5.4H9.7Z" />
			<g>
				<path d="M49.8,88.3h-.1l-6.4,3.4L42.4,88l8-4.3h4.2v36.5H49.8Z" />
				<path
					d="M92.1,101.5c0,12.5-4.6,19.3-12.7,19.3s-11.9-6.7-12-18.7,5.2-19,12.6-19S92.1,89.9,92.1,101.5Zm-19.8.6c0,9.5,2.9,14.9,7.4,14.9s7.5-5.9,7.5-15.2-2.3-14.9-7.4-14.9S72.3,92.2,72.3,102.1Z" />
				<path
					d="M120.9,101.5c0,12.5-4.6,19.3-12.7,19.3s-11.9-6.7-12-18.7,5.2-19,12.6-19S120.9,89.9,120.9,101.5Zm-19.8.6c0,9.5,2.9,14.9,7.4,14.9s7.5-5.9,7.5-15.2-2.3-14.9-7.4-14.9S101.1,92.2,101.1,102.1Z" />
			</g>
			<path
				d="M23.5,95.2a3,3,0,0,1-2.1-.9,2.9,2.9,0,0,1,0-4.2l53-53a3,3,0,0,1,4.3,0,3.1,3.1,0,0,1,0,4.2l-53,53A3.1,3.1,0,0,1,23.5,95.2Z" />
		</g>
	</g>
</svg>
