<svg xmlns="http://www.w3.org/2000/svg" viewBox="0 0 127 128">
  <title>fuel</title>
  <g id="fuel">
    <g id="Export-2" data-name="Export">
      <g id="Path">
        <path
            d="M104.3,120c-11.3,0-16.7-8-18-12.3,0-.2-.1-.5-.1-.8V65.5c0-5.4-11-9.1-14.8-9.9a3,3,0,0,1,1.3-5.9c2,.5,19.5,4.6,19.5,15.8v40.9c.6,1.5,3.6,7.6,12.1,7.6a14.6,14.6,0,0,0,13.2-7.8V36.3c0-6.9-12.8-17.6-20.8-22.7a3.1,3.1,0,0,1-.9-4.2,2.9,2.9,0,0,1,4.1-.9c2.4,1.5,23.6,15.4,23.6,27.8v70.6a4.3,4.3,0,0,1-.2,1.1A20.4,20.4,0,0,1,104.3,120Zm16.2-13.1Z" />
        <path
            d="M50.7,56.3H28.8a7,7,0,0,1-7-7.1V27.3a7,7,0,0,1,7-7H50.7a7,7,0,0,1,7.1,7V49.2A7.1,7.1,0,0,1,50.7,56.3Zm-21.9-30a1.1,1.1,0,0,0-1,1V49.2a1.1,1.1,0,0,0,1,1.1H50.7a1.1,1.1,0,0,0,1.1-1.1V27.3a1.1,1.1,0,0,0-1.1-1Z" />
        <path
            d="M66.1,127H12.5a9,9,0,0,1-9-9V10a9,9,0,0,1,9-9H66.1a9,9,0,0,1,9,9V118A9,9,0,0,1,66.1,127ZM12.5,7a2.9,2.9,0,0,0-3,3V118a2.9,2.9,0,0,0,3,3H66.1a3,3,0,0,0,3-3V10a3,3,0,0,0-3-3Z" />
      </g>
    </g>
  </g>
</svg>
