<svg xmlns="http://www.w3.org/2000/svg" viewBox="0 0 126.97 128"><title>fuel_consumption</title><g id="fuel_consumption"><g id="Path"><path d="M106,120c-11.34,0-16.74-8-18-12.22a2.8,2.8,0,0,1-.13-.86V65.51c0-5.42-11-9.08-14.8-9.93a3,3,0,0,1,1.3-5.86c2,.44,19.5,4.63,19.5,15.79v40.85c.61,1.55,3.56,7.6,12.13,7.6a14.39,14.39,0,0,0,13.14-7.74v-70c0-6.88-12.76-17.57-20.8-22.69a3,3,0,0,1,3.22-5.07C103.93,10,125.1,23.87,125.1,36.26v70.62a3,3,0,0,1-.21,1.11A20.28,20.28,0,0,1,106,120Zm16.14-13.08h0Z"/><path d="M52.34,56.27H30.45a7.05,7.05,0,0,1-7-7.05V27.33a7.06,7.06,0,0,1,7.05-7.06H52.34a7.07,7.07,0,0,1,7.06,7.06V49.22A7.06,7.06,0,0,1,52.34,56.27Zm-21.89-30a1.07,1.07,0,0,0-1.05,1.06V49.22a1.06,1.06,0,0,0,1.05,1.05H52.34a1.07,1.07,0,0,0,1.06-1.05V27.33a1.08,1.08,0,0,0-1.06-1.06Z"/><path d="M67.68,127H14.1a9,9,0,0,1-9-9V10a9,9,0,0,1,9-9H67.68a9,9,0,0,1,9,9V118A9,9,0,0,1,67.68,127ZM14.1,7a3,3,0,0,0-3,3V118a3,3,0,0,0,3,3H67.68a3,3,0,0,0,3-3V10a3,3,0,0,0-3-3Z"/></g><path d="M31.28,72.06V80.2H39.1v2.08H31.28v8.2H29.06v-8.2H21.24V80.2h7.82V72.06Z"/><path d="M58.23,98.06v3.71H44.15V98.06Z"/><path d="M26.66,107.56l30.5-30.5A1.5,1.5,0,0,0,55,74.94l-30.5,30.5a1.5,1.5,0,0,0,2.12,2.12Z"/></g></svg>