<svg xmlns="http://www.w3.org/2000/svg" viewBox="0 0 126.97 128"><title>menu</title><g id="menu"><path d="M4.48,8h40a4,4,0,0,0,0-8h-40a4,4,0,0,0,0,8Z"/><circle cx="4.48" cy="84" r="4"/><path d="M4.48,48h40a4,4,0,0,0,0-8h-40a4,4,0,0,0,0,8Z"/><path d="M44.48,120h-40a4,4,0,1,0,0,8h40a4,4,0,0,0,0-8Z"/><path d="M84.48,48a4,4,0,0,0,4-4V4a4,4,0,0,0-8,0V44A4,4,0,0,0,84.48,48Z"/><circle cx="124.48" cy="4" r="4"/><path d="M124.48,120h-36V84a4,4,0,0,0-4-4h-40a4,4,0,1,0,0,8h36v36a4,4,0,0,0,4,4h40a4,4,0,0,0,0-8Z"/><circle cx="124.48" cy="84" r="4"/><circle cx="124.48" cy="44" r="4"/></g></svg>