<svg xmlns="http://www.w3.org/2000/svg" xmlns:xlink="http://www.w3.org/1999/xlink" version="1.1" x="0px" y="0px"
	 viewBox="0 0 100 125" style="enable-background:new 0 0 100 100;" xml:space="preserve"><path d="M75.5,50.5c2.3-5.3,4.9-8.1,5.4-8.7l3.5,2.5l-0.5-8.1l-16.7-8.8l-0.8,4.1l7.9,5.6c-1.1,1.3-2.9,3.7-4.7,7.2  c-3.4-3.2-6.3-5.5-7.4-6.3V8.3c0-1.8-1.5-3.3-3.3-3.3H20.6c-1.8,0-3.3,1.5-3.3,3.3V84h-3.2v11h51.2V84h-3.2V48.7  c1.3,1.2,2.7,2.5,4,3.8c-1.5,4.8-2.6,10.5-2.6,17.3c0,16.3,8.1,17.5,10.6,17.5c6.5,0,11.9-7.2,11.9-16  C85.9,64.3,80.9,56.7,75.5,50.5z M56.2,34.6c0,1.8-1.5,3.3-3.3,3.3H26.4c-1.8,0-3.3-1.5-3.3-3.3v-19c0-1.8,1.5-3.3,3.3-3.3h26.4  c1.8,0,3.3,1.5,3.3,3.3V34.6z M74.1,79.2c-0.1,0-0.5-0.3-0.9-1c-0.6-1-1.5-3.4-1.5-8.3c0-3.7,0.4-7,0.9-9.9  c3.1,4.1,5.2,8.2,5.2,11.5C77.8,76.4,75.2,79.2,74.1,79.2z"/>
	<text x="0" y="115" fill="#000000" font-size="5px" font-weight="bold"
		  font-family="'Helvetica Neue', Helvetica, Arial-Unicode, Arial, Sans-serif">Created by Ervin Bolat</text>
	<text x="0" y="120" fill="#000000" font-size="5px" font-weight="bold"
		  font-family="'Helvetica Neue', Helvetica, Arial-Unicode, Arial, Sans-serif">from the Noun Project</text></svg>
