<svg xmlns="http://www.w3.org/2000/svg" xmlns:xlink="http://www.w3.org/1999/xlink" version="1.1" x="0px" y="0px"
	 viewBox="0 0 100 125" enable-background="new 0 0 100 100" xml:space="preserve"><path d="M76.477,20.877l-0.977-3.58l5.052-5.052L94.607,26.3l-5.053,5.052l-3.58-0.979L76.477,20.877z M56.107,16.363v-2.722h4.854  l4.708-1.91V4.323H36.64v7.408l4.708,1.91h4.856v2.724c-9,1.121-17.081,5.247-23.189,11.355l5.545,5.546  c5.789-5.791,13.782-9.374,22.594-9.374c17.631,0,31.972,14.341,31.972,31.969c0,17.629-14.341,31.97-31.972,31.97  c-15.525,0-28.497-11.128-31.37-25.828h6.188l-10.29-17.824L5.392,62.003h6.423c2.962,19.05,19.476,33.675,39.339,33.675  c21.957,0,39.818-17.861,39.818-39.816C90.973,35.585,75.732,18.81,56.107,16.363z M51.154,30.516v25.268h24.548  C75.702,41.829,64.713,30.516,51.154,30.516z"/>
	<text x="0" y="115" fill="#000000" font-size="5px" font-weight="bold"
		  font-family="'Helvetica Neue', Helvetica, Arial-Unicode, Arial, Sans-serif">Created by Samy Menai</text>
	<text x="0" y="120" fill="#000000" font-size="5px" font-weight="bold"
		  font-family="'Helvetica Neue', Helvetica, Arial-Unicode, Arial, Sans-serif">from the Noun Project</text></svg>
