<svg xmlns="http://www.w3.org/2000/svg" xmlns:xlink="http://www.w3.org/1999/xlink" version="1.1" x="0px" y="0px"
	 viewBox="0 0 100 125" style="enable-background:new 0 0 100 100;" xml:space="preserve"><g><path d="M50,20.2c16.4,0,29.8,13.4,29.8,29.8c0,16.4-13.4,29.8-29.8,29.8c-16.4,0-29.8-13.4-29.8-29.8C20.2,33.6,33.6,20.2,50,20.2    M50,15.2c-19.2,0-34.8,15.6-34.8,34.8S30.8,84.8,50,84.8c19.2,0,34.8-15.6,34.8-34.8S69.2,15.2,50,15.2L50,15.2z"/></g>
	<g><path d="M86.9,77.1l-4.2-2.9c4.7-6.7,7.1-14.6,7.1-22.8c0-8.7-2.7-16.9-7.9-23.9l4.1-3c5.8,7.8,8.9,17.1,8.9,26.9   C95,60.7,92.2,69.5,86.9,77.1z"/></g>
	<g><path d="M13.1,77.1C7.8,69.5,5,60.7,5,51.4c0-9.8,3.1-19.1,8.9-26.9l4.1,3c-5.2,6.9-7.9,15.2-7.9,23.9c0,8.2,2.5,16.1,7.1,22.8   L13.1,77.1z"/></g>
	<text x="0" y="115" fill="#000000" font-size="5px" font-weight="bold"
		  font-family="'Helvetica Neue', Helvetica, Arial-Unicode, Arial, Sans-serif">Created by Ervin Bolat</text>
	<text x="0" y="120" fill="#000000" font-size="5px" font-weight="bold"
		  font-family="'Helvetica Neue', Helvetica, Arial-Unicode, Arial, Sans-serif">from the Noun Project</text></svg>
