<svg xmlns="http://www.w3.org/2000/svg" viewBox="0 0 126.97 128"><title>oil</title><g id="oil"><g id="Export"><path d="M102.55,89.79H53.37A3,3,0,0,1,51,88.58L21.52,48.76l-4.09-.68-3.72,5.59a3,3,0,0,1-5-3.33l4.8-7.2a3,3,0,0,1,3-1.29l7.2,1.2h0l.23.05h0l0,0,28.47,8,7.35-6.18a3,3,0,0,1,1.93-.7H102l21.2-5.89a3,3,0,0,1,3.8,2.89V60.4a3,3,0,0,1-2.19,2.89l-19.31,5.37.07,18.12a3,3,0,0,1-3,3Zm-47.67-6H99.54L99.47,67.1a3.27,3.27,0,0,1-.08-.7V50.21H62.86L55.14,56.7a3,3,0,0,1-2.74.59l-21.58-6ZM105.4,49.48l0,13L121,58.12v-13Z"/><path d="M18.58,79A7.8,7.8,0,0,1,3,79c0-4.31,7.8-19.8,7.8-19.8S18.58,74.69,18.58,79Z"/></g></g></svg>