<svg xmlns="http://www.w3.org/2000/svg" viewBox="0 0 127 128">
	<title>oil</title>
	<g id="oil">
		<g id="Export">
			<g>
				<path
					d="M102.6,89.8H53.4A3,3,0,0,1,51,88.6L21.5,48.8l-4.1-.7-3.7,5.6a3,3,0,0,1-4.1.8A3,3,0,0,1,8.2,52a3.7,3.7,0,0,1,.5-1.7l4.8-7.2a3.4,3.4,0,0,1,3-1.3L23.7,43H24l28.5,8,7.3-6.2a3.7,3.7,0,0,1,2-.7H102l21.2-5.9a3.4,3.4,0,0,1,2.6.5,3.3,3.3,0,0,1,1.2,2.4V60.4a3.1,3.1,0,0,1-2.2,2.9l-19.3,5.4V86.8a3.3,3.3,0,0,1-.9,2.1A2.9,2.9,0,0,1,102.6,89.8Zm-47.7-6H99.5V67.1a1.7,1.7,0,0,1-.1-.7V50.2H62.9l-7.8,6.5a2.9,2.9,0,0,1-2.7.6l-21.6-6Zm50.5-34.3V62.4L121,58.1V45.2Z" />
				<path d="M18.6,79A7.8,7.8,0,0,1,3,79c0-4.3,7.8-19.8,7.8-19.8S18.6,74.7,18.6,79Z" />
			</g>
		</g>
	</g>
</svg>
