<svg xmlns="http://www.w3.org/2000/svg" viewBox="0 0 127 128">
	<title>oil</title>
	<g id="oil">
		<g id="Oil-2" data-name="Oil">
			<path
				d="M65,87.7c-8.3,0-16.6-.1-24.9.1a5.9,5.9,0,0,1-5.9-3.5c-5.5-10-11.3-19.8-16.8-29.8-1.9-3.3-3.3-5.1-6.2-.8-.5.8-2.8.5-4.2.7s-.8-2.9-.3-3.9c3.4-6.9,3.9-7,11.5-4.6S34,50.8,41.8,53.5c2.9.9,4.8.4,7.1-1.6a15.5,15.5,0,0,1,7.3-3.1,26.9,26.9,0,0,1,7.5-.1,127.8,127.8,0,0,0,53.4-7.4c7.1-2.5,9.3-.5,9.3,7.2.2,14.5.3,13.8-13.2,17.1-4.7,1.2-9.4,2.6-14.1,3.5-3.2.7-4.1,2.2-3.9,5.2s-.1,5.9.1,8.9-.9,4.7-4.5,4.6C82.2,87.5,73.6,87.7,65,87.7ZM88.9,54.5c-11.3,0-22-.1-32.8.1a5.6,5.6,0,0,0-3.8,2.2c-3.2,4.3-6.9,4.4-11.5,2.6S30.4,56,23.9,54c4.7,8.2,8.8,15,12.4,22.1,2.1,4.2,4.6,5.8,9.4,5.6,12.6-.4,25.3-.1,38-.1l5.2-.3Zm6.8,9.4c7.9-2,15.3-3.8,22.6-5.8a4.3,4.3,0,0,0,2.3-2.8,85.9,85.9,0,0,0,.1-8.9l-18.4,5.2c-7.4,2.1-7.4,2.1-7,9.8A23.5,23.5,0,0,0,95.7,63.9Z" />
			<path
				d="M7.6,60.5c2.2,4.3,4.3,8.1,6,12.1s2,7.3-1.6,9.2a11,11,0,0,1-8.7,0C-.3,80,.1,76,1.5,72.7S5.4,64.8,7.6,60.5Z" />
			<path
				d="M72.2,40.3a106.5,106.5,0,0,1,11.3.2c1.2.1,2.2,1.8,3.3,2.7-1.1,1-2.2,2.7-3.3,2.8-7.5.2-15.1.2-22.6,0-1.2-.1-2.4-1.7-3.6-2.6,1.2-1,2.3-2.8,3.7-2.9C64.7,40,68.5,40.3,72.2,40.3Z" />
		</g>
	</g>
</svg>
