<svg xmlns="http://www.w3.org/2000/svg" viewBox="0 0 127 128">
  <title>oil_temperature</title>
  <g id="oil_temperature">
    <g>
      <path
          d="M62.6,21A42.1,42.1,0,1,1,20.5,63.1,42.2,42.2,0,0,1,62.6,21m0-7.1a49.2,49.2,0,1,0,49.2,49.2A49.3,49.3,0,0,0,62.6,13.9Z" />
      <path
          d="M114.8,101.4l-6-4.1a55.4,55.4,0,0,0,10.1-32.2,56.4,56.4,0,0,0-11.2-33.8l5.8-4.2a63.8,63.8,0,0,1,1.3,74.3Z" />
      <path d="M10.5,101.4a63.3,63.3,0,0,1,1.1-74.3l5.8,4.2A56,56,0,0,0,6.2,65.1,56.9,56.9,0,0,0,16.3,97.3Z" />
    </g>
    <path
        d="M74.1,85.5a9.3,9.3,0,0,0-7.7-11.3V34.9a1.4,1.4,0,0,0-1.6-1.3A1.3,1.3,0,0,0,63.7,35V48H52.1a1.2,1.2,0,0,0-1.3,1.6,1.3,1.3,0,0,0,1.3,1.1H63.7V57H57a1.3,1.3,0,0,0-1.3,1.5,1.4,1.4,0,0,0,1.4,1.2h6.6v5.4H52.1a1.2,1.2,0,0,0-1.3,1.5,1.3,1.3,0,0,0,1.3,1.2H63.7V74a9.5,9.5,0,0,0-8,9.3,9.4,9.4,0,0,0,13.7,8.2A8.7,8.7,0,0,0,74.1,85.5Zm-2.5-2.4A6.6,6.6,0,1,1,65,76.6,6.5,6.5,0,0,1,71.6,83.1Z" />
  </g>
</svg>
