<svg xmlns="http://www.w3.org/2000/svg" viewBox="0 0 126.97 128"><title>parking_brakes</title><g id="parking_brakes"><path d="M63.55,21.89A42.11,42.11,0,1,1,21.44,64,42.22,42.22,0,0,1,63.55,21.89m0-7.06A49.17,49.17,0,1,0,112.72,64,49.2,49.2,0,0,0,63.55,14.83Z"/><path d="M115.69,102.29l-5.93-4.1a56.7,56.7,0,0,0-1.13-66L114.42,28A63.23,63.23,0,0,1,127,66,61.77,61.77,0,0,1,115.69,102.29Z"/><path d="M11.41,102.29A63.55,63.55,0,0,1,12.54,28l5.8,4.24A55.69,55.69,0,0,0,7.17,66a56.78,56.78,0,0,0,10,32.21Z"/><path d="M49.59,36.1a74.48,74.48,0,0,1,12.36-1c6.36,0,11,1.48,14,4.15A13.41,13.41,0,0,1,80.3,49.72c0,4.51-1.33,8.07-3.85,10.66-3.4,3.62-9,5.47-15.24,5.47A22.19,22.19,0,0,1,56,65.41v20H49.59Zm6.44,24a21.6,21.6,0,0,0,5.33.52c7.77,0,12.5-3.77,12.5-10.65,0-6.59-4.66-9.77-11.76-9.77a27.55,27.55,0,0,0-6.07.51Z"/></g></svg>