<svg xmlns="http://www.w3.org/2000/svg" viewBox="0 0 127 128">
  <title>parking_brakes</title>
  <g id="parking_brakes">
    <g>
		<path
			d="M63.6,21.9A42.1,42.1,0,1,1,21.4,64,42.2,42.2,0,0,1,63.6,21.9m0-7.1A49.2,49.2,0,1,0,112.7,64,49.2,49.2,0,0,0,63.6,14.8Z" />
		<path
			d="M115.7,102.3l-5.9-4.1a56.7,56.7,0,0,0-1.2-66l5.8-4.2A63.1,63.1,0,0,1,127,66,61.9,61.9,0,0,1,115.7,102.3Z" />
		<path d="M11.4,102.3A63.8,63.8,0,0,1,12.5,28l5.8,4.2A56.1,56.1,0,0,0,7.2,66a56.8,56.8,0,0,0,10,32.2Z" />
	</g>
	  <path
		  d="M49.6,36.1a75.9,75.9,0,0,1,12.3-1c6.4,0,11.1,1.5,14,4.2a13.3,13.3,0,0,1,4.4,10.4c0,4.5-1.3,8.1-3.8,10.7s-9,5.5-15.3,5.5a20.9,20.9,0,0,1-5.2-.5v20H49.6ZM56,60.2a26.1,26.1,0,0,0,5.4.5c7.7,0,12.5-3.8,12.5-10.7s-4.7-9.8-11.8-9.8a25.9,25.9,0,0,0-6.1.6Z" />
  </g>
</svg>
