<svg xmlns="http://www.w3.org/2000/svg" viewBox="0 0 127 128">
  <title>rest_stop</title>
  <g id="rest_stop">
    <g id="Layer_36" data-name="Layer 36">
      <g id="Layer_35" data-name="Layer 35">
        <path d="M106.2,27.5H19.7a3,3,0,0,1,0-6h86.5a3,3,0,0,1,0,6Z" />
        <path d="M123.2,59h-22a3,3,0,1,1,0-6h22a3,3,0,0,1,0,6Z" />
        <path d="M25.2,59H3.2a3,3,0,0,1,0-6h22a3,3,0,1,1,0,6Z" />
        <path
            d="M29.2,106h-.8a3,3,0,0,1-2.2-2.9,2.2,2.2,0,0,1,.1-.8L34.2,73H3.2a3,3,0,0,1,0-6H35.8l7.5-29.7a3,3,0,1,1,5.8,1.4L42,67H85.1L77.3,38.8a3,3,0,0,1,2.1-3.7,3.1,3.1,0,0,1,3.7,2.1L91.4,67h31.8a3,3,0,0,1,0,6H93.1l8,29.2a3,3,0,0,1-5.8,1.6L86.7,73H40.5l-8.4,30.8A3.1,3.1,0,0,1,29.2,106Z" />
      </g>
    </g>
  </g>
</svg>
