<svg xmlns="http://www.w3.org/2000/svg" viewBox="0 0 126.97 128"><title>rest_stop</title><g id="rest_stop"><g id="Layer_36" data-name="Layer 36"><g id="Layer_35" data-name="Layer 35"><path d="M106.17,27.5H19.67a3,3,0,0,1,0-6h86.5a3,3,0,1,1,0,6Z"/><path d="M123.17,59h-22a3,3,0,0,1,0-6h22a3,3,0,1,1,0,6Z"/><path d="M25.17,59h-22a3,3,0,0,1,0-6h22a3,3,0,0,1,0,6Z"/><path d="M29.17,106a2.74,2.74,0,0,1-.79-.11A3,3,0,0,1,26.17,103a2.69,2.69,0,0,1,.11-.79l8-29.21H3.17a3,3,0,0,1,0-6H35.83l7.43-29.73a3,3,0,0,1,5.82,1.46L42,67H85.09L77.28,38.8a3,3,0,0,1,5.78-1.61L91.44,67h31.73a3,3,0,1,1,0,6H93.1l8,29.21a3,3,0,0,1-5.78,1.59L86.75,73H40.46l-8.4,30.79A3,3,0,0,1,29.17,106Z"/></g></g></g></svg>