<svg xmlns="http://www.w3.org/2000/svg" viewBox="0 0 126.97 128"><title>retarder</title><g id="retarder"><path d="M63.55,21.89A42.11,42.11,0,1,1,21.44,64,42.22,42.22,0,0,1,63.55,21.89m0-7.06A49.17,49.17,0,1,0,112.72,64,49.2,49.2,0,0,0,63.55,14.83Z"/><path d="M115.69,102.29l-5.93-4.1a56.7,56.7,0,0,0-1.13-66L114.42,28A63.23,63.23,0,0,1,127,66,61.77,61.77,0,0,1,115.69,102.29Z"/><path d="M11.41,102.29A63.55,63.55,0,0,1,12.54,28l5.8,4.24A55.69,55.69,0,0,0,7.17,66a56.78,56.78,0,0,0,10,32.21Z"/><path d="M80.24,49.31c-4.16.43-7.83,2.29-12.25,6.23-.37.33-1.47,1.39-2.43,2.34a14,14,0,0,1-1.87,1.74,13.94,13.94,0,0,1-1.9-1.76c-1-1-2.1-2.06-2.5-2.42-4.17-3.76-7.37-5.48-11.2-6a16.3,16.3,0,0,0-1.9-.06,10.52,10.52,0,0,0-2.1.11,14.85,14.85,0,0,0-6.92,3A19.6,19.6,0,0,0,34.73,55a14.14,14.14,0,0,0-2.84,6.7,9.65,9.65,0,0,0-.15,2.88c0,.2.07.63.1.94a15.65,15.65,0,0,0,1.1,4.38,13.39,13.39,0,0,0,4.85,5.9,14.87,14.87,0,0,0,13,1.47,22.43,22.43,0,0,0,7.68-4.61c1-.88,1.91-1.71,3.59-3.37a9.83,9.83,0,0,1,1.65-1.52,14,14,0,0,1,1.92,1.79,46.55,46.55,0,0,0,5.25,4.7,20.61,20.61,0,0,0,3.55,2.22,15.36,15.36,0,0,0,4.8,1.47,12.6,12.6,0,0,0,2,.09,12,12,0,0,0,3.54-.41A14.42,14.42,0,0,0,95.51,65.47c0-.34.1-.8.13-1a8.05,8.05,0,0,0,0-1.7c0-.22-.09-.7-.13-1a15.28,15.28,0,0,0-3.11-7.65,13.68,13.68,0,0,0-9.23-4.7A26.32,26.32,0,0,0,80.24,49.31ZM47.6,55.15c2.54.33,5,1.68,7.91,4.35.67.6,4.19,4,4.24,4.11a.17.17,0,0,1,0,.14c-.09.16-3.06,3.1-3.84,3.8-3.63,3.26-6.68,4.72-9.83,4.72a7.89,7.89,0,0,1-7.39-4.56,10,10,0,0,1-.89-4.4,8.93,8.93,0,0,1,1.63-4.69,10.11,10.11,0,0,1,2-2,9.48,9.48,0,0,1,3-1.36A9.27,9.27,0,0,1,47.6,55.15Zm34.74,0a7.91,7.91,0,0,1,6,3.78,9.6,9.6,0,0,1,1.22,5.6,8.69,8.69,0,0,1-5.86,7.34,7.4,7.4,0,0,1-2.76.4A7.62,7.62,0,0,1,78,71.79a18.65,18.65,0,0,1-6.56-4.35c-1.27-1.19-3.8-3.68-3.81-3.76a44.06,44.06,0,0,1,4.45-4.42c2.89-2.48,5.37-3.76,7.91-4.1A11.2,11.2,0,0,1,82.34,55.13Z"/></g></svg>