<svg xmlns="http://www.w3.org/2000/svg" viewBox="0 0 127 128">
	<title>retarder</title>
	<g id="retarder">
		<g>
			<path
				d="M63.6,21.9A42.1,42.1,0,1,1,21.4,64,42.2,42.2,0,0,1,63.6,21.9m0-7.1A49.2,49.2,0,1,0,112.7,64,49.2,49.2,0,0,0,63.6,14.8Z" />
			<path
				d="M115.7,102.3l-5.9-4.1a56.7,56.7,0,0,0-1.2-66l5.8-4.2A63.1,63.1,0,0,1,127,66,61.9,61.9,0,0,1,115.7,102.3Z" />
			<path d="M11.4,102.3A63.8,63.8,0,0,1,12.5,28l5.8,4.2A56.1,56.1,0,0,0,7.2,66a56.8,56.8,0,0,0,10,32.2Z" />
		</g>
		<path
			d="M80.2,49.3c-4.1.4-7.8,2.3-12.2,6.2l-2.4,2.4a9.5,9.5,0,0,1-1.9,1.7,9.5,9.5,0,0,1-1.9-1.7l-2.5-2.5c-4.2-3.7-7.4-5.4-11.2-6h-4a14.3,14.3,0,0,0-6.9,3,19,19,0,0,0-2.5,2.4,14.6,14.6,0,0,0-2.8,6.7,11.4,11.4,0,0,0-.2,2.9,3.1,3.1,0,0,1,.1,1,20.9,20.9,0,0,0,1.1,4.3,13.5,13.5,0,0,0,4.9,5.9,14.7,14.7,0,0,0,13,1.5,22.4,22.4,0,0,0,7.6-4.6A33.7,33.7,0,0,0,62,69.2l1.7-1.5,1.9,1.8a44.7,44.7,0,0,0,5.3,4.7,20,20,0,0,0,3.5,2.2,16.7,16.7,0,0,0,4.8,1.5h2a12.9,12.9,0,0,0,3.5-.4A14.4,14.4,0,0,0,95.5,65.5a4.5,4.5,0,0,0,.1-1.1,4.8,4.8,0,0,0,0-1.7,4.1,4.1,0,0,0-.1-1A15.9,15.9,0,0,0,92.4,54a13.8,13.8,0,0,0-9.2-4.6ZM47.6,55.1c2.5.4,5,1.7,7.9,4.4l4.3,4.1a.3.3,0,0,1-.1.2,46.2,46.2,0,0,1-3.8,3.7c-3.6,3.3-6.7,4.8-9.8,4.8a7.9,7.9,0,0,1-7.4-4.6,9.7,9.7,0,0,1-.9-4.4,9.1,9.1,0,0,1,1.6-4.7,11.9,11.9,0,0,1,2-1.9,10.3,10.3,0,0,1,3-1.4A11.3,11.3,0,0,1,47.6,55.1Zm34.7,0a8,8,0,0,1,6,3.8,10,10,0,0,1,1.2,5.6,8.4,8.4,0,0,1-5.8,7.3,6.1,6.1,0,0,1-2.8.4,6.8,6.8,0,0,1-2.9-.4,18.4,18.4,0,0,1-6.6-4.4,46.7,46.7,0,0,1-3.8-3.7,37.9,37.9,0,0,1,4.5-4.4c2.8-2.5,5.3-3.8,7.9-4.1Z" />
	</g>
</svg>
