<svg xmlns="http://www.w3.org/2000/svg" viewBox="0 0 126.97 128"><title>route</title><g id="route"><g id="Path"><path d="M17.11,121.51l-2.39-3.15C13.21,116.37,0,98.69,0,90.13a17.13,17.13,0,0,1,34.26,0c0,8.56-13.23,26.24-14.74,28.23Zm0-42.51A11.15,11.15,0,0,0,6,90.13c0,4.24,6.1,14.23,11.13,21.34,5-7.11,11.13-17.1,11.13-21.34A11.14,11.14,0,0,0,17.11,79Z"/></g><g id="Path-2" data-name="Path"><path d="M110.11,48.51l-2.39-3.15C106.21,43.37,93,25.69,93,17.13a17.13,17.13,0,0,1,34.26,0c0,8.56-13.23,26.24-14.74,28.23Zm0-42.51A11.15,11.15,0,0,0,99,17.13c0,4.24,6.1,14.23,11.13,21.34,5-7.11,11.13-17.1,11.13-21.34A11.14,11.14,0,0,0,110.11,6Z"/></g><path d="M32.48,128h-15a3,3,0,1,1,0-6h15a3,3,0,0,1,0,6Z"/><path d="M89.3,128H60.89a3,3,0,1,1,0-6H89.3a3,3,0,1,1,0,6Zm27.4-4.06a3,3,0,0,1-2-5.21c2.53-2.33,3.81-5.75,3.81-10.17A16.89,16.89,0,0,0,114.38,97a3,3,0,0,1,4.5-4,22.69,22.69,0,0,1,5.6,15.51c0,6.16-1.93,11.07-5.75,14.59A3,3,0,0,1,116.7,123.94ZM63.16,92c-.37,0-1,0-1.73-.09a3,3,0,1,1,.6-6,9.46,9.46,0,0,0,1.13.07h27a3,3,0,0,1,0,6h-27ZM47.62,71.09h-.29a3,3,0,0,1-2.7-3.27C46,52.93,57.57,49,63.48,49H67a3,3,0,0,1,0,6H63.48c-1.17,0-11.67.51-12.88,13.37A3,3,0,0,1,47.62,71.09Z"/><path d="M110.48,55h-15a3,3,0,0,1,0-6h15a3,3,0,1,1,0,6Z"/></g></svg>