<svg xmlns="http://www.w3.org/2000/svg" viewBox="0 0 126.97 128">
	<defs>
		<style>.cls-1{fill:none;stroke:#000;stroke-linecap:round;stroke-miterlimit:10;stroke-width:6px;}</style>
	</defs>
	<title>ruler</title>
	<g id="ruler">
		<g id="Path">
			<line class="cls-1" x1="3.48" y1="23.2" x2="104.28" y2="124" />
			<line class="cls-1" x1="22.68" y1="4" x2="3.48" y2="23.2" />
			<line class="cls-1" x1="39.48" y1="37.6" x2="28.68" y2="48.4" />
			<line class="cls-1" x1="73.08" y1="54.4" x2="53.88" y2="73.6" />
			<line class="cls-1" x1="89.88" y1="88" x2="79.08" y2="98.8" />
			<line class="cls-1" x1="123.48" y1="104.8" x2="104.28" y2="124" />
		</g>
		<path d="M104.28,127a3,3,0,0,1-2.12-.88L1.36,25.32A3,3,0,1,1,5.6,21.08l100.8,100.8a3,3,0,0,1-2.12,5.12Z" />
		<path d="M3.48,26.2a3,3,0,0,1-2.12-5.12l19.2-19.2A3,3,0,0,1,24.8,6.12L5.6,25.32A3,3,0,0,1,3.48,26.2Z" />
		<path d="M28.68,51.4a3,3,0,0,1-2.12-5.12l10.8-10.8a3,3,0,1,1,4.24,4.24L30.8,50.52A3,3,0,0,1,28.68,51.4Z" />
		<path d="M53.88,76.6a3,3,0,0,1-2.12-5.12L71,52.28a3,3,0,0,1,4.24,4.24L56,75.72A3,3,0,0,1,53.88,76.6Z" />
		<path d="M79.08,101.8A3,3,0,0,1,77,96.68l10.8-10.8A3,3,0,0,1,92,90.12l-10.8,10.8A3,3,0,0,1,79.08,101.8Z" />
		<path d="M104.28,127a3,3,0,0,1-2.12-5.12l19.2-19.2a3,3,0,0,1,4.24,4.24l-19.2,19.2A3,3,0,0,1,104.28,127Z" />
	</g>
</svg>