<svg xmlns="http://www.w3.org/2000/svg" viewBox="0 0 127 128">
	<title>ruler</title>
	<g id="ruler">
		<g id="Path">
			<line x1="3.5" y1="23.2" x2="104.3" y2="124" fill="none" stroke="#000" stroke-linecap="round"
				  stroke-miterlimit="10" stroke-width="6" />
			<line x1="22.7" y1="4" x2="3.5" y2="23.2" fill="none" stroke="#000" stroke-linecap="round"
				  stroke-miterlimit="10" stroke-width="6" />
			<line x1="39.5" y1="37.6" x2="28.7" y2="48.4" fill="none" stroke="#000" stroke-linecap="round"
				  stroke-miterlimit="10" stroke-width="6" />
			<line x1="73.1" y1="54.4" x2="53.9" y2="73.6" fill="none" stroke="#000" stroke-linecap="round"
				  stroke-miterlimit="10" stroke-width="6" />
			<line x1="89.9" y1="88" x2="79.1" y2="98.8" fill="none" stroke="#000" stroke-linecap="round"
				  stroke-miterlimit="10" stroke-width="6" />
			<line x1="123.5" y1="104.8" x2="104.3" y2="124" fill="none" stroke="#000" stroke-linecap="round"
				  stroke-miterlimit="10" stroke-width="6" />
		</g>
		<g>
			<path
				d="M104.3,127a2.7,2.7,0,0,1-2.1-.9L1.4,25.3a2.9,2.9,0,0,1,0-4.2,2.9,2.9,0,0,1,4.2,0L106.4,121.9a3,3,0,0,1-2.1,5.1Z" />
			<path
				d="M3.5,26.2a2.7,2.7,0,0,1-2.1-.9,2.9,2.9,0,0,1,0-4.2L20.6,1.9a2.9,2.9,0,0,1,4.2,0,2.9,2.9,0,0,1,0,4.2L5.6,25.3A2.9,2.9,0,0,1,3.5,26.2Z" />
			<path
				d="M28.7,51.4a2.7,2.7,0,0,1-2.1-.9,2.9,2.9,0,0,1,0-4.2L37.4,35.5a3,3,0,0,1,4.2,4.2L30.8,50.5A2.9,2.9,0,0,1,28.7,51.4Z" />
			<path
				d="M53.9,76.6a2.7,2.7,0,0,1-2.1-.9,2.9,2.9,0,0,1,0-4.2L71,52.3a3,3,0,0,1,4.2,4.2L56,75.7A2.9,2.9,0,0,1,53.9,76.6Z" />
			<path
				d="M79.1,101.8a2.7,2.7,0,0,1-2.1-.9,2.9,2.9,0,0,1,0-4.2L87.8,85.9A3,3,0,1,1,92,90.1L81.2,100.9A2.9,2.9,0,0,1,79.1,101.8Z" />
			<path
				d="M104.3,127a2.7,2.7,0,0,1-2.1-.9,2.9,2.9,0,0,1,0-4.2l19.2-19.2a3,3,0,0,1,4.2,4.2l-19.2,19.2A2.9,2.9,0,0,1,104.3,127Z" />
		</g>
	</g>
</svg>
