<svg xmlns="http://www.w3.org/2000/svg" viewBox="0 0 500 500"><defs><style>.cls-1{fill:#231f20;}</style></defs><title>scania-ad-blue-low_yellow</title><g id="ad-blue-low_yellow"><path d="M273.4,149.09V308.6h15.7v22.45h-203V308.6h18.43V19.54A19.45,19.45,0,0,1,124,.07H254A19.45,19.45,0,0,1,273.4,19.54V122.73h3c31.82,0,42.45,22.7,42.45,40.91s0,62.74,0,80.42,11.39,31,29.6,31,30.89-16.85,28.09-33.69-11.61-57.4-13.94-97.59C361.43,125.24,361,106,349.8,77.15c-14.62-37.61-49.1-47.34-55.32-52.4V0c34.23,6.18,90.8,44.68,106.46,97.3l-18,9.84c2.84,46.55,6.14,76,14.48,119.86,9.41,49.38-19.4,69.82-47.66,70.68-32.33,1-55.07-21.59-55.07-53V167.44C294.73,150,285.18,149.09,273.4,149.09ZM249.3,24.17H128.62v98H249.3Z"/><path class="cls-1" d="M34.73,463.26,23.2,498.2H8.37L46.12,387.11H63.43L101.32,498.2H86L74.13,463.26Zm36.42-11.21-11-32c-2.29-7.25-3.95-13.86-5.6-20.29H54c-1.47,6.43-3.31,13.36-5.42,20.12L37.71,452.05H71.15"/><path class="cls-1" d="M184.07,381.19v96.4c0,7.07.15,15.15.65,20.61h-13l-.65-13.86h-.36c-4.45,8.91-14,15.66-27,15.66-19.28,0-34.3-16.31-34.3-40.55-.14-26.69,16.49-42.85,35.78-42.85,12.35,0,20.61,5.78,24.06,12h.32V381.19ZM169.56,450.9a26.8,26.8,0,0,0-.64-6.28A21.37,21.37,0,0,0,148,428c-15,0-23.92,13.18-23.92,30.63,0,16.35,8.08,29.67,23.59,29.67,9.74,0,18.61-6.57,21.27-17.27a25.42,25.42,0,0,0,.64-6.29V450.9"/><path class="cls-1" d="M208.64,388.77c6.25-1.51,16.31-2.48,26.19-2.48,14.36,0,23.59,2.48,30.34,8.08,5.79,4.27,9.38,10.88,9.38,19.61,0,10.88-7.26,20.26-18.79,24.39v.5c10.56,2.48,22.92,11.21,22.92,27.69a29.48,29.48,0,0,1-9.55,22.23c-7.58,7.12-20.12,10.38-38.26,10.38a161.92,161.92,0,0,1-22.23-1.33ZM223,434.24h13c15,0,23.93-8.09,23.93-18.79,0-12.86-9.74-18.14-24.25-18.14a60.6,60.6,0,0,0-12.68,1Zm0,53.08a77.38,77.38,0,0,0,12,.65c14.84,0,28.52-5.43,28.52-21.59,0-15-13-21.44-28.69-21.44H223v42.38"/><path class="cls-1" d="M297.61,498.2h14.51v-117H297.61Z"/><path class="cls-1" d="M403,476.44c0,8.22.18,15.48.65,21.76H390.74l-.79-13h-.36A29.75,29.75,0,0,1,363.23,500c-12.54,0-27.51-7.08-27.51-34.95V418.43h14.51v44C350.23,477.59,355,488,368,488c9.73,0,16.48-6.75,19.14-13.36a20.55,20.55,0,0,0,1.29-7.4V418.43H403v58"/><path class="cls-1" d="M435.24,460.78c.36,19.61,12.72,27.69,27.23,27.69,10.38,0,16.81-1.83,22-4l2.66,10.2c-5.1,2.33-14,5.14-26.69,5.14-24.42,0-39.26-16.35-39.26-40.23,0-24.24,14.37-43.17,37.61-43.17,26,0,32.79,22.88,32.79,37.57a38.41,38.41,0,0,1-.5,6.93Zm42.38-10.38c.15-9-3.8-23.56-19.93-23.56-14.83,0-21.12,13.5-22.27,23.56h42.2"/></g></svg>