<svg xmlns="http://www.w3.org/2000/svg" viewBox="0 0 500 500"><title>scania-next-gen-vehicle-information</title><g id="next-gen-vehicle-information"><path d="M369.88.08H123.27C100,.08,97.91,25.44,97.91,25.44V91.78H395.24V25.44S393.22.08,369.88.08"/><path d="M82.38,118.7v75.62s-28.34,1.93-31-.78c-5.06-5.29-9.42-6.48-9.42-18.93V121.78s1-10.34,10.34-10.34h30v7.26"/><path d="M394.69,373.81v3.95a14.88,14.88,0,0,1-14.88,14.89H366.39a14.88,14.88,0,0,1-14.88-14.89v-3.95a14.88,14.88,0,0,1,14.88-14.88h13.42A14.88,14.88,0,0,1,394.69,373.81Zm-52.6-85.08a14.92,14.92,0,0,1-14.93,14.88H170.68a14.9,14.9,0,0,1-14.88-14.88v-1.29a14.91,14.91,0,0,1,14.88-14.93H327.16a14.93,14.93,0,0,1,14.93,14.93Zm-7.81,62a13.68,13.68,0,0,1-13.64,13.64H177.25a13.64,13.64,0,0,1-13.64-13.64v-1.19a13.65,13.65,0,0,1,13.64-13.65H320.64a13.68,13.68,0,0,1,13.64,13.65Zm-13,55.91a11.58,11.58,0,0,1-11.53,11.58H188.23a11.59,11.59,0,0,1-11.58-11.58v-1a11.55,11.55,0,0,1,11.58-11.53H309.7a11.53,11.53,0,0,1,11.53,11.53Zm-173.52-28.9a14.88,14.88,0,0,1-14.88,14.89H119.41a14.88,14.88,0,0,1-14.88-14.89v-3.95a14.88,14.88,0,0,1,14.88-14.88h13.42a14.88,14.88,0,0,1,14.88,14.88ZM404.8,267.18V230c0-14.84-3.35-22.93-8.78-21.55s-20.9,3.35-33.72,6c-11.16,2.34-86.46,2.66-106,2.71-22.74,0-110.31-.37-121.43-2.71-12.81-2.67-28.34-4.69-33.72-6S92.4,215.18,92.4,230v37.16c0,6.71,11.44,12.13,11.44,21.55s5.42,35.1,0,40.52S93,344.78,93,353.55v89.73c0,4.68,27,10.1,56.69,9.41,17.87-.36,55.68-.32,83-.18v.18l15.85-.09,15.85.09v-.18c27.38-.14,65.14-.18,83,.18,29.68.69,56.7-4.73,56.7-9.41V353.55c0-8.77-5.42-18.93-10.8-24.3s0-31.06,0-40.52,11.44-14.84,11.44-21.55"/><path d="M97.13,453.75V485A14.85,14.85,0,0,0,112,499.92h18.11A14.88,14.88,0,0,0,145,485V460.18c-13.78-.18-33.81-1.33-37.76-2.34a65,65,0,0,1-10.11-4.09"/><path d="M417.62,118.7v75.62s28.34,1.93,30.92-.78c5-5.29,9.46-6.48,9.46-18.93V121.78s-1.06-10.34-10.34-10.34h-30v7.26"/><path d="M402.87,453.75V485A14.88,14.88,0,0,1,388,499.92H369.84A14.88,14.88,0,0,1,355,485V460.18c13.79-.18,33.82-1.33,37.77-2.34a65.49,65.49,0,0,0,10.15-4.09"/></g></svg>