<svg xmlns="http://www.w3.org/2000/svg" viewBox="0 0 500 500"><title>scania-warning_red</title><g id="warning_red"><path d="M441.22,66.57H58.75A58.8,58.8,0,0,0,0,125.32V374.71a58.78,58.78,0,0,0,58.75,58.72H441.22A58.82,58.82,0,0,0,500,374.71V125.32A58.85,58.85,0,0,0,441.22,66.57ZM402.06,376.19a13,13,0,0,1-11.31,6.54H111.24A13,13,0,0,1,100,376.19a13.17,13.17,0,0,1,0-13L239.69,121.08a13,13,0,0,1,22.61,0L402.06,363.16a13.12,13.12,0,0,1,0,13"/><path d="M251,153.73c-17.4,30.17-99.67,172.69-117.07,202.89h234.2C350.71,326.42,268.41,183.9,251,153.73ZM238.3,214.24a12.73,12.73,0,0,1,25.45,0v79.85a12.73,12.73,0,0,1-25.45,0ZM251,342.89a13.8,13.8,0,1,1,13.82-13.77A13.74,13.74,0,0,1,251,342.89"/></g></svg>