<svg xmlns="http://www.w3.org/2000/svg" viewBox="0 0 500 500"><title>scania-warning_yellow</title><g id="warning_yellow"><path d="M58.75,66.57A58.78,58.78,0,0,0,0,125.32V374.71a58.78,58.78,0,0,0,58.75,58.72H441.22A58.8,58.8,0,0,0,500,374.71V125.32a58.81,58.81,0,0,0-58.78-58.75ZM23.49,374.71V125.32A35.29,35.29,0,0,1,58.75,90.06H441.22a35.29,35.29,0,0,1,35.26,35.26V374.71a35.28,35.28,0,0,1-35.26,35.23H58.75a35.28,35.28,0,0,1-35.26-35.23"/><path d="M402.06,363.11l-139.79-242a13,13,0,0,0-22.58,0l-139.76,242a13.05,13.05,0,0,0,11.31,19.59H390.75a13.05,13.05,0,0,0,11.31-19.59Zm-268.18-6.49c17.43-30.2,99.7-172.72,117.1-202.89,17.4,30.17,99.7,172.69,117.13,202.89H133.88"/><path d="M251,342.89a13.8,13.8,0,1,0-13.74-13.79A13.77,13.77,0,0,0,251,342.89"/><path d="M263.75,214.24a12.73,12.73,0,0,0-25.45,0v79.85a12.73,12.73,0,0,0,25.45,0V214.24"/></g></svg>