<svg xmlns="http://www.w3.org/2000/svg" viewBox="0 0 500 500"><title>scania-next-gen-settings</title><g id="next-gen-settings"><path d="M457.48,431.43l-15.12,15.12c-3.5,3.54-11.4,1.33-17.56-4.82L254.87,271.79c-6.21-6.16-8.32-14-4.83-17.55l15.12-15.08c3.54-3.53,11.35-1.37,17.51,4.83l170,169.89C458.81,420.08,461,427.94,457.48,431.43Zm38.18-28.07L287.22,195c-7.58-7.59-22.34-5.06-33.09,5.6l-45.95,46.05c-10.71,10.71-13.28,25.46-5.65,33.08L410.92,488.05c7.54,7.58,22.34,5.05,33.05-5.65l46-46c10.71-10.66,13.24-25.46,5.7-33"/><path d="M7.31,455.6l33.55,33.6c7.81,7.76,18.61,9.6,24.13,4.09l152-152c5.51-5.51,3.68-16.31-4.14-24.12l-33.54-33.6c-7.81-7.76-18.61-9.6-24.13-4l-152,152C-2.34,437-.5,447.84,7.31,455.6"/><path d="M425.35,156.08l-40.16-14.71-4-50.91L444.1,32.28a106.85,106.85,0,1,0,44.21,86.35c0-1.15-.28-2.21-.32-3.36l-62.64,40.81"/><path d="M222,199,206,214.72c-3.68,3.67-12,1.42-18.43-5.06L13.38,24.42c-3.77-3.77-5.05-8.54-2.94-10.66l9.24-9.24c2.16-2.06,7-.82,10.75,3L216.86,180.57c6.53,6.48,8.78,14.71,5.1,18.38"/></g></svg>