<svg xmlns="http://www.w3.org/2000/svg" viewBox="0 0 500 500"><title>scania-menu-vehicle-info</title><g id="menu-vehicle-info"><path d="M186.3,410.79a41.84,41.84,0,1,1,41.81-41.86A41.93,41.93,0,0,1,186.3,410.79Zm0-108.18a66.42,66.42,0,1,0,66.46,66.32,66.3,66.3,0,0,0-66.46-66.32"/><path d="M428.9,410.79a41.84,41.84,0,1,1,41.81-41.86A41.94,41.94,0,0,1,428.9,410.79Zm0-108.18a66.42,66.42,0,1,0,66.37,66.32,66.29,66.29,0,0,0-66.37-66.32"/><path d="M163.76,191.81s-115.91,22.59-137,26.62L40.12,114.8h143.7C183.26,147.71,176.55,189.28,163.76,191.81ZM240.3,87.67C240,64.56,200.83,64.56,175,64.56c-86.57,0-138.12,10.08-153.45,30-5.63,7.45-4.22,13.78-3.94,14.9a7.38,7.38,0,0,0,7.08,5.34h.7L11.62,221.48a10.13,10.13,0,0,0,0,2.06A22.11,22.11,0,0,0,2.9,236.29C-5,266.05,5.62,384.59,6.09,389.65a7.25,7.25,0,0,0,7.26,6.61H84.46A7.2,7.2,0,0,0,91.72,389c0-.61.89-59.39,40.64-90.88,38.76-30.79,103.58-20.58,104.23-20.48a7.65,7.65,0,0,0,6-1.6,8,8,0,0,0,2.53-5.76L240.3,87.67"/><path d="M140.65,277.58H500V259.49H242.69l-102,18.09"/></g></svg>