<svg xmlns="http://www.w3.org/2000/svg" viewBox="0 0 500 500"><title>scania-menu-arrow</title><g id="menu-arrow"><path d="M418.94,192.25c18.71,18.69,48.89,48.81,57.8,57.73-8.91,8.91-39.09,39.07-57.8,57.81Zm-13.32-32.18a9.62,9.62,0,0,0-6,8.93V331a9.66,9.66,0,0,0,16.46,6.82l81.06-81a9.69,9.69,0,0,0,0-13.67l-81.06-81a9.64,9.64,0,0,0-10.5-2.08"/><path d="M81.06,307.75C62.35,289.06,32.17,258.94,23.26,250c8.91-8.91,39.09-39.07,57.8-57.81Zm13.32,32.18a9.62,9.62,0,0,0,6-8.93V169a9.66,9.66,0,0,0-16.46-6.82l-81.06,81a9.69,9.69,0,0,0,0,13.67l81.06,81a9.64,9.64,0,0,0,10.5,2.08"/><path d="M307.75,418.94c-18.69,18.71-48.81,48.89-57.73,57.8-8.91-8.91-39.07-39.09-57.81-57.8Zm32.18-13.32a9.62,9.62,0,0,0-8.93-6H169a9.66,9.66,0,0,0-6.82,16.46l81,81.06a9.69,9.69,0,0,0,13.67,0l81-81.06a9.64,9.64,0,0,0,2.08-10.5"/><path d="M192.25,81.06c18.69-18.71,48.81-48.89,57.73-57.8,8.91,8.91,39.07,39.09,57.81,57.8ZM160.07,94.38a9.62,9.62,0,0,0,8.93,6H331a9.66,9.66,0,0,0,6.82-16.46l-81-81.06a9.69,9.69,0,0,0-13.67,0l-81,81.06a9.64,9.64,0,0,0-2.08,10.5"/></g></svg>