<svg xmlns="http://www.w3.org/2000/svg" viewBox="0 0 500 500"><title>scania-all-wheel-drive-fault_yellow</title><g id="all-wheel-drive-fault_yellow"><path d="M334.36,156.73l12,6.82a16.85,16.85,0,0,0,23-6.33l62.34-109.6a16.86,16.86,0,0,0-6.33-22.94l-12-6.82a16.82,16.82,0,0,0-22.94,6.3l-24.48,43h-63.4a56,56,0,0,0-106.75,0H152.49l20.34-35a16.82,16.82,0,0,0-6.11-23L154.77,2.27a16.81,16.81,0,0,0-23,6.11l-63.32,109a16.81,16.81,0,0,0,6,23l12,6.91a16.83,16.83,0,0,0,23-6.11l24.64-42.48h60.94a56.07,56.07,0,0,0,39.42,39.42h0V364.55h0a56.07,56.07,0,0,0-40.61,40.06h-55V357.06a16.85,16.85,0,0,0-16.79-16.86H108.37a16.84,16.84,0,0,0-16.86,16.86V483.17A16.81,16.81,0,0,0,108.37,500h13.77a16.82,16.82,0,0,0,16.79-16.83V436.65h56v0a56,56,0,0,0,106.2,0h60.5v46.52A16.8,16.8,0,0,0,378.47,500h13.8a16.84,16.84,0,0,0,16.83-16.83V357.06a16.87,16.87,0,0,0-16.83-16.86h-13.8a16.83,16.83,0,0,0-16.82,16.86V404.6H302.2a56.09,56.09,0,0,0-35.42-38.49V137.24h0a56.11,56.11,0,0,0,36.4-38.52H348l-19.94,35A16.81,16.81,0,0,0,334.36,156.73ZM193.21,81.49c0,.86-.06,1.72-.06,2.59s0,1.69.06,2.53c0-.84-.06-1.68-.06-2.53S193.17,82.35,193.21,81.49Zm2.18-13.08c-.11.37-.22.74-.32,1.11C195.17,69.15,195.28,68.78,195.39,68.41Zm-.63,2.35c-.1.41-.2.82-.29,1.24C194.56,71.58,194.66,71.17,194.76,70.76Zm-.54,2.38c-.15.76-.29,1.52-.4,2.28C193.93,74.66,194.07,73.9,194.22,73.14Zm-.51,3c-.08.59-.16,1.19-.23,1.79C193.55,77.38,193.63,76.78,193.71,76.19Zm-.32,2.71c0,.59-.1,1.18-.13,1.77C193.29,80.08,193.34,79.49,193.39,78.9Zm1.16,17.63.15.66Zm-1.3-9.21c0,.74.09,1.49.16,2.22C193.34,88.81,193.29,88.06,193.25,87.32Zm.26,3.08c.06.54.13,1.07.2,1.6C193.64,91.47,193.57,90.93,193.51,90.4Zm.38,2.76c.06.37.13.74.19,1.1C194,93.9,194,93.53,193.89,93.16Zm-1.76,323.19c0,.85-.07,1.69-.07,2.55s0,1.75.07,2.61c0-.86-.07-1.74-.07-2.61S192.09,417.2,192.13,416.35Zm1.54-10.75c-.11.45-.22.91-.32,1.37C193.45,406.51,193.56,406.05,193.67,405.6Zm-.53,2.34c-.14.7-.26,1.4-.37,2.11C192.88,409.34,193,408.64,193.14,407.94Zm-.5,2.94c-.08.62-.16,1.24-.23,1.86C192.48,412.12,192.56,411.5,192.64,410.88Zm-.3,2.43c-.08.8-.13,1.61-.18,2.41C192.21,414.92,192.26,414.11,192.34,413.31Zm1.94,21.17,0,.09Zm-2.09-12q0,.79.12,1.59Q192.24,423.27,192.19,422.47Zm.24,2.79c0,.41.11.82.16,1.23C192.53,426.08,192.48,425.67,192.43,425.26Zm.36,2.64.12.64ZM304,421.51c0-.86.07-1.74.07-2.61s0-1.7-.06-2.55c0,.85.06,1.69.06,2.55S304,420.65,304,421.51Zm-2.16,13v0Zm1.39-6c0-.2.08-.41.11-.62C303.28,428.11,303.24,428.32,303.2,428.52Zm.31-2c.06-.4.11-.81.16-1.22C303.62,425.67,303.57,426.08,303.51,426.48Zm.28-2.42c0-.53.09-1.06.13-1.59C303.88,423,303.84,423.53,303.79,424.06Zm-1-17.09c-.09-.46-.2-.92-.31-1.38C302.55,406.05,302.65,406.51,302.75,407Zm1.2,8.75c-.05-.8-.11-1.61-.19-2.41C303.84,414.11,303.9,414.92,304,415.72Zm-.25-3q-.1-.93-.24-1.86Q303.6,411.81,303.7,412.74Zm-.36-2.69c-.11-.71-.24-1.41-.38-2.11C303.1,408.64,303.22,409.34,303.34,410.05ZM246.62,140c.84,0,1.68.07,2.53.07s1.74,0,2.61-.07c-.87,0-1.74.07-2.61.07S247.46,140.06,246.62,140ZM250.71,363c-.88,0-1.78-.07-2.67-.07C248.93,362.89,249.83,362.92,250.71,363Zm-12.56.82-.57.11ZM236,138.53l.66.15Zm2.93.62,1.1.19Zm2.27.37,1.58.2C242.29,139.66,241.76,139.6,241.24,139.52Zm2.46.3c.73.07,1.47.12,2.21.17C245.17,139.94,244.43,139.89,243.7,139.82ZM244.8,363l-.86.07Zm-3.28.29-.82.11ZM278,418.9A29.9,29.9,0,1,1,248,389,29.92,29.92,0,0,1,278,418.9Zm-18.12-54.75.76.17ZM251.67,363l1.66.13Zm2.86.26,1.35.17Zm2.69.38,1.12.2Zm7.36-225.75.16,0ZM252.7,140l1.59-.12Zm2.78-.24,1.24-.16Zm2.63-.36.6-.11Zm-9-25.36A29.9,29.9,0,1,1,279,84.08,29.93,29.93,0,0,1,249.15,114Zm53.73-45.58c.11.36.21.73.31,1.1C303.09,69.15,303,68.78,302.88,68.42Zm2.18,18.19c0-.84.06-1.68.06-2.53s0-1.73-.07-2.59c0,.86.07,1.72.07,2.59S305.09,85.77,305.06,86.61Zm-1.5,10.57c.06-.21.11-.43.15-.65C303.67,96.75,303.62,97,303.56,97.18Zm.62-2.92c.07-.36.14-.73.2-1.1C304.32,93.53,304.25,93.9,304.18,94.26Zm.37-2.26c.08-.53.15-1.06.21-1.6C304.7,90.93,304.63,91.47,304.55,92Zm.3-2.46c.07-.73.13-1.48.17-2.22C305,88.06,304.92,88.81,304.85,89.54Zm-1.34-18.78c.1.41.19.82.28,1.23C303.7,71.58,303.61,71.17,303.51,70.76Zm.53,2.38c.15.76.29,1.52.41,2.28C304.33,74.66,304.19,73.9,304,73.14Zm.51,3c.09.59.17,1.19.23,1.79C304.72,77.38,304.64,76.78,304.55,76.19Zm.32,2.71c.06.59.1,1.18.14,1.77C305,80.08,304.93,79.49,304.87,78.9Z"/></g></svg>