<svg xmlns="http://www.w3.org/2000/svg" viewBox="0 0 500 500"><defs><style>.cls-1{fill:#7f7f7f;}</style></defs><title>scania-menu-weight-truck</title><g id="menu-weight-truck"><path class="cls-1" d="M120,294.52a15.82,15.82,0,1,1,15.79-15.82A15.86,15.86,0,0,1,120,294.52Zm0-40.91A25.12,25.12,0,1,0,145.1,278.7,25.08,25.08,0,0,0,120,253.61"/><path class="cls-1" d="M235.4,294.52a15.82,15.82,0,1,1,15.79-15.82A15.87,15.87,0,0,1,235.4,294.52Zm0-40.91a25.12,25.12,0,1,0,25.12,25.09,25.09,25.09,0,0,0-25.12-25.09"/><path class="cls-1" d="M423.67,294.52a15.82,15.82,0,1,1,15.82-15.82A15.85,15.85,0,0,1,423.67,294.52Zm0-40.91a25.12,25.12,0,1,0,25.12,25.09,25.09,25.09,0,0,0-25.12-25.09"/><path d="M111.42,211.73s-43.81,8.53-51.79,10.06l5.06-39.18H119C118.8,195.05,116.27,210.75,111.42,211.73Zm29-39.42c-.12-8.72-14.91-8.72-24.69-8.72-32.74,0-52.25,3.81-58,11.34a6.87,6.87,0,0,0-1.5,5.64,2.81,2.81,0,0,0,2.68,2h.28L53.9,223a2.2,2.2,0,0,0,0,.76,8.35,8.35,0,0,0-3.33,4.84c-3,11.25,1,56.06,1.19,58A2.77,2.77,0,0,0,54.57,289H81.45a2.72,2.72,0,0,0,2.75-2.71c0-.24.33-22.46,15.36-34.38,14.66-11.65,39.17-7.78,39.42-7.75a2.85,2.85,0,0,0,2.25-.61,2.94,2.94,0,0,0,1-2.19l-1.83-69.08"/><path d="M102.73,244.16H262.29V237.3h-121l-38.56,6.86"/><path d="M150.44,148.53h296.7v94.53H281.25l-13.9-16.58H150l.4-77.95"/><path d="M0,310.59H500V306H0Z"/><path d="M231.47,350.7h3.47V318.3h-3.47Z"/><path d="M200.22,351.47h65.6v-5.4h-65.6Z"/><path d="M420.89,350.7h3.48V318.3h-3.48Z"/><path d="M389.65,351.47h65.6v-5.4h-65.6Z"/><path d="M118.47,350.7h3.47V318.3h-3.47Z"/><path d="M87.22,351.47h65.6v-5.4H87.22Z"/></g></svg>