<svg xmlns="http://www.w3.org/2000/svg" viewBox="0 0 500 500"><title>scania-average-vehicle-speed_white</title><g id="average-vehicle-speed_white"><path d="M0,281.91C0,141.82,112.16,27.78,250,27.78s250,114,250,254.13a256,256,0,0,1-84.61,190.31c-2.53-2.53-46.95-47.6-50.7-51.45,2.25-2.34,19.49-19.86,21.84-22.2,2.43,2.53,28.39,29,28.39,29l1.5-1.78a222.74,222.74,0,0,0,51.35-126.12l.28-2.16H427.57V266.26h40.48l-.28-2.16A222.45,222.45,0,0,0,416.32,138l-1.4-1.69s-26,26.52-28.49,29c-2.34-2.25-19.58-19.78-21.92-22.12,2.62-2.53,28.67-29,28.67-29l-1.69-1.4A214.87,214.87,0,0,0,267.43,60.39l-2.16-.19v41.23H234.45V60.2l-2.07.19a215.63,215.63,0,0,0-124.06,52.38l-1.59,1.5L218.42,227.84l1.31-.75A60.53,60.53,0,0,1,250,219c34.11,0,61.84,28.21,61.84,62.88s-27.73,63-61.84,63-61.94-28.2-61.94-63a64.72,64.72,0,0,1,7.87-30.55l.75-1.31L85,136.38,83.68,138A221.89,221.89,0,0,0,32.14,264.2L32,266.44H72.43v31.3H32l.28,2.06A221.7,221.7,0,0,0,83.68,425.93l1.4,1.78s26.05-26.52,28.49-29c2.25,2.34,19.49,19.77,21.83,22.11C132.68,423.4,94,462.94,94,462.94s-6.55,6.37-9.37,9.28A256.21,256.21,0,0,1,0,281.91"/></g></svg>