<svg xmlns="http://www.w3.org/2000/svg" viewBox="0 0 500 500"><title>scania-differential-lock_yellow</title><g id="differential-lock_yellow"><path d="M168,225.89l-9.41-.27h-84V150.76a26.55,26.55,0,0,0-26.48-26.52H26.48A26.49,26.49,0,0,0,0,150.76V349.24a26.47,26.47,0,0,0,26.48,26.52h21.7a26.52,26.52,0,0,0,26.48-26.52V276.05h84.07l10,.12s22-22,24.77-24.81L168,225.89"/><path d="M330.38,276.33l18.62-.28h76.3v73.19a26.44,26.44,0,0,0,26.48,26.52h21.66A26.54,26.54,0,0,0,500,349.24V150.76a26.56,26.56,0,0,0-26.56-26.52H451.78a26.47,26.47,0,0,0-26.48,26.52v74.86H349.16l-18,.08-25.67,25.66,24.93,25"/><path d="M311.17,170.4C285.43,196.06,249.49,232,249.49,232s-32.47-32.47-57.74-57.7c-13.73-13.81-25.47-25.47-28.47-28.55l-19.36,19.37c3.23,3.19,15.32,15.36,29.28,29.32l52.11,52,4.82,4.86s-31.27,31.27-56.31,56.35l-29.9,29.9c5.36,5.37,14,14,19.36,19.33,3.08-3.07,15.13-15.09,29.21-29.21,25.2-25.16,57-57,57-57s35.08,35,60.67,60.66c12.44,12.48,22.71,22.75,25.55,25.55,5.4-5.37,14-14,19.36-19.33-2.8-2.76-12.75-12.79-25-25-25.67-25.63-61.25-61.25-61.25-61.25l62.1-62.1c11.82-11.82,21.39-21.39,24.15-24.11-5.41-5.37-14-14-19.4-19.37-2.73,2.8-12.56,12.56-24.54,24.62"/></g></svg>