<svg xmlns="http://www.w3.org/2000/svg" viewBox="0 0 500 500"><title>scania-main-beam_blue</title><g id="main-beam_blue"><path d="M187,109.48H.06v27.78l177,0L187,109.48"/><path d="M163.35,200.42q1.85-14.05,4.69-27.78H0v27.78H163.35"/><path d="M160.43,263.64c-.18-4.71-.24-9.45-.24-14.2,0-4.53.09-9.1.24-13.57H0v27.77H160.43"/><path d="M163.38,299.06q1.85,14.1,4.69,27.78H0V299.06H163.38"/><path d="M187.25,390c-3.7-9-7-18.35-9.9-27.78H0v27.84L187.25,390"/><path d="M287.06,94.86a25.33,25.33,0,0,1,3.7.06c54.45,3.13,108.63,13.66,149.9,48.72A247.79,247.79,0,0,1,462,163.9c19.18,20.95,36.67,52.39,37.89,81.84,1.88,43.47-26.28,85.16-59.79,112.43-38.85,31.53-91.6,44.18-141.58,46.72-1.67.09-2.05.12-3.67.15-16.82.33-42.3.33-57.64-2.83-4-.81-6.33-1.62-9.25-3.67a23.82,23.82,0,0,1-5.25-5.26c-1.31-1.85-5.64-12.44-7.1-17.3-12.53-42.4-19-80.59-19.13-125.17v-3.67c0-7.84.18-15.72.63-23.42,2.54-42,8.26-61.58,19.1-99.32,1.64-5.52,3.58-12,5.28-15.43,6.41-12.92,19-12.17,35.5-13.42,1.58-.09,2-.15,3.64-.18l26.41-.51m-16.29,32.37c-1.61,0-2,0-3.61.09-5.52.3-14.86.75-16.62,1.43a4,4,0,0,0-2.12,1.5c-.93,1.19-6,17.3-7.22,22.94-4.39,20.53-8.27,32.55-10.09,51.2-.15,1.64-.18,2-.29,3.61l-2.57,32.13v15.76c0,1.64,0,2,.12,3.64,1.79,24.79,2.33,39.23,6.17,58.83.78,3.88,9.73,45.21,13.28,50.61a4,4,0,0,0,1.52,1.52c1.11.63,8.75,1.43,13.13,1.91a29.64,29.64,0,0,0,3.58.27l12.5.44c1.64.09,2,.09,3.67.09,6-.06,12.12-.26,18.11-.59,51.05-3,90.62-13.67,127.53-46.61,13-11.57,28.22-31.06,35.17-47.47,14.12-33.15,1.11-63.61-22.91-91.6a134.09,134.09,0,0,0-10.53-11.18c-30.41-28.41-66.48-40.67-108.52-45.89-1.64-.18-2-.24-3.61-.36l-28.88-2.27H270.77"/></g></svg>