<svg xmlns="http://www.w3.org/2000/svg" viewBox="0 0 500 500"><title>scania-oil-pressure_red_yellow</title><g id="oil-pressure_red_yellow"><path d="M18.61,157.23a4,4,0,0,1,5.27-2.78l95.4,34.7a6.73,6.73,0,0,1,4.13,5.89v13a4.4,4.4,0,0,0,4.41,4.38h48.9A4.38,4.38,0,0,0,181.1,208V189.15a4.4,4.4,0,0,0-4.38-4.41h-19.9a4.35,4.35,0,0,1-4.38-4.38V165a4.39,4.39,0,0,1,4.38-4.41h74.84A4.4,4.4,0,0,1,236,165v14.68a4.41,4.41,0,0,1-4.38,4.41H209.4a4.41,4.41,0,0,0-4.43,4.38v18.89a4.42,4.42,0,0,0,4.43,4.38h51.66a12.07,12.07,0,0,1,7.47,3.12L282.42,229a8.08,8.08,0,0,0,7.3,1.91L471,177.36a8.48,8.48,0,0,1,7.41,1.82l17.13,16.37a5,5,0,0,1,.48,6.51l-11.85,15.16a3.79,3.79,0,0,1-5.81.39l-9.72-9.71a8.54,8.54,0,0,0-7.35-2l-21.2,5.39a16.26,16.26,0,0,0-7.05,4.49L328.72,342.41a10.71,10.71,0,0,1-7.19,3.39H102.94a4.39,4.39,0,0,1-4.38-4.4V272.08a6.84,6.84,0,0,0-4.18-5.9L3.17,232.92a4.87,4.87,0,0,1-3-5.76Zm10,52.3a5.35,5.35,0,0,0,3.26,6.37l65.44,24c2.5.92,4.57-.48,4.57-3.2V213.54a7.39,7.39,0,0,0-4.57-6.48L40.11,186.79a4.46,4.46,0,0,0-5.89,3.06Zm94.05,104.89a4.59,4.59,0,0,0,4.55,4.57H313.59a11.57,11.57,0,0,0,7.6-3.42L406.12,220c1.66-1.89,1.07-2.81-1.32-2L286.61,257.56a8.34,8.34,0,0,1-7.64-1.65l-20-19a13.2,13.2,0,0,0-7.83-3.11H127.23a4.57,4.57,0,0,0-4.55,4.55v76.11"/><path d="M481.13,319.05c-9.68,0-18.83-6.57-18.83-22.63,0-8.82,8.9-21.31,12.46-36.27,3.31-14.07,6-23.16,6-23.16s2.81,8.11,6.88,23.16C491.63,275,500,287.6,500,296.42c0,16.09-9.15,22.63-18.87,22.63"/></g></svg>