<svg xmlns="http://www.w3.org/2000/svg" viewBox="0 0 500 500"><title>scania-fuel_yellow</title><g id="fuel_yellow"><path d="M295,225.25V465.49h23.64V499.3H12.9V465.49H40.65V30.13A29.3,29.3,0,0,1,69.92.81H265.74A29.3,29.3,0,0,1,295,30.13V185.55h4.43c47.93,0,63.94,34.18,63.94,61.61s-.05,94.5-.05,121.12,17.15,46.63,44.57,46.63,46.52-25.37,42.3-50.74-17.47-86.45-21-147c-1.63-27.86-2.28-56.8-19.15-100.29-22-56.64-73.95-71.3-83.31-78.92V.7C378.31,10,463.51,68,487.1,147.25l-27.05,14.82c4.27,70.11,9.25,114.52,21.8,180.51C496,417,452.64,447.74,410.07,449c-48.69,1.52-82.93-32.51-82.93-79.79V252.89C327.14,226.66,312.75,225.25,295,225.25ZM258.71,37.11H77V184.68H258.71Z"/></g></svg>