<svg xmlns="http://www.w3.org/2000/svg" viewBox="0 0 500 500"><title>scania-next-gen-esp</title><g id="next-gen-esp_yellow"><path d="M191.52,320.18H140.33L166,337.72c3.07,2.38,11.08,7.36,15.69,11.78s7.58,10.05,7.58,14.47-1,7.77-3.16,9.77A42.78,42.78,0,0,1,173.51,381c-5.67,1.91-13.77,4.94-22.38,7.59-9.77,3-39.74,12.94-64.27,22.52-18.61,7.26-20.66,8-30.3,13.87-4.14,2.52-9.72,7.59-9.72,18.62,0,11.63,5.63,16.38,10.38,20.48a65.49,65.49,0,0,0,7,5.25l46.63,28.9,52.77-.32c-4.19-3-24.71-17.36-28.9-20.9-3.07-2.37-10.52-6.93-15.08-11.4s-7.58-10-7.58-14.52c0-4.37.93-7.68,3.16-9.73a42.6,42.6,0,0,1,12.61-7.21c5.68-1.91,13.87-4.75,22.39-7.58,9.68-3.22,39.7-13,64.27-22.53,18.61-7.26,20.66-8.05,30.25-13.87,4.19-2.51,9.77-7.58,9.77-18.61,0-11.64-5.68-16.38-10.33-20.48-8.8-7.59-36.58-21.59-42.91-24.71l-9.73-6.19"/><path d="M390.15,320.18H339l25.69,17.54c3,2.38,11.07,7.36,15.68,11.78s7.54,10.05,7.54,14.47-.89,7.77-3.12,9.77A42.86,42.86,0,0,1,372.14,381c-5.68,1.91-13.78,4.94-22.34,7.59-9.82,3-39.79,12.94-64.36,22.52-18.57,7.26-20.62,8-30.25,13.87-4.14,2.52-9.77,7.59-9.77,18.62,0,11.63,5.67,16.38,10.42,20.48a77.59,77.59,0,0,0,6.93,5.25l46.68,28.9,52.73-.32c-4.14-3-24.67-17.36-28.85-20.9-3.08-2.37-10.52-6.93-15.08-11.4s-7.59-10-7.59-14.52c0-4.37.93-7.68,3.17-9.73a42.48,42.48,0,0,1,12.61-7.21c5.68-1.91,13.87-4.75,22.38-7.58,9.68-3.22,39.75-13,64.27-22.53,18.57-7.26,20.67-8.05,30.25-13.87,4.19-2.51,9.82-7.58,9.82-18.61,0-11.64-5.72-16.38-10.42-20.48-8.71-7.59-36.53-21.59-42.86-24.71l-9.73-6.19"/><path d="M254.07,1.77c-35.46,0-91.82,2.56-98.47,9.4-4.19,4.32-6.42,11.58-8,23.22v.14h0c-.05.46-.1.88-.14,1.35-1.35,10.1-1.35,10.1-1,7.3.23-1.86.7-5,.93-6.93-1.49,15-2.93,27-4.33,40.63-1.44,14.15-2.88,30-4.14,52.91q0,29.75.09,59.11c.1,19.49.1,39,.1,58.31a6.38,6.38,0,0,0-.1,1v1.07a18.08,18.08,0,0,0,2,8.7,22.29,22.29,0,0,0,6.7,7.4,17.42,17.42,0,0,0,4.23,1.95v31.46a6.59,6.59,0,0,0,6.61,6.56h27.37a6.47,6.47,0,0,0,6.51-6.56l0-28.48c11.35,0,38.44,0,64.73,0h15.13c26.29,0,53.33,0,64.73,0l.05,28.48a6.48,6.48,0,0,0,6.51,6.56h27.37a6.59,6.59,0,0,0,6.61-6.56V267.31a18.16,18.16,0,0,0,4.23-1.95,22.29,22.29,0,0,0,6.7-7.4,18.67,18.67,0,0,0,2-8.7v-1.07a6.43,6.43,0,0,0-.14-1c0-19.32,0-38.82.14-58.31s.09-39.28.09-59.11c-1.25-22.89-2.7-38.76-4.14-52.91-1.44-13.59-2.89-25.6-4.33-40.63.23,2,.65,5.07.93,6.93.33,2.8.37,2.8-1-7.3,0-.47,0-.89-.09-1.35h-.05v-.14c-1.58-11.64-3.86-18.9-8-23.22-6.7-6.84-63.05-9.4-98.42-9.4H254.07"/></g></svg>