<svg xmlns="http://www.w3.org/2000/svg" viewBox="0 0 500 500"><title>scania-menu-settings</title><g id="menu-settings"><path d="M425.6,429.26c10.16-7.91,21.77-35.54,9.58-48.23S327.07,275.31,314,260.91s-41.39-7.11-41.39-7.11L147.06,126.89s1.53-16.33-7.15-22.23S74,63.59,74,63.59L54.65,83.2s36.09,56.69,42.07,65.24,22.36,6.88,22.36,6.88L247.89,279s-6.93,28.3,7.69,41.21,109,107.34,121.92,119.31,40.4,0,48.1-10.26"/><path d="M414.39,103.85s-60.06,21.46-66.94,24.84-2.57,20.65,2.56,30.95,20.61,18,20.61,18l67.89-23.21s6.84,14.62,6.84,25.82-9.45,50.61-42.07,66.05S344,261.81,344,261.81s-21.51-24.92-30.1-28.34-21.41-2.57-28.3,0H280.5l-30.05-26.59s16.29-15.48,16.29-36.94-.41-71.76,24.88-95.33c37-34.33,101.31-21.42,122.77,29.24"/><path d="M222.11,284.22l-22.68-18.36L92.54,378.34a37.75,37.75,0,1,0,54.75,52L237.9,335.1c-23.22-18.94-15.79-50.88-15.79-50.88"/></g></svg>