<svg xmlns="http://www.w3.org/2000/svg" viewBox="0 0 500 500"><title>scania-downhill-spee-control_yellow_white</title><g id="downhill-spee-control_yellow_white"><path d="M36.53,197.81l107.16-40.75L113.34,78.11S51.93,101.33,49.12,102.6s-5.53,3.36-5.83,8.93C43,116.84,36.53,197.81,36.53,197.81ZM16.64,215.49a45.65,45.65,0,0,1-2.28-16.41s7.36-90.35,8.3-99.32c1-9.91,7.4-14.21,13.87-16.52,6.09-2.25,81.63-31,81.63-31A8.52,8.52,0,0,1,129,57.14l48.48,127.4a8.45,8.45,0,0,1-4.86,11l-32.33,12.56c-26.88,10.2-57.9,45.08-42.61,85.15,2,5.34-1.24,9.53-5.65,11.18L63.7,315.25a8.63,8.63,0,0,1-11-4.93L16.64,215.49"/><path d="M364.16,231.33a28.9,28.9,0,1,0-37.27-16.78A28.94,28.94,0,0,0,364.16,231.33ZM307.49,222a49.68,49.68,0,1,1,64.07,28.75A49.72,49.72,0,0,1,307.49,222"/><path d="M176.1,302.92a28.9,28.9,0,1,0-37.26-16.75A28.89,28.89,0,0,0,176.1,302.92Zm-56.63-9.35a49.64,49.64,0,1,1,64.07,28.71,49.68,49.68,0,0,1-64.07-28.71"/><path d="M190.87,164.76,381,92.39l7.92,20.86L198.83,185.58l-8-20.82"/><path d="M466.69,279.67c.08,31.51.34,111.5.42,134.42l-359.9,1.15C214.34,374.84,434.21,292,466.69,279.67Zm10.55-39L10.62,416.59a16.4,16.4,0,0,0,5.83,31.74l467.18-1.5A16.39,16.39,0,0,0,500,430.38L499.44,256a16.35,16.35,0,0,0-22.2-15.29"/></g></svg>