<svg xmlns="http://www.w3.org/2000/svg" viewBox="0 0 500 500"><title>scania-next-gen-media</title><g id="next-gen-media"><path d="M275.69,336.63c0-.32-.05-.55-.05-.88v-9.88h-.55c-1.56-19.07-7-30.56-12.59-37.91l.05-.09-.51-.51c-4.37-5.51-8.69-8.78-11.12-11.35l-.09.14-97-97,52-52H0V333l65.58-65.63,85.8,85.8V497.43H275.64V336.63h.05"/><path d="M490,311.17V89.48l.92-.14V2.57L226.1,54V234.83l30.75,20.82V134.88L459.33,95.5V288.65a95.74,95.74,0,0,0-35.25-6.76c-42,0-75.92,25.46-75.92,56.94s34,56.9,75.92,56.9S500,370.27,500,338.83c0-10.11-3.81-19.44-10-27.66"/></g></svg>