<svg xmlns="http://www.w3.org/2000/svg" viewBox="0 0 500 500"><defs><style>.cls-1{stroke:#fff;stroke-width:0.37px;}</style></defs><title>scania-driver-card-tachograph_white</title><g id="driver-card-tachograph_white"><path d="M225.66,17.75A36.72,36.72,0,0,0,189,54.35v391.3a36.64,36.64,0,0,0,36.71,36.6H463.12a36.64,36.64,0,0,0,36.72-36.6V54.35a36.72,36.72,0,0,0-36.72-36.6Zm-6.39,427.9V54.35a6.34,6.34,0,0,1,6.39-6.28H463.12a6.34,6.34,0,0,1,6.4,6.28v391.3a6.34,6.34,0,0,1-6.4,6.28H225.66a6.34,6.34,0,0,1-6.39-6.28"/><path d="M332.49,229.39h66.56V166H332.49Z"/><path d="M429.13,139,338.89,75.66,248.52,139H429.13"/><path class="cls-1" d="M4,406.45H47.54V196.59L.16,209.85V176.22L47.06,163H73.59v243.5h43.59v31.27H4Z"/></g></svg>