<svg xmlns="http://www.w3.org/2000/svg" viewBox="0 0 500 500"><title>scania-cruise_control_white</title><g id="cruise_control_white"><path d="M50.58,303c0-126,100.89-228.58,224.87-228.58S500.33,177,500.33,303a230.25,230.25,0,0,1-76.11,171.19c-2.27-2.27-42.23-42.82-45.6-46.27,2-2.11,17.53-17.87,19.64-20C400.45,410.19,423.8,434,423.8,434l1.35-1.6A200.35,200.35,0,0,0,471.34,319l.25-1.94H435.18V288.9h36.41l-.25-1.94a200.12,200.12,0,0,0-46.27-113.45L423.8,172s-23.35,23.86-25.62,26c-2.11-2-17.62-17.79-19.73-19.9,2.36-2.27,25.8-26.12,25.8-26.12l-1.52-1.27a193.26,193.26,0,0,0-111.6-47l-1.94-.17v37.09H261.46V103.55l-1.85.17A193.89,193.89,0,0,0,148,150.84l-1.43,1.34L247.05,254.34l1.18-.67a54.34,54.34,0,0,1,27.22-7.25c30.69,0,55.63,25.37,55.63,56.55s-24.94,56.65-55.63,56.65S219.74,334.25,219.74,303a58.22,58.22,0,0,1,7.08-27.47l.68-1.18L127,172.08l-1.18,1.43A199.61,199.61,0,0,0,79.49,287l-.17,2h36.41v28.15H79.32l.25,1.85a199.39,199.39,0,0,0,46.27,113.45l1.27,1.61s23.43-23.86,25.62-26.13c2,2.1,17.53,17.78,19.64,19.89-2.44,2.36-37.25,37.93-37.25,37.93s-5.9,5.73-8.43,8.34A230.41,230.41,0,0,1,50.58,303"/><path d="M19.64,25.84c2.45,2.36,50.91,51.75,50.91,51.75L92,55.76c.09,7.25,1.35,61.19,1.35,64.4-3.2,0-57.48.16-64.73.16,4.55-4.63,21.91-22.42,21.91-22.42S1.94,48.59-.33,46.15c2-2.11,17.86-18.21,20-20.31"/></g></svg>