<svg xmlns="http://www.w3.org/2000/svg" viewBox="0 0 500 500"><title>scania-next-gen-instantaneous-data</title><g id="next-gen-instantaneous-data"><path d="M401.34,456.58H102.89a232.74,232.74,0,0,1-63.51-81.11l41.08-17.32-6.71-15.86L32.9,359.53a233.36,233.36,0,0,1-15.12-73.48H32V268.77H17.65A232,232,0,0,1,35.43,186l30.79,14.52,7.35-15.62L42.92,170.48A234.12,234.12,0,0,1,151,65.85L165.2,99.44l15.9-6.66L166.85,59.05A231.13,231.13,0,0,1,241,43.88v14h17.27v-14a230.41,230.41,0,0,1,83.18,18.38L328.14,90.57l15.58,7.35L357,69.75A234.16,234.16,0,0,1,461.12,178.8L434.75,190l6.71,15.86,26.28-11.08a231.2,231.2,0,0,1,14.61,74H470.22v17.28h11.95a240.68,240.68,0,0,1-18.24,82.76l-27.71-13.05-7.35,15.62,27.89,13.1C443,412,424.46,436.72,401.34,456.58ZM250,26.19c-137.86,0-250,112.17-250,250A248.76,248.76,0,0,0,94.48,471.92l2.34,1.89H407.64l2.39-2c56.33-47,90-120.08,90-195.62,0-137.81-112.17-250-250-250"/><path d="M232,229.34a50.53,50.53,0,1,0,57,15.44L301.76,85.65,232,229.34"/></g></svg>