<svg xmlns="http://www.w3.org/2000/svg" viewBox="0 0 500 500"><title>scania-parking-break_red</title><g id="parking-break_red"><path d="M397.93,408.47A216,216,0,0,0,399,92.58L421.59,69a249.46,249.46,0,0,1-.85,364l-22.81-24.47"/><path d="M102,408.47A216,216,0,0,1,101,92.58L78.41,69a249.46,249.46,0,0,0,.85,364L102,408.47"/><path d="M66.69,250a183.3,183.3,0,1,1,366.59,0c0,101.2-82.07,183.24-183.29,183.24S66.69,351.24,66.69,250ZM250,409.66A159.61,159.61,0,0,0,409.6,250c0-88.15-71.46-159.67-159.61-159.67a159.65,159.65,0,1,0,0,319.29"/><path d="M200.58,142.51h85.89c39,0,39,30.49,39,52.43v30.17c0,37.36-4,52.75-45.89,52.75h-36v96.36h-43Zm43,102.24h20.59c16.09,0,19.35-2.94,19.35-20.66V200.52c0-15.74,0-23.59-19-23.59H243.56v67.82"/></g></svg>