<svg xmlns="http://www.w3.org/2000/svg" viewBox="0 0 500 500"><title>scania-menu-instantaneous-data</title><g id="menu-instantaneous-data"><path d="M500,217.7A285.78,285.78,0,0,0,445.28,147l-29.36,31.45a244,244,0,0,1,46.28,59.85L500,217.7"/><path d="M359.93,90.7a286.66,286.66,0,0,1,75.4,46l-27.9,32.82a243.27,243.27,0,0,0-64-39l16.48-39.8"/><path d="M0,217.51a287.55,287.55,0,0,1,54.33-70.33l29.51,31.46a242.52,242.52,0,0,0-46.19,59.84L0,217.51"/><path d="M65.84,136.94a286.19,286.19,0,0,1,75.74-46.28l16.58,39.74a244.37,244.37,0,0,0-64.32,39.26l-28-32.72"/><path d="M156.55,85A287.55,287.55,0,0,1,243.66,69.2l1.17,43.06a242.67,242.67,0,0,0-73.94,13.32L156.55,85"/><path d="M257.75,69.2a283.73,283.73,0,0,1,86.77,15.65l-14.34,40.63a240.11,240.11,0,0,0-73.6-13.22l1.17-43.06"/><path d="M335.11,132.74l-.35-.09c-5.12,0-17.36,1.51-21.31,9.56L266.73,265.65c-10.24-2-21.46,6.14-27.12,12.77s-40.92,52.68-52.67,76.72,7.46,60,36.48,71.84c29.85,11.36,67.84-3.8,75-29.6S309.6,313.73,309.74,305s-2.78-22.24-11.8-27.51L344.66,154C347.1,145.43,338.91,136.16,335.11,132.74ZM251.56,379.18a169,169,0,0,1-4.78,16.29c-1.56,4-6.49,9-13.9,6.54-7.17-3.07-7.56-10.05-6-14.1S232,376.65,234,372.55s7.37-8.44,12.44-6.39C251.66,368,252.78,374.84,251.56,379.18Zm75.35-208.59c-.92,2.59-54.62,155.19-57.55,161.53s-12.14,5.71-12.14,5.71-7.37-5.71-5.32-12.29,62.92-156.61,64-159.14,2.78-5,7.41-3c4.78,1.51,4.54,4.59,3.61,7.17"/></g></svg>