<svg xmlns="http://www.w3.org/2000/svg" viewBox="0 0 500 500"><title>scania-trailer-tag-axle-raised_yellow</title><g id="trailer-tag-axle-raised_yellow"><path d="M500,72.75H79.44l.38,102.16H.32L0,199.54H79.9v.11H320.76a78.79,78.79,0,0,1,154.12,0H500V72.75"/><path d="M174.45,275.89a59,59,0,1,1,59,59A59,59,0,0,1,174.45,275.89Zm59,34.35a34.33,34.33,0,1,0-34.34-34.35,34.34,34.34,0,0,0,34.34,34.35"/><path d="M388.81,427.25h33.42V351.67h35.24l-52.65-52.51-50.26,52.51h34.25v75.58"/><path d="M397.81,157.15a59,59,0,1,0,59,59A59,59,0,0,0,397.81,157.15Zm0,93.31a34.33,34.33,0,1,1,34.34-34.34,34.31,34.31,0,0,1-34.34,34.34"/></g></svg>