<svg xmlns="http://www.w3.org/2000/svg" viewBox="0 0 500 500"><title>scania-engine-failure_yellow</title><g id="engine-failure_yellow"><path d="M71.37,323.37A13.75,13.75,0,0,0,85.22,337.1l23.64.06a34.68,34.68,0,0,1,24.3,9.89l46,45.29a13.74,13.74,0,0,0,9.67,4l177.75,0a14.07,14.07,0,0,0,14-14V343h62.9v39.9H468.4l10.67-42.27V238L468.4,195.75H443.51v39.94h-62.9V195.86H356.47c-19.14,0-34.67-19.36-34.67-38.54A13.8,13.8,0,0,0,308,143.47H143.69a14,14,0,0,0-13.35,10.34A34.84,34.84,0,0,1,97,178.67H85.22a13.84,13.84,0,0,0-13.85,13.79ZM118.53,362a13.89,13.89,0,0,0-9.67-3.95H85.22a34.61,34.61,0,0,1-34.69-34.64l0-64.94H22.71v80.63L7.52,332.17v-79.7L0,244.66v-70L22.71,153v84.44H50.53v-45a34.7,34.7,0,0,1,34.69-34.72l11.82,0a13.71,13.71,0,0,0,13.43-10.39,34.7,34.7,0,0,1,33.22-24.72H183.1V103.76H133.72V82.91H304.39v20.85H255.28v18.81H308a34.68,34.68,0,0,1,34.67,34.75c0,7.64,6.16,17.64,13.82,17.64h44.82v40h21.43V175h61.37L500,238V340.62l-15.91,63H422.72v-40H401.29v18.82a34.6,34.6,0,0,1-34.7,34.61l-177.64,0a34.63,34.63,0,0,1-24.55-10.14l-45.87-45"/></g></svg>