<svg xmlns="http://www.w3.org/2000/svg" viewBox="0 0 500 500"><title>scania-tractor-tag-axle-raised_yellow</title><g id="tractor-tag-axle-raised_yellow"><path d="M125.6,263.32a59.19,59.19,0,1,1,59.21,59.19A59.18,59.18,0,0,1,125.6,263.32Zm59.21,34.45a34.44,34.44,0,1,0-34.48-34.45,34.46,34.46,0,0,0,34.48,34.45"/><path d="M340.7,415.16h33.5V339.31h35.37l-52.82-52.65-50.42,52.65H340.7v75.85"/><path d="M349.73,144.2a59.17,59.17,0,1,0,59.15,59.16A59.18,59.18,0,0,0,349.73,144.2Zm0,93.61a34.44,34.44,0,1,1,34.45-34.45,34.4,34.4,0,0,1-34.45,34.45"/><path d="M0,119.32H500V84.84H0Z"/></g></svg>