<svg xmlns="http://www.w3.org/2000/svg" viewBox="0 0 500 500"><title>scania-total-distance-driven_white</title><g id="total-distance-driven_white"><path d="M415.3,402.46a37.59,37.59,0,1,0-37.55-37.63A37.62,37.62,0,0,0,415.3,402.46Zm-64.44-37.63a64.49,64.49,0,1,1,64.53,64.53,64.49,64.49,0,0,1-64.53-64.53"/><path d="M153.72,402.46a37.59,37.59,0,1,0-37.55-37.63A37.62,37.62,0,0,0,153.72,402.46ZM89.19,364.83a64.58,64.58,0,1,1,64.53,64.53,64.55,64.55,0,0,1-64.53-64.53"/><path d="M235.43,270.32H500V241.37H235.43Z"/><path d="M32.31,209.89l149.14.1L181,100s-85.36-.19-89.28.09-8.31,1.49-11.3,8.13C77.51,114.55,32.31,209.89,32.31,209.89ZM.09,222.13a59.37,59.37,0,0,1,4.67-20.92S55.57,94.75,60.8,84.38C66.59,72.8,76.39,70.47,85.36,70.65c8.4.1,113.37.1,113.37.1a11,11,0,0,1,11,11V258.92a11.07,11.07,0,0,1-11,11.12l-45,.18c-37.27,0-91.15,28.11-91.15,83.87,0,7.37-5.88,11-12,11H11A11.12,11.12,0,0,1,0,354L.09,222.13"/></g></svg>