<svg xmlns="http://www.w3.org/2000/svg" viewBox="0 0 500 500"><title>scania-break-pressure_red_yellow</title><g id="break-pressure_red_yellow"><path d="M398,408.45A216.1,216.1,0,0,0,399,92.54l22.55-23.6a249.5,249.5,0,0,1-.81,364L398,408.45"/><path d="M102,408.45a216.07,216.07,0,0,1-1-315.91L78.42,68.94a249.47,249.47,0,0,0,.84,364L102,408.45"/><path d="M66.66,250C66.66,148.76,148.77,66.7,250,66.7A183.31,183.31,0,0,1,433.31,250c0,101.23-82.08,183.29-183.31,183.29S66.66,351.24,66.66,250ZM250,409.64A159.66,159.66,0,1,0,90.35,250,159.63,159.63,0,0,0,250,409.64"/><path d="M245.37,388.52a26.21,26.21,0,1,0-26.18-26.22A26.23,26.23,0,0,0,245.37,388.52ZM269.52,144.1a24.17,24.17,0,0,0-48.33,0V295.73a24.17,24.17,0,1,0,48.33,0V144.1"/></g></svg>