<svg xmlns="http://www.w3.org/2000/svg" viewBox="0 0 500 500"><defs><style>.cls-1{fill:#131210;}</style></defs><title>scania-next-gen-standard-mode_white</title><g id="next-gen-standard-mode_white"><path class="cls-1" d="M0,435.16H500V392.91H0Z"/><path class="cls-1" d="M172.94,349.59a31,31,0,1,1,31.08-31A31,31,0,0,1,172.94,349.59Zm.06-83.31a52.32,52.32,0,1,0,52.41,52.29A52.37,52.37,0,0,0,173,266.28"/><path class="cls-1" d="M398.29,349.59a31,31,0,1,1,31.08-31A31,31,0,0,1,398.29,349.59Zm0-83.31a52.32,52.32,0,1,0,52.41,52.29,52.37,52.37,0,0,0-52.41-52.29"/><path class="cls-1" d="M247.34,246.21H443.77V224.75H247.34Z"/><path class="cls-1" d="M215.07,159c-.06,12.43-6,17.57-16.49,20.44-8.55,2.33-92,15.23-123.88,20.13a14.33,14.33,0,0,1,.36-2.21c7.59-29,17.86-67.35,24.5-86.65C105.29,98.3,110.85,89.88,128.24,88h69.44c12.61,0,17.33,3,17.39,12.31Zm10.34-94.12H134c-30.84,0-46.73,14.16-55.76,36.27-7.11,17.75-23.6,82.53-25.15,87.43C50,198.7,49.3,211.13,49.3,220.39v90.95c0,22.59,6.28,32.93,29.64,32.93H100V321.44c0-23.78,8.3-42.85,22.23-55.45,16.13-14.47,38.48-19.78,66.87-19.78H237.6V77.57c0-7.11-4.54-12.73-12.19-12.73"/></g></svg>