<svg xmlns="http://www.w3.org/2000/svg" viewBox="0 0 500 500"><title>scania-rotating-beacon_blue</title><g id="rotating-beacon_blue"><path d="M361.2,429.4V221.12C348.43,54.29,117.11,79.38,133.72,244.56V429.4H107.43v26.34H387.48V429.4Zm-34.12,0H171.42V221.12l1.2-13.71,4.24-14.87s7.63-16.65,11.57-20c.8-.64,17.26-15.91,17.26-15.91l18.1-9.07,21.9-4.14,25.78,3.14s21.1,10,21.5,10.17,17.55,16.41,17.55,16.41l11.72,21,4.84,27Z"/><path d="M395.36,236.23,500,267l-10.82,33.16-93.82-26.28V236.23"/><path d="M383,165.61,387.13,176l3.19,10.23,3.15,14.11s94-24.24,94-25.23-3.84-16-3.84-16L479,144.46l-2-5.53-94.82,25.78.9.9"/><path d="M330.22,101.92l11.23,8.88,7.18,6.58,9.18,9.73L437.86,71.7l-8.48-10.13L418.75,50.25l-6.18-6-82.35,57.66"/><path d="M104.64,236.23,0,267l10.82,33.16,93.82-26.28V236.23"/><path d="M117,165.61,112.87,176l-3.19,10.23-3.15,14.11s-94-24.24-94-25.23,3.89-16,3.89-16l4.64-14.72,2-5.53,94.82,25.78-.9.9"/><path d="M169.78,101.92,158.5,110.8l-7.18,6.58-9.13,9.73-80-55.41,8.43-10.13L81.25,50.25l6.23-6,45.84,32.12,36.46,25.54"/></g></svg>