<svg xmlns="http://www.w3.org/2000/svg" viewBox="0 0 500 500"><title>scania-driver-safty-belt_red</title><g id="driver-safty-belt_red"><path d="M156.86,333.69s34.52-16.75,93.11-16.75a316.2,316.2,0,0,1,119.92,24,303.33,303.33,0,0,0,2.48-37.55c0-54.39-33.49-145.4-33.49-145.4L320,148.05,154.76,316.94l2.1,16.75"/><path d="M136.67,368c15.48,72.82,51.58,125.67,51.58,125.67l46,6.29s-20.77-40.37-29.57-61.37-15.4-47.42-15.4-47.42,24.07-14.65,59.62-14.65a186.92,186.92,0,0,1,63.81,11.52s-8.08,31.22-17.7,52.71-27.23,57.11-27.23,57.11l47-5.22s35.35-53.4,50.65-125.88c-29.78-14-68-25.79-112.37-25.79-45.24,0-85.16,12.41-116.42,27"/><path d="M273,123.44V108.79S297,91,297,56.49,271.94,0,248.9,0s-46,28.26-46,57.56S228,108.79,228,108.79l1.07,14.65L159,155.86s-29.29,109.82-29.29,148.53c0,.73,0,1.45,0,2.14L293.8,134.37,273,123.44"/><path d="M383.06,83.55a9.09,9.09,0,0,0,1.24-4.23c.14-2.4-2.82-4.78-2.82-4.78L370.17,64.3s-2.37-2.34-4.81-2.58-5,2.75-5,2.75l-66.6,69.9L320,148.05l63.09-64.5"/><path d="M51,389.11s-3,2.86-3.27,5.23,2.44,4.4,2.44,4.4l10.25,10.83s2.2,2.44,4.54,2.86,3.3-1.1,6-3.41a318.65,318.65,0,0,1,65.77-41,303.64,303.64,0,0,1-7-61.51L51,389.11"/><path d="M439.79,407.68,450,395.82s2.58-1.86,2.31-4.3-.45-2.23-4.47-5.47c-11.49-9.24-38.69-29.08-77.92-45.14q-1.75,13.3-4.43,25.89A283.14,283.14,0,0,1,429.38,408c3.78,3.23,4.09,3.54,6.12,3.34s4.29-3.65,4.29-3.65"/></g></svg>