<svg xmlns="http://www.w3.org/2000/svg" viewBox="0 0 127 128">
	<title>water_temperature</title>
	<g id="water_temperature">
		<g>
			<path
				d="M79.8,94.6A16.9,16.9,0,0,0,65.8,74V2.9A2.4,2.4,0,0,0,62.9.5a2.5,2.5,0,0,0-2,2.5V26.6h-21a2.4,2.4,0,0,0-2.4,2.8,2.5,2.5,0,0,0,2.5,2H60.9V42.8h-12a2.4,2.4,0,0,0-2.4,2.9,2.3,2.3,0,0,0,2.4,2h12v9.8h-21a2.4,2.4,0,0,0-2.4,2.8A2.6,2.6,0,0,0,40,62.4H60.9V73.8a16.9,16.9,0,1,0,10.3,31.7A16,16,0,0,0,79.8,94.6Zm-4.6-4.4a11.7,11.7,0,0,1-11.8,11.9A11.9,11.9,0,1,1,75.2,90.2Z" />
			<path
				d="M4.4,117.7a2.5,2.5,0,0,0,.4,3.4,2.7,2.7,0,0,0,1.6.6,2.2,2.2,0,0,0,1.8-.8c.2,0,4-4.8,9.4-5,3.4-.2,6.6,1.6,9.8,5,.6.6,5.6,6.4,12.8,6.6h.4c4.6,0,9-2.2,13-6.6h0c.2,0,4-4.8,9.4-5,3.4-.2,6.6,1.6,9.8,5,.6.6,5.6,6.4,12.8,6.6H86c4.6,0,9-2.2,13-6.6h0c.2,0,4-4.8,9.4-5,3.4,0,6.6,1.8,9.8,5.2a2.6,2.6,0,0,0,3.5.2,2.5,2.5,0,0,0,.2-3.4c-4.3-4.6-8.9-6.8-13.7-6.6-7.2.2-12.2,5.8-12.8,6.6-3.2,3.4-6.4,5.2-9.8,5-5.4-.2-9.4-5-9.4-5h0c-4.2-4.6-8.6-6.8-13.4-6.6-7.2.2-12.2,5.8-12.8,6.6-3.2,3.4-6.4,5.2-9.8,5-5.4-.2-9.4-5-9.4-5h0c-4.2-4.6-8.6-6.8-13.4-6.6C10,111.5,4.8,117.9,4.4,117.7Z" />
			<path
				d="M31,97.8h0c-4.2-4.7-8.8-6.9-13.6-6.7-7.6.2-12.8,6.7-13,6.9a2.5,2.5,0,0,0,.4,3.4,2.7,2.7,0,0,0,1.6.6,2.2,2.2,0,0,0,1.8-.8c.2,0,4-4.8,9.4-5,3.4-.2,6.6,1.6,9.8,5,.6.8,5.8,6.8,13.2,6.8h.3a2.6,2.6,0,0,0,2.5-2.1,2.3,2.3,0,0,0-2.4-2.7C35.4,103.4,31.2,98.2,31,97.8Z" />
			<path
				d="M122.4,98.2c-.2-.2-5.5-6.7-13.3-6.9-4.8-.2-9.5,2-13.8,6.7h0s-4.3,5.1-9.8,5.1h-.2a2.4,2.4,0,0,0-2.4,2.4,2.5,2.5,0,0,0,2.4,2.5h.4c7.6,0,12.9-6.1,13.5-7,3.2-3.4,6.5-5.3,9.9-5,5.5.2,9.6,5,9.6,5a2.6,2.6,0,0,0,1.8.9,2.2,2.2,0,0,0,1.7-.7A1.8,1.8,0,0,0,122.4,98.2Z" />
		</g>
	</g>
</svg>
