<svg xmlns="http://www.w3.org/2000/svg" viewBox="0 0 126.97 128"><title>water_temperature</title><g id="water_temperature"><path d="M79.81,94.58A16.91,16.91,0,0,0,65.79,74v-71A2.38,2.38,0,0,0,62.93.53a2.43,2.43,0,0,0-2,2.45V26.55h-21a2.38,2.38,0,0,0-2.41,2.86,2.44,2.44,0,0,0,2.45,2H60.91V42.83h-12a2.38,2.38,0,0,0-2.41,2.86,2.42,2.42,0,0,0,2.45,2h12v9.77h-21a2.38,2.38,0,0,0-2.41,2.86,2.43,2.43,0,0,0,2.45,2H60.91v11.4a16.91,16.91,0,1,0,10.32,31.69A16.09,16.09,0,0,0,79.81,94.58Zm-4.6-4.33A11.71,11.71,0,0,1,63.4,102.06,11.81,11.81,0,1,1,75.21,90.25Z"/><path d="M4.35,117.69a2.5,2.5,0,0,0,.4,3.4,2.61,2.61,0,0,0,1.6.61,2.16,2.16,0,0,0,1.81-.81c.2,0,4-4.8,9.4-5,3.41-.2,6.61,1.6,9.81,5,.6.61,5.61,6.41,12.81,6.61h.4c4.61,0,9-2.2,13-6.61h0c.2,0,4-4.8,9.41-5,3.4-.2,6.61,1.6,9.81,5,.6.61,5.6,6.41,12.81,6.61H86c4.6,0,9-2.2,13-6.61h0c.2,0,4-4.8,9.41-5,3.4,0,6.6,1.8,9.81,5.2a2.41,2.41,0,0,0,3.6-3.2c-4.2-4.6-8.81-6.8-13.61-6.6-7.21.2-12.21,5.8-12.81,6.6-3.2,3.4-6.41,5.21-9.81,5-5.4-.2-9.41-5-9.41-5h0c-4.2-4.6-8.6-6.8-13.41-6.6-7.2.2-12.21,5.8-12.81,6.6-3.2,3.4-6.4,5.21-9.81,5-5.4-.2-9.41-5-9.41-5h0c-4.2-4.6-8.6-6.8-13.41-6.6C10,111.49,4.75,117.89,4.35,117.69Z"/><path d="M31,97.75h0c-4.21-4.6-8.81-6.8-13.62-6.6-7.6.2-12.81,6.6-13,6.8a2.51,2.51,0,0,0,.4,3.41,2.66,2.66,0,0,0,1.6.6,2.18,2.18,0,0,0,1.81-.8c.2,0,4-4.81,9.4-5,3.41-.2,6.61,1.6,9.81,5,.6.8,5.81,6.8,13.21,6.8h.33a2.42,2.42,0,0,0,2.45-2A2.34,2.34,0,0,0,41,103.16C35.38,103.36,31.18,98.15,31,97.75Z"/><path d="M122.37,98.19c-.21-.2-5.5-6.71-13.23-6.92-4.89-.2-9.57,2-13.84,6.72h0s-4.28,5.09-9.77,5.09h-.2a2.44,2.44,0,1,0,0,4.88h.4c7.53,0,12.83-6.1,13.44-6.92,3.25-3.46,6.51-5.29,10-5.09,5.49.21,9.56,5.09,9.56,5.09a2.59,2.59,0,0,0,1.84.82,2.31,2.31,0,0,0,1.62-.61A1.82,1.82,0,0,0,122.37,98.19Z"/></g></svg>