<svg xmlns="http://www.w3.org/2000/svg" viewBox="0 0 126.97 128"><title>zoom_in</title><g id="zoom_in"><g id="Layer_48" data-name="Layer 48"><path d="M46.55,6A40.55,40.55,0,1,1,6,46.55,40.6,40.6,0,0,1,46.55,6m0-6A46.55,46.55,0,1,0,93.1,46.55,46.55,46.55,0,0,0,46.55,0Z"/><path d="M124.1,128a3,3,0,0,1-2.12-.88l-47-47a3,3,0,1,1,4.24-4.24l47,47A3,3,0,0,1,124.1,128Z"/><path d="M63.48,50h-32a3,3,0,0,1,0-6h32a3,3,0,1,1,0,6Z"/><path d="M47.48,66a3,3,0,0,1-3-3V31a3,3,0,1,1,6,0V63A3,3,0,0,1,47.48,66Z"/></g></g></svg>