<svg xmlns="http://www.w3.org/2000/svg" data-name="Layer 1" viewBox="0 0 100 125" x="0px" y="0px"><title>Noun_Project_10Icon_10px_grid</title><path d="M49.91,6.1A44.45,44.45,0,1,0,94.36,50.55,44.46,44.46,0,0,0,49.91,6.1Zm0,84.27A39.82,39.82,0,1,1,89.73,50.55,39.88,39.88,0,0,1,49.91,90.37Z"/><path d="M52.13,48.7V36a13.71,13.71,0,0,1,6.57,3,1.83,1.83,0,1,0,2.5-2.69,16.69,16.69,0,0,0-9.08-4.07V28.88a1.85,1.85,0,0,0-3.7,0v3.33c-6.3.65-10.74,4.82-10.74,10.28,0,6.11,7,8.06,10.74,9V65.55c-2.87-.65-6.85-2.32-8.43-3.8a1.83,1.83,0,0,0-2.59,2.59c2.22,2.22,7.41,4.35,11,4.91v3.06a1.85,1.85,0,0,0,3.7,0v-3c4.72-.56,10.74-3.33,10.74-9.63C63,54.81,59.08,50.83,52.13,48.7Zm-3.7-1c-3-.83-7-2.22-7-5.19,0-3.89,3.43-6,7-6.57V47.68Zm3.7,18V52.59c3.33,1.2,7,3.43,7,7.22C59.26,63.89,54.73,65.18,52.13,65.64Z"/><text x="0" y="115" fill="#000000" font-size="5px" font-weight="bold" font-family="'Helvetica Neue', Helvetica, Arial-Unicode, Arial, Sans-serif">Created by Giselle Pereira</text><text x="0" y="120" fill="#000000" font-size="5px" font-weight="bold" font-family="'Helvetica Neue', Helvetica, Arial-Unicode, Arial, Sans-serif">from the Noun Project</text></svg>