<svg xmlns="http://www.w3.org/2000/svg" xmlns:xlink="http://www.w3.org/1999/xlink" version="1.1" x="0px" y="0px" viewBox="0 0 100 125" style="enable-background:new 0 0 100 100;" xml:space="preserve"><path d="M67.4,42.8L50,54.5c-0.4,0.3-1,0-1-0.5V33c0-0.3,0.3-0.6,0.6-0.6c6,0.2,11.5,2.7,15.5,6.7  c0.9,0.9,1.7,1.9,2.4,2.9C67.8,42.2,67.7,42.6,67.4,42.8z"/><path d="M74.1,30.1c-0.1-0.1-0.2-0.2-0.3-0.2l2.7-3.3c0.2-0.3,0.2-0.8-0.1-1l-3.5-2.9c-0.3-0.2-0.8-0.2-1,0.1  L69.2,26c-4.8-3.3-10.3-5.5-16.4-6.1v-4.5h4.3V9.5H40.9v5.9h4.3v4.5c-8.3,0.9-15.7,4.6-21.3,10.2c-6.4,6.4-10.4,15.3-10.4,25.1  c0,19.6,15.9,35.5,35.5,35.5c9.8,0,18.7-4,25.1-10.4c6.4-6.4,10.4-15.3,10.4-25.1S80.5,36.5,74.1,30.1z M68.5,74.7  c-5,5-11.9,8.1-19.5,8.1c-15.2,0-27.6-12.4-27.6-27.6c0-7.6,3.1-14.5,8.1-19.5c5-5,11.9-8.1,19.5-8.1s14.5,3.1,19.5,8.1  c5,5,8.1,11.9,8.1,19.5S73.5,69.7,68.5,74.7z"/><text x="0" y="115" fill="#000000" font-size="5px" font-weight="bold" font-family="'Helvetica Neue', Helvetica, Arial-Unicode, Arial, Sans-serif">Created by Arfan Khan Kamol</text><text x="0" y="120" fill="#000000" font-size="5px" font-weight="bold" font-family="'Helvetica Neue', Helvetica, Arial-Unicode, Arial, Sans-serif">from the Noun Project</text></svg>