<svg xmlns="http://www.w3.org/2000/svg" xmlns:xlink="http://www.w3.org/1999/xlink" version="1.1" x="0px" y="0px" viewBox="0 0 100 125" style="enable-background:new 0 0 100 100;" xml:space="preserve"><g><path d="M74.999,45.001H55v-5.629c8.627-2.22,14.999-10.048,14.999-19.368C69.999,8.961,61.047,0.007,50,0.007   S30.001,8.961,30.001,20.004c0,9.32,6.373,17.148,14.999,19.368v5.629H25.001L0.002,99.992h99.996L74.999,45.001z M35.001,20.004   c0-8.27,6.728-14.998,14.999-14.998c8.271,0,14.999,6.728,14.999,14.998c0,6.518-4.18,12.075-9.999,14.138v-4.14   c0-2.761-2.238-5-5-5c-2.761,0-5,2.239-5,5v4.14C39.181,32.079,35.001,26.522,35.001,20.004z M28.221,50h43.558l20.455,44.994   H7.766L28.221,50z"/></g><text x="0" y="115" fill="#000000" font-size="5px" font-weight="bold" font-family="'Helvetica Neue', Helvetica, Arial-Unicode, Arial, Sans-serif">Created by b farias</text><text x="0" y="120" fill="#000000" font-size="5px" font-weight="bold" font-family="'Helvetica Neue', Helvetica, Arial-Unicode, Arial, Sans-serif">from the Noun Project</text></svg>