<svg xmlns="http://www.w3.org/2000/svg" width="2500" height="2500" viewBox="0 0 192.756 192.756">
	<g fill-rule="evenodd" clip-rule="evenodd">
		<path fill="#fff" d="M0 0h192.756v192.756H0V0z" />
		<path fill="#33348e"
			  d="M134.461 74.156h55.461v9.048h-33.43v5.845h33.43v8.549h-33.43v9.047h-22.031V74.156zM62.112 106.645L80.56 74.156h30.667l19.593 32.489v.029l-41.8-.029 5.14-9.047h10.545l-8.518-14.394-13.659 23.441H62.112zM40.581 106.645H2.834V74.156h37.718c30.167 0 28.405 32.489.029 32.489z" />
		<path d="M32.708 97.611h-9.164V83.204h9.164c11.24-.014 10.992 14.394 0 14.407z" fill="#fff" />
		<path fill="#cc2229" d="M2.834 110.61h187.088v7.99H2.834v-7.99z" />
	</g>
</svg>
